<?xml version="1.0" encoding="utf-8"?>
<!-- Generator: Adobe Illustrator 27.5.0, SVG Export Plug-In . SVG Version: 6.00 Build 0)  -->
<svg version="1.1" xmlns="http://www.w3.org/2000/svg" xmlns:xlink="http://www.w3.org/1999/xlink" x="0px" y="0px"
	 viewBox="0 0 500 500" style="enable-background:new 0 0 500 500;" xml:space="preserve">
<g id="BACKGROUND">
	<rect style="fill:#FFFFFF;" width="500" height="500"/>
</g>
<g id="OBJECTS">
	<path style="fill:#EDFFF6;" d="M73.658,123.542c-35.303,52.638-30.25,126.99,6.47,178.65
		c36.72,51.659,100.86,80.494,164.238,81.055c42.834,0.379,86.21-11.526,120.957-36.576c34.747-25.05,60.216-63.65,66.315-106.049
		c3.414-23.727,0.705-48.637-9.878-70.146c-10.583-21.509-29.404-39.3-52.254-46.547c-22.029-7.867-47.105-3.832-69.874-2.969
		c-10.884,0.412-23.556,1.246-34.211-1.351c-10.387-2.532-21.322-12.052-30.498-17.65c-11.628-7.094-23.333-14.226-36.031-19.153
		c-21.872-8.488-51.793-12.234-73.904-2.794C104.018,88.964,86.301,104.691,73.658,123.542z"/>
	<g>
		<g>
			<rect x="210.363" y="61.185" style="fill:#9DDFD3;" width="131.442" height="212.939"/>
			<rect x="216.276" y="68.147" style="fill:#DBF6E9;" width="119.616" height="62.885"/>
			<rect x="216.276" y="136.212" style="fill:#DBF6E9;" width="119.616" height="118.274"/>
		</g>
		<g>
			<rect x="350.373" y="61.185" style="fill:#9DDFD3;" width="84.939" height="183.491"/>
			<rect x="355.026" y="67.485" style="fill:#DBF6E9;" width="75.634" height="170.891"/>
			<rect x="363.603" y="78.17" style="fill:#FFDADA;" width="58.477" height="149.518"/>
			<path style="fill:#9DDFD3;" d="M422.08,126.024v101.664h-58.477v-83.697c10.811-10.902,25.479-17.98,41.78-19.024
				c1.4-0.097,2.813-0.143,4.239-0.143C413.887,124.825,418.049,125.233,422.08,126.024z"/>
			<path style="fill:#FF9191;" d="M405.747,119.873c0,1.731-0.123,3.429-0.363,5.095c-2.469,16.969-17.079,30.003-34.735,30.003
				c-2.411,0-4.77-0.246-7.046-0.706V85.488c2.275-0.46,4.634-0.706,7.046-0.706C390.035,84.782,405.747,100.493,405.747,119.873z"
				/>
		</g>
		<g>
			<circle style="fill:#E04A4A;" cx="134.303" cy="132.9" r="31.656"/>
			<circle style="fill:#FFDADA;" cx="134.303" cy="132.9" r="25.903"/>
			<path style="fill:#E04A4A;" d="M149.804,146.244c-0.325,0-0.652-0.102-0.93-0.314l-15.503-11.807
				c-0.408-0.311-0.635-0.805-0.603-1.318l0.966-15.581c0.053-0.847,0.783-1.489,1.63-1.439c0.847,0.052,1.491,0.782,1.439,1.629
				l-0.915,14.761l14.849,11.309c0.675,0.514,0.806,1.479,0.292,2.154C150.726,146.035,150.268,146.244,149.804,146.244z"/>
		</g>
	</g>
	<path style="fill:#7677B8;" d="M327.945,268.094c-0.577,0.182-1.16,0.311-1.743,0.395c-0.207,10.993-0.415,21.992-0.622,32.985
		l-1.102,58.866c-0.331,17.649-0.661,35.305-0.992,52.955c-0.149,0.635-0.298,1.063-0.447,1.27
		c-0.065,0.091-0.143,0.175-0.227,0.266l0.531-28.526c0.37-19.626,0.739-39.246,1.102-58.866
		c0.369-19.633,0.739-39.259,1.108-58.885c-0.7,0.052-1.4,0.039-2.087-0.039c-0.201,10.986-0.408,21.973-0.616,32.959l-1.102,58.866
		c-0.35,18.557-0.694,37.107-1.044,55.664c-0.207,0.078-0.421,0.143-0.648,0.207l0.557-29.906
		c0.37-19.626,0.732-39.246,1.102-58.866c0.37-19.672,0.739-39.343,1.108-59.015c-2.807-0.493-5.393-2.074-7.097-4.505
		c-0.24-0.343,0.324-0.661,0.564-0.324c2.554,3.643,7.24,5.205,11.485,3.876C328.172,267.349,328.34,267.971,327.945,268.094z"/>
	<g>
		<g>
			<polygon style="fill:#942B2B;" points="105.558,355.434 96.732,438.483 101.145,438.483 117.748,355.434 			"/>
			<polygon style="fill:#942B2B;" points="59.534,355.434 50.708,438.483 55.121,438.483 71.725,355.434 			"/>
			<polygon style="fill:#942B2B;" points="219.827,355.434 228.653,438.483 224.24,438.483 207.636,355.434 			"/>
			<polygon style="fill:#942B2B;" points="265.851,355.434 274.677,438.483 270.264,438.483 253.66,355.434 			"/>
			<g>
				<rect x="50.708" y="268.056" style="fill:#942B2B;" width="173.599" height="87.378"/>
				<rect x="99.188" y="268.056" style="fill:#E04A4A;" width="173.599" height="87.378"/>
				<rect x="185.428" y="268.801" style="fill:#942B2B;" width="1.12" height="85.888"/>
				<circle style="fill:#942B2B;" cx="179.368" cy="311.745" r="2.979"/>
				<circle style="fill:#942B2B;" cx="192.607" cy="311.745" r="2.979"/>
			</g>
			<g>
				<path style="fill:#942B2B;" d="M258.644,281.082c-4.649,5.301-9.553,10.377-14.694,15.201
					c-5.121,4.805-10.474,9.365-16.037,13.65c-3.137,2.416-6.341,4.745-9.605,6.987c-0.342,0.235-0.018,0.796,0.327,0.56
					c5.815-3.993,11.437-8.266,16.838-12.803c5.398-4.535,10.576-9.332,15.509-14.369c2.787-2.847,5.495-5.771,8.121-8.766
					C259.377,281.228,258.92,280.768,258.644,281.082z"/>
				<path style="fill:#942B2B;" d="M262.13,287.878c-5.659,5.732-11.517,11.267-17.562,16.589
					c-6.062,5.337-12.311,10.462-18.734,15.359c-3.598,2.743-7.251,5.414-10.954,8.014c-0.339,0.238-0.015,0.8,0.327,0.56
					c6.615-4.644,13.067-9.519,19.341-14.614c6.271-5.094,12.364-10.407,18.263-15.928c3.321-3.109,6.58-6.284,9.777-9.522
					C262.882,288.039,262.424,287.581,262.13,287.878z"/>
			</g>
			<g>
				<path style="fill:#942B2B;" d="M161.655,281.082c-4.649,5.301-9.553,10.377-14.694,15.201
					c-5.121,4.805-10.474,9.365-16.037,13.65c-3.137,2.416-6.341,4.745-9.605,6.987c-0.342,0.235-0.018,0.796,0.327,0.56
					c5.815-3.993,11.437-8.266,16.838-12.803c5.398-4.535,10.576-9.332,15.509-14.369c2.787-2.847,5.495-5.771,8.121-8.766
					C162.388,281.228,161.931,280.768,161.655,281.082z"/>
				<path style="fill:#942B2B;" d="M165.141,287.878c-5.659,5.732-11.517,11.267-17.562,16.589
					c-6.062,5.337-12.311,10.462-18.734,15.359c-3.598,2.743-7.251,5.414-10.953,8.014c-0.339,0.238-0.015,0.8,0.327,0.56
					c6.615-4.644,13.067-9.519,19.341-14.614c6.271-5.094,12.364-10.407,18.263-15.928c3.321-3.109,6.58-6.284,9.777-9.522
					C165.893,288.039,165.435,287.581,165.141,287.878z"/>
			</g>
		</g>
		<g>
			<g>
				<g>
					<g>
						<path style="fill:#31326F;" d="M155.473,262.971h-78.15c-0.884,0-1.675-0.717-1.766-1.601l-5.355-51.786
							c-0.091-0.884,0.551-1.601,1.435-1.601h78.15c0.884,0,1.675,0.717,1.766,1.601l5.355,51.786
							C156.999,262.255,156.357,262.971,155.473,262.971z"/>
						<path style="fill:#7677B8;" d="M159.49,262.971h-78.15c-0.884,0-1.675-0.717-1.766-1.601l-5.355-51.786
							c-0.091-0.884,0.551-1.601,1.435-1.601h78.15c0.884,0,1.675,0.717,1.766,1.601l5.355,51.786
							C161.017,262.255,160.374,262.971,159.49,262.971z"/>
						<path style="fill:#DBF6E9;" d="M157.694,257.134H81.93c-0.451,0-0.854-0.365-0.9-0.816l-4.709-45.54
							c-0.047-0.451,0.281-0.816,0.732-0.816h75.764c0.451,0,0.854,0.365,0.9,0.816l4.709,45.54
							C158.472,256.768,158.145,257.134,157.694,257.134z"/>
					</g>
					<path style="fill:#7677B8;" d="M195.207,264.214v2.604c0,0.686-0.553,1.239-1.239,1.239H77.271
						c-0.686,0-1.239-0.553-1.239-1.239v-2.604c0-0.686,0.553-1.239,1.239-1.239h116.696
						C194.654,262.974,195.207,263.527,195.207,264.214z"/>
					<path style="fill:#31326F;" d="M117.571,264.214v2.604c0,0.686-0.553,1.239-1.239,1.239H77.271
						c-0.686,0-1.239-0.553-1.239-1.239v-2.604c0-0.686,0.553-1.239,1.239-1.239h39.061
						C117.018,262.974,117.571,263.527,117.571,264.214z"/>
				</g>
				<rect x="94.778" y="265.16" style="fill:#7677B8;" width="13.984" height="1.324"/>
				<rect x="91.013" y="265.16" style="fill:#7677B8;" width="3.461" height="1.324"/>
			</g>
			<g>
				<defs>
					<path id="SVGID_1_" d="M157.694,257.134H81.93c-0.451,0-0.854-0.365-0.9-0.816l-4.709-45.54
						c-0.047-0.451,0.281-0.816,0.732-0.816h75.764c0.451,0,0.854,0.365,0.9,0.816l4.709,45.54
						C158.472,256.768,158.145,257.134,157.694,257.134z"/>
				</defs>
				<clipPath id="SVGID_00000179616861394164673640000012715000574700805554_">
					<use xlink:href="#SVGID_1_"  style="overflow:visible;"/>
				</clipPath>
				<g style="clip-path:url(#SVGID_00000179616861394164673640000012715000574700805554_);">
					<path d="M112.205,224.15c-0.68-0.222-1.347-0.525-1.882-1c-0.535-0.475-0.93-1.139-0.966-1.853
						c-0.036-0.715,0.336-1.464,0.983-1.769c-0.857-0.472-1.384-1.484-1.278-2.457c0.105-0.973,0.836-1.849,1.774-2.127
						c-0.134-0.656,0.142-1.379,0.679-1.779c0.537-0.4,1.309-0.457,1.899-0.139c0.195-0.992,1.048-1.819,2.045-1.984
						c0.997-0.165,2.071,0.344,2.575,1.22c0.65-0.661,1.702-0.889,2.567-0.557c0.865,0.333,1.494,1.207,1.533,2.133
						c0.762,0.175,1.412,0.774,1.648,1.52c0.236,0.745,0.051,1.609-0.471,2.192c0.484,0.26,0.772,0.843,0.686,1.386
						c-0.087,0.543-0.542,1.007-1.083,1.103c-1.161,1.624-2.863,2.777-4.771,3.365C116.236,223.992,114.103,224.769,112.205,224.15z
						"/>
					<g>
						<path style="fill:#FEAE93;" d="M95.894,224.135c-0.176-0.715-0.765-2.71-0.1-3.137c0.665-0.427,3.814-0.439,3.965-0.063
							c0.151,0.376-0.151,3.2-0.151,3.2H95.894z"/>
						<path style="fill:#FEAE93;" d="M100.287,220.354c0.612,0.705,0.438,3.71-0.192,3.728c-0.63,0.018-0.773-2.291-0.773-2.291
							s0.229,2.446-0.412,2.552c-0.641,0.106-0.839-2.76-0.839-2.76s0.32,2.71-0.454,2.832c-0.774,0.123-0.699-2.896-0.699-2.896
							s-0.066,2.334-0.679,2.284c-0.613-0.05-0.959-2.634-0.481-3.467C96.237,219.506,99.496,219.443,100.287,220.354z"/>
						<g>
							<g>
								<g>
									<g>
										<g>
											<g>
												<g>
													<g>
														<g>
															<g>
																<g>
																	<g>
																		<g>
																			<g>
																				<polygon style="fill:#31326F;" points="126.888,268.267 104.059,268.245 105.737,255.342 106.286,251.189 
																					106.429,250.112 106.566,249.07 108.667,233.174 111.39,232.419 113.229,231.912 117.62,231.87 
																					119.623,232.496 122.07,233.261 124.262,249.203 124.406,250.241 124.545,251.241 125.115,255.398 
																																									"/>
																			</g>
																		</g>
																	</g>
																</g>
															</g>
														</g>
													</g>
												</g>
											</g>
										</g>
									</g>
								</g>
							</g>
						</g>
						<path style="fill:#FEAE93;" d="M106.429,250.112l0.136-1.042l2.101-15.896l1.603-0.444
							C110.27,232.729,112.06,239.889,106.429,250.112z"/>
						<g>
							<path style="fill:#FEAE93;" d="M95.894,224.135h3.714l-0.77,17.688c0,0,5.89-7.522,9.827-8.651
								c2.146-0.615,3.025,2.802-1.059,8.292c-1.976,2.656-7.424,8.182-11.579,6.917C91.067,246.872,95.894,224.135,95.894,224.135z
								"/>
							<g>
								<g>
									<g>
										
											<rect x="101.809" y="217.693" transform="matrix(-1 -1.224647e-16 1.224647e-16 -1 205.8833 444.3043)" style="fill:#7677B8;" width="2.266" height="8.917"/>
										<path style="fill:#7677B8;" d="M102.643,222.152c0-2.463,0.641-4.459,1.431-4.459c0.79,0,1.431,1.996,1.431,4.459
											c0,2.462-0.641,4.459-1.431,4.459C103.284,226.611,102.643,224.615,102.643,222.152z"/>
										<path style="fill:#31326F;" d="M100.378,222.152c0-2.463,0.641-4.459,1.431-4.459c0.79,0,1.431,1.996,1.431,4.459
											c0,2.462-0.641,4.459-1.431,4.459C101.018,226.611,100.378,224.615,100.378,222.152z"/>
										<rect x="91.276" y="221.541" style="fill:#31326F;" width="10.919" height="1.222"/>
									</g>
									<g>
										<path style="fill:#31326F;" d="M94.577,222.152c0,2.462-0.641,4.459-1.431,4.459s-1.431-1.996-1.431-4.459
											c0-2.463,0.641-4.459,1.431-4.459S94.577,219.69,94.577,222.152z"/>
										<rect x="90.88" y="217.693" style="fill:#31326F;" width="2.266" height="8.917"/>
										<path style="fill:#7677B8;" d="M92.311,222.152c0,2.462-0.641,4.459-1.431,4.459s-1.431-1.996-1.431-4.459
											c0-2.463,0.641-4.459,1.431-4.459S92.311,219.69,92.311,222.152z"/>
									</g>
								</g>
								<g>
									<path style="fill:#31326F;" d="M91.83,222.152c0,1.504-0.391,2.723-0.874,2.723c-0.483,0-0.874-1.219-0.874-2.723
										c0-1.504,0.391-2.723,0.874-2.723C91.438,219.43,91.83,220.648,91.83,222.152z"/>
									<rect x="89.572" y="219.43" style="fill:#31326F;" width="1.384" height="5.445"/>
									<path style="fill:#7677B8;" d="M90.446,222.152c0,1.504-0.391,2.723-0.874,2.723c-0.483,0-0.874-1.219-0.874-2.723
										c0-1.504,0.391-2.723,0.874-2.723C90.055,219.43,90.446,220.648,90.446,222.152z"/>
								</g>
							</g>
						</g>
						<path style="fill:#FEAE93;" d="M124.406,250.241c-3.827-3.617-4.368-17.616-4.368-17.616l2.032,0.636l2.192,15.942
							L124.406,250.241z"/>
						<g>
							<path style="fill:#FEAE93;" d="M122.07,233.261c3.046,0.914,8.967,15.567,8.967,15.567l11.157-10.369l2.261,2.083
								c0,0-9.938,15.338-14.154,15.023c-3.542-0.264-7.208-9.846-7.208-9.846L122.07,233.261z"/>
							<g>
								<path style="fill:#FEAE93;" d="M141.788,239.839c0,0,1.286,1.208,2.768,0.739c1.457-0.461,1.853-1.588,1.853-1.588
									s1.806,1.504,2.287,1.304c0.481-0.2-1.378-2.106-1.378-2.106s2.615,0.859,2.787,0.441c0.172-0.418-2.552-1.539-2.552-1.539
									s2.997-0.377,2.923-0.987c-0.075-0.61-3.779-0.156-3.779-0.156s1.709-2.038,1.287-2.409
									c-0.607-0.533-4.331,2.869-4.365,2.819c-0.034-0.05-0.464-2.434-1.384-2.09c-0.888,0.331,0.029,1.27-0.258,2.365
									C141.844,237.14,141.044,238.944,141.788,239.839z"/>
							</g>
						</g>
					</g>
					<g>
						<g>
							<path style="fill:#FEAE93;" d="M111.88,224.41c0,0,1.501,3.397,1.399,7.851c0.863,2.049,3.598,1.834,4.328,0.045
								c0.018-1.695,0.34-2.479,0.899-3.045c0.046-0.048,0.091-0.09,0.139-0.134c0.033-0.032,0.066-0.06,0.102-0.089
								c0.066-0.058,0.14-0.109,0.212-0.166c0.494-0.369,1.107-0.708,1.817-1.3c0.832-0.688,1.466-1.651,1.75-3.192
								c0.004-0.022,0.009-0.044,0.013-0.067c0.006-0.039,0.011-0.075,0.016-0.115c0.004-0.017,0.005-0.034,0.009-0.05
								c0.226-1.477,0.157-3.463-0.33-6.217c-0.505-2.857-7.369-4.149-9.365-0.582C112.049,218.823,111.88,224.41,111.88,224.41z"/>
							<g>
								<g>
									<path d="M117.011,222.912c-0.003,0.243,0.193,0.443,0.436,0.445c0.243,0.003,0.443-0.193,0.445-0.436
										c0.002-0.243-0.193-0.443-0.436-0.445C117.212,222.473,117.013,222.668,117.011,222.912z"/>
									<path style="fill:#FFFFFF;" d="M117.452,222.796c-0.001,0.089,0.071,0.162,0.16,0.163c0.089,0.001,0.162-0.071,0.163-0.16
										c0.001-0.089-0.071-0.162-0.16-0.163C117.526,222.635,117.453,222.706,117.452,222.796z"/>
								</g>
								<g>
									<path d="M120.419,222.946c-0.002,0.243,0.193,0.443,0.436,0.445c0.243,0.002,0.443-0.193,0.445-0.436
										c0.002-0.243-0.193-0.443-0.436-0.445C120.621,222.507,120.422,222.702,120.419,222.946z"/>
									<path style="fill:#FFFFFF;" d="M120.861,222.83c-0.001,0.089,0.071,0.162,0.16,0.163c0.089,0.001,0.162-0.071,0.163-0.16
										c0.001-0.089-0.071-0.162-0.16-0.163C120.935,222.669,120.862,222.741,120.861,222.83z"/>
								</g>
								<g>
									<path style="fill:#8E4136;" d="M118.19,224.937c0.134-0.212,0.496,0.005,0.926,0.035c0.43,0.03,0.818-0.136,0.922,0.093
										c0.131,0.289-0.287,0.956-0.991,0.907C118.344,225.923,118.021,225.205,118.19,224.937z"/>
									<path style="fill:#C16B5B;" d="M118.219,225.402c0.136-0.008,0.28-0.009,0.432,0.002c0.5,0.035,0.921,0.167,1.111,0.328
										c-0.175,0.152-0.417,0.261-0.714,0.24C118.625,225.943,118.342,225.671,118.219,225.402z"/>
									<path style="fill:#FFFFFF;" d="M119.1,225.213c-0.384-0.026-0.703-0.14-0.808-0.355c0.174-0.057,0.477,0.09,0.825,0.114
										c0.347,0.024,0.667-0.079,0.832,0.001C119.816,225.171,119.483,225.24,119.1,225.213z"/>
								</g>
								<path style="fill:#C16B5B;" d="M119.86,224.135c0.025,0,0.048-0.016,0.056-0.041c0.113-0.375-0.014-0.504-0.14-0.546
									c-0.128-0.042-0.282-0.011-0.457,0.095c-0.027,0.016-0.036,0.052-0.019,0.079c0.017,0.027,0.052,0.035,0.079,0.019
									c0.145-0.087,0.267-0.116,0.361-0.085c0.113,0.038,0.135,0.173,0.066,0.404c-0.009,0.03,0.008,0.062,0.039,0.072
									C119.849,224.135,119.854,224.135,119.86,224.135z"/>
							</g>
							<path d="M121.656,221.214c-0.53-0.283-1.172-0.307-1.71-0.025c-0.132,0.069-0.204,0.244-0.129,0.381
								c0.073,0.132,0.24,0.202,0.381,0.129c0.054-0.028,0.11-0.052,0.166-0.075c0.006-0.002,0.005-0.002,0.008-0.003
								c0.01-0.003,0.02-0.006,0.03-0.009c0.022-0.006,0.044-0.012,0.066-0.018c0.059-0.014,0.119-0.025,0.179-0.033
								c0.015-0.002,0.113-0.019,0.037-0.005c0.025-0.005,0.054-0.002,0.08-0.002c0.057,0,0.114,0.004,0.171,0.01
								c0.03,0.003,0.06,0.009,0.09,0.013c0.003,0,0.004,0.001,0.007,0.001c0.004,0.001,0.01,0.003,0.019,0.005
								c0.055,0.014,0.11,0.03,0.163,0.05c0.028,0.011,0.057,0.022,0.084,0.034c0.011,0.005,0.022,0.01,0.033,0.015
								c0.002,0.001,0.001,0.001,0.003,0.002c0.001,0,0.002,0,0.002,0.001c0.001,0,0.002,0.001,0.002,0.001
								c-0.001-0.001-0.001,0-0.002-0.001c0.131,0.068,0.306,0.063,0.392-0.076C121.805,221.489,121.796,221.288,121.656,221.214z"
								/>
							<path d="M118.335,220.984c-0.53-0.283-1.172-0.307-1.71-0.025c-0.132,0.069-0.204,0.245-0.129,0.381
								c0.073,0.132,0.24,0.203,0.381,0.129c0.054-0.028,0.11-0.052,0.166-0.075c0.006-0.002,0.005-0.002,0.008-0.003
								c0.01-0.003,0.02-0.006,0.03-0.009c0.022-0.006,0.044-0.012,0.066-0.018c0.059-0.014,0.119-0.025,0.179-0.033
								c0.015-0.002,0.113-0.019,0.037-0.005c0.025-0.005,0.054-0.002,0.08-0.002c0.057,0,0.114,0.004,0.171,0.01
								c0.03,0.003,0.06,0.009,0.09,0.013c0.003,0,0.004,0.001,0.007,0.001c0.004,0.001,0.01,0.003,0.019,0.005
								c0.055,0.014,0.11,0.03,0.163,0.05c0.029,0.011,0.057,0.022,0.084,0.034c0.011,0.005,0.022,0.01,0.033,0.015
								c0.002,0.001,0.001,0.001,0.004,0.002c0.001,0,0.002,0.001,0.002,0.001c0.001,0,0.002,0.001,0.003,0.001
								c-0.001-0.001-0.001,0-0.002-0.001c0.131,0.068,0.306,0.063,0.392-0.076C118.484,221.26,118.475,221.059,118.335,220.984z"/>
							<g>
								<path style="fill:#FEAE93;" d="M110.372,224.523c0.583,0.709,1.511,0.909,2.074,0.447c0.563-0.462,0.547-1.412-0.036-2.121
									c-0.583-0.709-1.511-0.909-2.074-0.447C109.774,222.864,109.79,223.813,110.372,224.523z"/>
								<path style="fill:#C16B5B;" d="M110.718,222.749c0.252-0.13,0.586-0.121,0.894,0.026c0.153,0.073,0.264,0.161,0.339,0.269
									c0.099,0.143,0.126,0.322,0.068,0.467c-0.051,0.13-0.156,0.213-0.248,0.287c-0.067,0.053-0.13,0.104-0.166,0.164
									c-0.055,0.093-0.043,0.225,0.029,0.305c0.072,0.081,0.201,0.108,0.3,0.064c0.058-0.026,0.126,0,0.152,0.058
									c0.026,0.058,0,0.126-0.058,0.152c-0.064,0.029-0.132,0.042-0.201,0.041c-0.137-0.001-0.273-0.058-0.366-0.162
									c-0.138-0.156-0.161-0.398-0.055-0.577c0.057-0.096,0.144-0.166,0.221-0.226c0.077-0.061,0.149-0.119,0.178-0.192
									c0.029-0.073,0.012-0.171-0.043-0.251c-0.022-0.032-0.053-0.061-0.086-0.089c-0.114-0.002-0.258,0.032-0.331,0.11
									c-0.082,0.089-0.122,0.217-0.104,0.337c0.01,0.063-0.033,0.122-0.096,0.131c-0.006,0.001-0.013,0.001-0.019,0.001
									c-0.055-0.001-0.104-0.041-0.112-0.098c-0.03-0.19,0.031-0.388,0.163-0.529c0.049-0.052,0.11-0.088,0.174-0.116
									c-0.19-0.053-0.378-0.045-0.525,0.031c-0.181,0.093-0.32,0.338-0.229,0.539c0.026,0.058,0,0.126-0.058,0.153
									c-0.058,0.026-0.126,0-0.152-0.058C110.253,223.295,110.405,222.911,110.718,222.749z"/>
							</g>
						</g>
					</g>
					<path d="M122.423,217.195c-0.498,0.412-1.131,0.623-1.762,0.763c-2.008,0.444-4.154,0.238-6.04-0.582
						c0.078,0.306-0.042,0.64-0.209,0.908c-0.167,0.268-0.446,0.463-0.756,0.528c0.087,0.868,0.005,1.761-0.309,2.575
						c-0.314,0.814-0.869,1.545-1.61,2.005c0.094-1.122-0.226-2.204-0.316-3.327c-0.09-1.122-0.064-2.299,0.437-3.307
						c0.625-1.257,1.929-2.083,3.299-2.389c1.37-0.306,2.804-0.149,4.174,0.158c0.729,0.163,1.461,0.374,2.084,0.786
						C122.037,215.725,122.335,216.453,122.423,217.195z"/>
				</g>
			</g>
		</g>
	</g>
	<g>
		<g>
			<g>
				<path style="fill:#E04A4A;" d="M350.42,437.707c0,0.675-0.067,1.102-0.067,1.102h-41.835c-0.079-0.393-0.146-0.776-0.225-1.125
					c-0.079-0.416-0.124-0.81-0.169-1.215l-0.034-0.281c-0.135-1.192-0.146-2.328-0.09-3.385c0.045-1.023,0.169-1.968,0.337-2.834
					c0-0.023,0.022-0.045,0.022-0.09c0-0.045,0.011-0.112,0.022-0.158c0.034-0.191,0.068-0.371,0.113-0.529
					c0.022-0.09,0.045-0.169,0.067-0.247c0.101-0.405,0.202-0.787,0.304-1.147c0.011-0.022,0.011-0.034,0.022-0.056
					c0.641-2.069,1.35-3.261,1.35-3.261c6.219,1.327,12.854,0.011,12.854,0.011s5.072,3.835,16.509,4.734
					c0.157,0.011,0.315,0.023,0.472,0.034c0.484,0.034,0.933,0.079,1.383,0.146h0.022c0.315,0.045,0.607,0.079,0.877,0.146
					c5.713,1.046,7.434,4.296,7.883,6.646c0.034,0.09,0.045,0.191,0.056,0.27C350.375,436.942,350.397,437.358,350.42,437.707z"/>
				<path style="fill:#FF9191;" d="M318.841,438.449c-0.54,0.146-1.293-0.18-1.383-0.787c-0.36-2.294-1.507-4.42-3.351-5.859
					c-1.631-1.26-3.722-1.923-5.769-1.833c0-0.023,0.022-0.045,0.022-0.09c0-0.045,0.011-0.112,0.022-0.158
					c0.034-0.191,0.068-0.371,0.113-0.529c0.022-0.09,0.045-0.169,0.067-0.247c0.101-0.405,0.202-0.787,0.304-1.147
					c0.011-0.022,0.011-0.034,0.022-0.056c2.283,0.034,4.532,0.742,6.399,2.148c2.294,1.732,3.902,4.318,4.33,7.175
					C319.718,437.673,319.482,438.269,318.841,438.449z"/>
				<path style="fill:#FFFFFF;" d="M327.249,424.828c-0.142-0.131-0.329-0.228-0.529-0.219c-0.211,0.009-0.365,0.089-0.529,0.219
					c-0.115,0.091-0.23,0.181-0.346,0.271c-0.552,0.425-1.113,0.838-1.684,1.237c-0.162,0.114-0.289,0.25-0.344,0.447
					c-0.049,0.179-0.027,0.417,0.075,0.576c0.205,0.318,0.68,0.508,1.023,0.269c0.796-0.556,1.572-1.139,2.333-1.742
					c0.14-0.111,0.219-0.359,0.219-0.529C327.468,425.173,327.386,424.954,327.249,424.828z"/>
				<path style="fill:#FFFFFF;" d="M330.21,426.16c-0.28-0.257-0.785-0.317-1.057,0c-0.547,0.637-1.158,1.215-1.82,1.732
					c-0.106,0.08-0.212,0.16-0.321,0.236c-0.162,0.115-0.289,0.249-0.344,0.447c-0.049,0.179-0.027,0.417,0.075,0.576
					c0.204,0.316,0.681,0.51,1.023,0.268c0.899-0.636,1.726-1.366,2.444-2.202c0.131-0.152,0.219-0.322,0.219-0.529
					C330.429,426.505,330.347,426.286,330.21,426.16z"/>
				<path style="fill:#FFFFFF;" d="M332.932,427.127c-0.142-0.131-0.329-0.228-0.529-0.219c-0.184,0.008-0.41,0.066-0.529,0.219
					l-1.696,2.18c-0.127,0.164-0.219,0.312-0.219,0.529c0,0.183,0.081,0.402,0.219,0.529c0.142,0.131,0.329,0.228,0.529,0.219
					c0.184-0.008,0.41-0.066,0.529-0.219l1.696-2.18c0.127-0.164,0.219-0.312,0.219-0.529
					C333.151,427.472,333.07,427.253,332.932,427.127z"/>
				<path style="fill:#FFFFFF;" d="M335.951,427.832c-0.36-0.19-0.816-0.092-1.026,0.273c-0.37,0.634-0.737,1.262-1.107,1.897
					c-0.229,0.337-0.126,0.865,0.244,1.061c0.36,0.19,0.816,0.092,1.026-0.273c0.37-0.634,0.737-1.263,1.107-1.897
					C336.425,428.555,336.322,428.028,335.951,427.832z"/>
				<path style="fill:#FFFFFF;" d="M308.122,436.473c0.048,0.395,0.096,0.797,0.177,1.208c0.072,0.362,0.137,0.741,0.225,1.127
					l41.824,0.007c0,0,0.073-0.427,0.073-1.111c-0.016-0.354-0.04-0.765-0.121-1.224L308.122,436.473z"/>
			</g>
			<path style="fill:#FEAE93;" d="M331.464,259.075l-8.366,165.416c-5.699,2.267-12.855,0-12.855,0s-14.244-144.959-15.581-165.895
				L331.464,259.075z"/>
			<g>
				<path style="fill:#E04A4A;" d="M272.497,436.188l-0.034,0.281c-0.045,0.405-0.101,0.799-0.169,1.215
					c-0.09,0.349-0.146,0.731-0.225,1.125h-41.835c0,0-0.067-0.427-0.067-1.102c0.022-0.349,0.045-0.765,0.112-1.237
					c0.023-0.079,0.034-0.18,0.068-0.27c0.45-2.35,2.17-5.6,7.883-6.646c0.27-0.068,0.562-0.101,0.877-0.146h0.023
					c0.45-0.068,0.9-0.113,1.372-0.146c0.169-0.011,0.326-0.023,0.484-0.034c11.437-0.9,16.509-4.734,16.509-4.734
					s6.624,1.316,12.843-0.011c0,0,0.731,1.215,1.383,3.318c0.022,0.09,0.056,0.18,0.079,0.281c0.079,0.27,0.146,0.562,0.225,0.866
					c0.022,0.079,0.045,0.158,0.068,0.247c0.045,0.157,0.079,0.337,0.112,0.529c0,0.045,0.022,0.112,0.022,0.158
					c0,0.045,0.023,0.067,0.023,0.09c0.023,0.124,0.045,0.247,0.067,0.371c0.135,0.765,0.236,1.586,0.27,2.463
					C272.643,433.86,272.632,434.996,272.497,436.188z"/>
				<path style="fill:#FF9191;" d="M272.317,430.34c-4.397-0.158-8.446,2.587-9.739,6.905c-0.405,1.383-2.575,0.787-2.171-0.607
					c1.507-5.038,6.197-8.558,11.392-8.558c0.079,0.27,0.146,0.562,0.225,0.866c0.022,0.079,0.045,0.158,0.068,0.247
					c0.045,0.157,0.079,0.337,0.112,0.529c0,0.045,0.022,0.112,0.022,0.158c0,0.045,0.023,0.067,0.023,0.09
					C272.272,430.093,272.294,430.217,272.317,430.34z"/>
				<path style="fill:#FFFFFF;" d="M253.336,424.828c0.142-0.131,0.329-0.228,0.529-0.219c0.211,0.009,0.365,0.089,0.529,0.219
					c0.115,0.091,0.231,0.181,0.346,0.271c0.552,0.425,1.113,0.838,1.683,1.237c0.162,0.114,0.29,0.25,0.344,0.447
					c0.049,0.179,0.027,0.417-0.075,0.576c-0.205,0.318-0.68,0.508-1.023,0.269c-0.796-0.556-1.572-1.139-2.333-1.742
					c-0.14-0.111-0.219-0.359-0.219-0.529C253.118,425.173,253.199,424.954,253.336,424.828z"/>
				<path style="fill:#FFFFFF;" d="M250.375,426.16c0.28-0.257,0.785-0.317,1.057,0c0.548,0.637,1.158,1.215,1.821,1.732
					c0.106,0.08,0.212,0.16,0.321,0.236c0.162,0.115,0.289,0.249,0.344,0.447c0.049,0.179,0.027,0.417-0.075,0.576
					c-0.204,0.316-0.681,0.51-1.023,0.268c-0.899-0.636-1.726-1.366-2.444-2.202c-0.131-0.152-0.219-0.322-0.219-0.529
					C250.156,426.505,250.238,426.286,250.375,426.16z"/>
				<path style="fill:#FFFFFF;" d="M247.653,427.127c0.142-0.131,0.329-0.228,0.529-0.219c0.184,0.008,0.41,0.066,0.529,0.219
					l1.696,2.18c0.127,0.164,0.219,0.312,0.219,0.529c0,0.183-0.081,0.402-0.219,0.529c-0.142,0.131-0.329,0.228-0.529,0.219
					c-0.184-0.008-0.41-0.066-0.529-0.219l-1.696-2.18c-0.127-0.164-0.219-0.312-0.219-0.529
					C247.434,427.472,247.516,427.253,247.653,427.127z"/>
				<path style="fill:#FFFFFF;" d="M244.634,427.832c0.36-0.19,0.816-0.092,1.026,0.273c0.37,0.634,0.737,1.262,1.107,1.896
					c0.229,0.337,0.127,0.865-0.244,1.061c-0.36,0.19-0.816,0.092-1.026-0.273c-0.37-0.634-0.737-1.263-1.107-1.897
					C244.161,428.555,244.263,428.028,244.634,427.832z"/>
				<path style="fill:#FFFFFF;" d="M272.464,436.473c-0.048,0.395-0.096,0.797-0.177,1.208c-0.072,0.362-0.137,0.741-0.225,1.127
					l-41.824,0.007c0,0-0.073-0.427-0.073-1.111c0.016-0.354,0.04-0.765,0.121-1.224L272.464,436.473z"/>
			</g>
			<path style="fill:#FEAE93;" d="M268.875,259.075c-4.883,46.223-11.388,165.416-11.388,165.416c5.699,2.267,12.855,0,12.855,0
				s33.712-144.959,35.049-165.894C305.391,258.575,268.875,259.075,268.875,259.075z"/>
		</g>
		<g>
			<path style="fill:#7677B8;" d="M257.055,410.006c-0.503,3.158-0.965,9.147-0.262,10.085c1.578,2.106,13.434,1.974,15.48,1.184
				c2.046-0.79,2.405-10.409,2.405-10.409L257.055,410.006z"/>
			<path style="fill:#7677B8;" d="M307.967,413.296c0,0-0.329,7.729,0.963,8.375c1.292,0.646,13.193,1.149,14.863,0
				c1.671-1.148,1.479-8.375,1.479-8.375H307.967z"/>
			<path style="fill:#31326F;" d="M326.076,413.295c-0.149,0.635-0.298,1.063-0.447,1.27c-0.065,0.091-0.143,0.175-0.227,0.266
				c-0.46,0.467-1.193,0.862-2.107,1.173c-0.207,0.078-0.421,0.143-0.648,0.207c-4.55,1.277-12.555,0.836-15.608-2.081
				c-3.617-3.442-9.139-110.615-9.139-110.615s-18.887,106.668-22.815,110.116c-0.311,0.272-0.875,0.518-1.62,0.726
				c-0.214,0.058-0.441,0.11-0.681,0.162c-0.771,0.169-1.672,0.298-2.657,0.389c-0.214,0.02-0.434,0.039-0.661,0.052
				c-4.907,0.337-11.44-0.363-13.618-2.956c-5.224-6.222,9.606-136.198,11.971-152.35l64.797-0.233
				C333.459,269.844,329.609,398.381,326.076,413.295z"/>
			<path style="fill:#7677B8;" d="M302.854,261.697c0.058-0.413-0.588-0.474-0.645-0.061c-0.963,6.899-1.925,13.797-2.888,20.696
				c-2.572-0.944-3.972-3.636-4.355-6.244c-0.24-1.63-0.162-3.285-0.036-4.921c0.136-1.754,0.331-3.505,0.584-5.246
				c0.291-2.006,0.661-3.999,1.104-5.977c0.091-0.406-0.555-0.463-0.645-0.061c-0.821,3.669-1.387,7.394-1.681,11.143
				c-0.249,3.173-0.283,6.604,1.593,9.336c0.818,1.192,1.972,2.158,3.347,2.62c-0.046,0.329-0.092,0.657-0.137,0.986l-0.882,6.323
				c-0.058,0.413,0.588,0.474,0.645,0.061c0.342-2.451,0.684-4.901,1.026-7.352c0.116-0.114,0.152-0.296,0.058-0.416
				c0.677-4.855,1.355-9.709,2.032-14.564L302.854,261.697z"/>
			<path style="fill:#7677B8;" d="M295.632,302.946c-0.22,0.933-0.434,1.867-0.655,2.8c-1.756,7.59-3.468,15.186-5.12,22.802
				c-1.653,7.57-3.247,15.154-4.79,22.75c-1.556,7.635-3.053,15.277-4.505,22.932c-1.439,7.616-2.832,15.238-4.168,22.874
				c-1.005,5.749-1.983,11.498-2.93,17.254c-0.214,0.058-0.441,0.11-0.681,0.162c1.121-6.812,2.282-13.618,3.481-20.411
				c1.355-7.635,2.755-15.258,4.207-22.874c1.465-7.648,2.975-15.29,4.544-22.919c1.556-7.596,3.163-15.173,4.829-22.744
				c1.666-7.609,3.39-15.206,5.159-22.796C295.101,302.376,295.729,302.538,295.632,302.946z"/>
			<path style="fill:#7677B8;" d="M292.787,300.49c-0.214,0.933-0.434,1.867-0.648,2.807c-1.763,7.583-3.474,15.186-5.127,22.796
				c-1.646,7.577-3.247,15.16-4.79,22.757c-1.556,7.629-3.053,15.277-4.505,22.925c-1.439,7.616-2.826,15.245-4.168,22.88
				c-1.18,6.741-2.32,13.495-3.422,20.255c-0.214,0.02-0.434,0.039-0.661,0.052c0.019-0.091,0.032-0.175,0.045-0.266
				c1.251-7.694,2.554-15.368,3.908-23.042c1.355-7.629,2.755-15.258,4.207-22.867c1.465-7.655,2.975-15.29,4.544-22.926
				c1.556-7.59,3.169-15.173,4.829-22.744c1.666-7.609,3.39-15.206,5.159-22.789C292.255,299.919,292.884,300.081,292.787,300.49z"
				/>
		</g>
		<g>
			<path style="fill:#FFDADA;" d="M281.426,159.201c0.681-2.503,8.098-9.634,17.573-10.16c9.475-0.526,20.888,4.164,23.126,10.768
				L281.426,159.201z"/>
			<path style="fill:#FEAE93;" d="M356.473,133.428H345.85l2.201,50.595c0,0-10.743-18.831-28.11-24.745l0.928,23.214
				c0,0,21.67,25.117,35.221,20.29C370.064,197.805,356.473,133.428,356.473,133.428z"/>
			<path style="fill:#FEAE93;" d="M356.473,133.428c0.503-2.046,2.189-7.753,0.287-8.973c-1.902-1.22-10.911-1.256-11.342-0.18
				c-0.431,1.077,0.431,9.152,0.431,9.152H356.473z"/>
			<g>
				<g>
					<g>
						<rect x="333.074" y="115.001" style="fill:#7677B8;" width="6.481" height="25.508"/>
						<path style="fill:#7677B8;" d="M337.167,127.755c0-7.044-1.833-12.754-4.093-12.754c-2.261,0-4.093,5.71-4.093,12.754
							c0,7.044,1.833,12.754,4.093,12.754C335.334,140.509,337.167,134.799,337.167,127.755z"/>
						<ellipse style="fill:#31326F;" cx="339.555" cy="127.755" rx="4.093" ry="12.754"/>
						
							<rect x="338.45" y="126.008" transform="matrix(-1 -1.224647e-16 1.224647e-16 -1 708.1311 255.5099)" style="fill:#31326F;" width="31.232" height="3.494"/>
					</g>
					<g>
						<ellipse style="fill:#31326F;" cx="364.334" cy="127.755" rx="4.093" ry="12.754"/>
						
							<rect x="364.334" y="115.001" transform="matrix(-1 -1.224647e-16 1.224647e-16 -1 735.1485 255.5099)" style="fill:#31326F;" width="6.481" height="25.508"/>
						<path style="fill:#7677B8;" d="M366.721,127.755c0,7.044,1.833,12.754,4.093,12.754c2.261,0,4.094-5.71,4.094-12.754
							c0-7.044-1.833-12.754-4.094-12.754C368.554,115.001,366.721,120.711,366.721,127.755z"/>
					</g>
				</g>
				<g>
					<ellipse style="fill:#31326F;" cx="370.598" cy="127.755" rx="2.5" ry="7.788"/>
					
						<rect x="370.598" y="119.967" transform="matrix(-1 -1.224647e-16 1.224647e-16 -1 745.1548 255.5099)" style="fill:#31326F;" width="3.958" height="15.576"/>
					<path style="fill:#7677B8;" d="M372.057,127.755c0,4.301,1.119,7.788,2.5,7.788c1.38,0,2.5-3.487,2.5-7.788
						c0-4.301-1.119-7.788-2.5-7.788C373.176,119.967,372.057,123.454,372.057,127.755z"/>
				</g>
			</g>
			<path style="fill:#FEAE93;" d="M343.906,122.612c-1.752,2.017-1.253,10.611,0.548,10.664c1.801,0.053,2.211-6.552,2.211-6.552
				s-0.656,6.997,1.178,7.3c1.834,0.303,2.4-7.894,2.4-7.894s-0.916,7.75,1.298,8.102c2.215,0.352,1.999-8.283,1.999-8.283
				s0.19,6.675,1.943,6.533c1.753-0.142,2.743-7.535,1.376-9.916C355.494,120.186,346.17,120.006,343.906,122.612z"/>
			<path style="fill:#E04A4A;" d="M319.941,159.277c11.136,3.15,22.271,15.366,22.271,15.366s-5.073,16.941-13.017,20.673
				l-7.37-9.954L319.941,159.277z"/>
			<path style="fill:#FEAE93;" d="M245.451,133.428h10.624l-2.201,50.595c0,0,10.359-18.581,27.725-24.495l-0.543,22.964
				c0,0-21.67,25.117-35.221,20.29C231.86,197.805,245.451,133.428,245.451,133.428z"/>
			<path style="fill:#FEAE93;" d="M256.062,133.428c0.503-2.046,2.189-7.753,0.287-8.973c-1.902-1.22-10.911-1.256-11.342-0.18
				c-0.431,1.077,0.431,9.152,0.431,9.152H256.062z"/>
			<g>
				<g>
					<g>
						<rect x="232.663" y="115.001" style="fill:#7677B8;" width="6.481" height="25.508"/>
						<ellipse style="fill:#7677B8;" cx="232.663" cy="127.755" rx="4.093" ry="12.754"/>
						<path style="fill:#31326F;" d="M243.237,127.755c0-7.044-1.833-12.754-4.094-12.754c-2.261,0-4.093,5.71-4.093,12.754
							c0,7.044,1.833,12.754,4.093,12.754C241.405,140.509,243.237,134.799,243.237,127.755z"/>
						
							<rect x="238.039" y="126.008" transform="matrix(-1 -1.224647e-16 1.224647e-16 -1 507.3092 255.5099)" style="fill:#31326F;" width="31.232" height="3.494"/>
					</g>
					<g>
						<path style="fill:#31326F;" d="M259.829,127.755c0,7.044,1.833,12.754,4.093,12.754c2.261,0,4.094-5.71,4.094-12.754
							c0-7.044-1.833-12.754-4.094-12.754C261.662,115.001,259.829,120.711,259.829,127.755z"/>
						
							<rect x="263.923" y="115.001" transform="matrix(-1 -1.224647e-16 1.224647e-16 -1 534.3266 255.5099)" style="fill:#31326F;" width="6.481" height="25.508"/>
						<path style="fill:#7677B8;" d="M266.31,127.755c0,7.044,1.833,12.754,4.094,12.754c2.261,0,4.093-5.71,4.093-12.754
							c0-7.044-1.833-12.754-4.093-12.754C268.143,115.001,266.31,120.711,266.31,127.755z"/>
					</g>
				</g>
				<g>
					<ellipse style="fill:#31326F;" cx="270.188" cy="127.755" rx="2.5" ry="7.788"/>
					
						<rect x="270.188" y="119.967" transform="matrix(-1 -1.224647e-16 1.224647e-16 -1 544.3329 255.5099)" style="fill:#31326F;" width="3.958" height="15.576"/>
					<ellipse style="fill:#7677B8;" cx="274.145" cy="127.755" rx="2.5" ry="7.788"/>
				</g>
			</g>
			<path style="fill:#FEAE93;" d="M243.495,122.612c-1.752,2.017-1.253,10.611,0.548,10.664c1.801,0.053,2.211-6.552,2.211-6.552
				s-0.656,6.997,1.178,7.3c1.834,0.303,2.4-7.894,2.4-7.894s-0.916,7.75,1.298,8.102c2.215,0.352,1.999-8.283,1.999-8.283
				s0.19,6.675,1.943,6.533c1.753-0.142,2.743-7.535,1.376-9.916C255.083,120.186,245.759,120.006,243.495,122.612z"/>
			<path style="fill:#E04A4A;" d="M281.598,159.527c-12.173,3.822-20.596,13.13-20.596,13.13s2.363,12.993,10.298,21.822
				l9.658-9.116L281.598,159.527z"/>
			<g>
				<g>
					<g>
						<g>
							<g>
								<g>
									<g>
										<g>
											<g>
												<g>
													<g>
														<g>
															<g>
																<g>
																	<path style="fill:#E04A4A;" d="M333.12,259.06c-1.27,2.47-49.49,5.78-65.3,0.6l5.07-36.81l1.63-11.89l0.4-2.86
																		l0.41-2.97l6.27-45.6l12.73-3.98l12.56,0.12l13.05,3.61l6.01,45.47l0.39,2.98l0.41,3.08l1.57,11.88L333.12,259.06z
																		"/>
																</g>
															</g>
														</g>
													</g>
												</g>
											</g>
										</g>
									</g>
								</g>
							</g>
						</g>
					</g>
				</g>
			</g>
			<g>
				<path style="fill:#FFFFFF;" d="M326.34,207.73c-17.11,1.25-34.29,1.38-51.42,0.37l0.41-2.97c16.86,0.98,33.77,0.85,50.62-0.38
					L326.34,207.73z"/>
				<path style="fill:#FFFFFF;" d="M328.32,222.69c-18.45,1.36-36.96,1.41-55.43,0.16l1.63-11.89c17.4,1.11,34.84,1.05,52.23-0.15
					L328.32,222.69z"/>
			</g>
			<g>
				<g>
					<path style="fill:#942B2B;" d="M319.961,214.462c-2.485,4.078-5.614,7.742-9.227,10.864c-3.594,3.106-7.663,5.664-12.02,7.557
						c-2.47,1.073-5.038,1.919-7.659,2.537c-0.406,0.096-0.234,0.721,0.172,0.625c4.699-1.107,9.214-2.967,13.347-5.458
						c4.132-2.491,7.894-5.609,11.091-9.224c1.807-2.043,3.435-4.245,4.854-6.575C320.738,214.432,320.178,214.106,319.961,214.462z
						"/>
					<path style="fill:#942B2B;" d="M317.77,224.405c-5.642,4.58-11.799,8.749-18.802,10.913c-1.965,0.607-3.981,1.051-6.025,1.291
						c-0.409,0.048-0.414,0.697,0,0.648c7.417-0.87,14.216-4.274,20.246-8.545c1.725-1.222,3.398-2.516,5.04-3.849
						C318.552,224.6,318.091,224.144,317.77,224.405z"/>
				</g>
			</g>
			<g>
				<g>
					<path style="fill:#FFDADA;" d="M294.336,196.852c-0.675,0.574-18.039,1.574-19.118,0.574c-0.247-0.236-0.124-2.294,0.247-5.353
						c0.079-0.697,0.18-1.451,0.281-2.238c0.101-0.776,0.214-1.586,0.337-2.429c0.101-0.72,0.214-1.473,0.337-2.238
						c1.619-10.796,4.251-24.955,5.005-25.967c1.653-2.227,11.156-5.6,12.91-3.644c-1.53,1.35-0.9,16.666-0.36,28.261
						c0.034,0.776,0.068,1.529,0.101,2.26c0.045,0.832,0.079,1.631,0.112,2.395c0.034,0.798,0.067,1.552,0.09,2.26
						C294.437,194.311,294.505,196.717,294.336,196.852z"/>
					<path style="fill:#FFDADA;" d="M326.545,199c-1.439,1.293-21.041-0.36-21.828-1.147c-0.18-0.18-0.067-2.485,0.203-5.938
						c0.045-0.709,0.112-1.462,0.18-2.26c0.067-0.9,0.146-1.844,0.236-2.834c0.056-0.731,0.124-1.485,0.191-2.249
						c1.057-12.123,2.519-28.261,1.372-28.902c2.125-2.182,13.754,2.665,15.227,4.139c0.9,0.9,2.901,14.946,3.97,25.978
						c0.079,0.765,0.146,1.507,0.214,2.238c0.124,1.338,0.225,2.598,0.304,3.767c0.056,0.799,0.101,1.552,0.135,2.249
						C326.893,196.841,326.848,198.719,326.545,199z"/>
					<g>
						<path style="fill:#FF9191;" d="M326.747,194.041c-7.321,0.101-14.642-0.618-21.828-2.125c0.045-0.709,0.112-1.462,0.18-2.26
							c7.074,1.518,14.282,2.227,21.513,2.137C326.668,192.59,326.713,193.344,326.747,194.041z"/>
					</g>
					<g>
						<path style="fill:#FF9191;" d="M326.309,188.024c-7.018,0.461-14.057,0.045-20.974-1.203c0.056-0.731,0.124-1.485,0.191-2.249
							c6.781,1.248,13.686,1.642,20.569,1.215C326.173,186.551,326.241,187.293,326.309,188.024z"/>
					</g>
					<g>
						<path style="fill:#FF9191;" d="M294.28,190.734c-6.208,1.08-12.517,1.541-18.814,1.338c0.079-0.697,0.18-1.451,0.281-2.238
							c6.185,0.18,12.348-0.27,18.443-1.361C294.224,189.273,294.257,190.026,294.28,190.734z"/>
					</g>
					<g>
						<path style="fill:#FF9191;" d="M294.078,186.079c-5.949,1.001-11.966,1.462-17.993,1.327c0.101-0.72,0.214-1.473,0.337-2.238
							c5.882,0.101,11.752-0.337,17.555-1.35C294.01,184.594,294.044,185.348,294.078,186.079z"/>
					</g>
				</g>
			</g>
		</g>
		<g>
			<path d="M308.644,135.969c4.086-4.634,6.823-10.444,7.795-16.545c0.213-1.336,0.34-2.721-0.007-4.029
				c-0.348-1.308-1.253-2.536-2.544-2.942c0.552-2.391-0.965-5.138-2.655-6.918c-1.69-1.779-3.952-2.901-6.233-3.806
				c-3.738-1.484-7.667-2.486-11.659-2.974c-3.281-0.401-6.771-0.418-9.695,1.123c-2.132,1.123-3.826,3.053-4.663,5.313
				c-0.837,2.259-0.81,4.827,0.074,7.068c-2.333,4.049,2.542,18.549,2.542,18.549L308.644,135.969z"/>
			<g>
				<path style="fill:#FEAE93;" d="M310.746,134.212c0,0-4.293,9.716-4.003,22.457c-2.469,5.861-10.292,5.247-12.381,0.128
					c-0.052-4.848-0.974-7.092-2.571-8.709c-0.13-0.136-0.26-0.257-0.398-0.384c-0.095-0.09-0.189-0.173-0.292-0.254
					c-0.189-0.165-0.401-0.311-0.606-0.475c-1.413-1.057-3.167-2.025-5.197-3.717c-2.38-1.967-4.192-4.723-5.005-9.131
					c-0.013-0.064-0.025-0.127-0.037-0.191c-0.016-0.112-0.031-0.216-0.047-0.328c-0.011-0.048-0.015-0.096-0.026-0.143
					c-0.647-4.225-0.45-9.905,0.944-17.782c1.446-8.171,21.079-11.868,26.788-1.664
					C310.264,118.232,310.746,134.212,310.746,134.212z"/>
				<path d="M279.965,113.696c2.044,2.253,5.28,2.973,8.317,3.135c5.251,0.279,10.568-0.771,15.319-3.026
					c-0.095,1.485,1.159,2.924,2.643,3.033c-0.142,4.89,1.533,9.813,4.627,13.602c0.515-3.367,0.959-6.753,0.624-10.143
					c-0.335-3.39-1.422-6.776-3.565-9.424c-1.799-2.222-4.283-3.843-6.977-4.801c-2.693-0.958-5.591-1.272-8.446-1.133
					c-2.784,0.135-5.602,0.717-7.989,2.155C282.13,108.532,280.396,110.943,279.965,113.696z"/>
				<g>
					<g>
						<path d="M296.071,129.927c0.007,0.696-0.552,1.266-1.248,1.273c-0.696,0.007-1.266-0.552-1.273-1.248
							c-0.007-0.696,0.552-1.266,1.248-1.273C295.494,128.672,296.064,129.231,296.071,129.927z"/>
						<path style="fill:#FFFFFF;" d="M294.807,129.595c0.003,0.255-0.202,0.464-0.457,0.466c-0.255,0.003-0.464-0.202-0.466-0.457
							c-0.003-0.255,0.202-0.464,0.457-0.466C294.596,129.136,294.805,129.34,294.807,129.595z"/>
					</g>
					<g>
						<path d="M286.321,130.025c0.007,0.696-0.552,1.266-1.248,1.273c-0.696,0.007-1.266-0.552-1.273-1.248
							c-0.007-0.696,0.552-1.266,1.248-1.273C285.744,128.77,286.314,129.329,286.321,130.025z"/>
						<path style="fill:#FFFFFF;" d="M285.057,129.693c0.003,0.255-0.202,0.464-0.457,0.466c-0.255,0.003-0.464-0.202-0.466-0.457
							c-0.003-0.255,0.202-0.464,0.457-0.466C284.846,129.234,285.055,129.438,285.057,129.693z"/>
					</g>
					<g>
						<path style="fill:#8E4136;" d="M292.696,135.721c-0.384-0.606-1.42,0.015-2.649,0.1c-1.229,0.085-2.34-0.388-2.638,0.265
							c-0.376,0.826,0.822,2.734,2.835,2.595C292.258,138.542,293.182,136.488,292.696,135.721z"/>
						<path style="fill:#C16B5B;" d="M292.615,137.05c-0.388-0.023-0.801-0.025-1.234,0.005c-1.43,0.099-2.635,0.477-3.177,0.938
							c0.502,0.434,1.193,0.746,2.041,0.688C291.455,138.597,292.262,137.822,292.615,137.05z"/>
						<path style="fill:#FFFFFF;" d="M290.095,136.511c1.097-0.076,2.011-0.4,2.311-1.016c-0.499-0.162-1.366,0.257-2.359,0.325
							c-0.993,0.069-1.909-0.227-2.381,0.002C288.048,136.391,288.998,136.587,290.095,136.511z"/>
					</g>
					<path style="fill:#C16B5B;" d="M287.922,133.428c-0.072,0.001-0.138-0.046-0.159-0.117c-0.323-1.072,0.039-1.441,0.399-1.561
						c0.365-0.121,0.806-0.031,1.309,0.272c0.078,0.047,0.103,0.148,0.056,0.226c-0.048,0.077-0.15,0.101-0.227,0.056
						c-0.415-0.251-0.763-0.333-1.033-0.242c-0.323,0.107-0.387,0.496-0.188,1.154c0.026,0.087-0.023,0.178-0.11,0.205
						C287.953,133.426,287.937,133.428,287.922,133.428z"/>
				</g>
				<path d="M282.784,125.07c1.517-0.811,3.353-0.879,4.892-0.072c0.377,0.198,0.583,0.699,0.368,1.09
					c-0.209,0.379-0.687,0.579-1.09,0.368c-0.155-0.081-0.313-0.149-0.475-0.216c-0.016-0.006-0.013-0.005-0.023-0.008
					c-0.029-0.009-0.057-0.018-0.086-0.027c-0.063-0.018-0.126-0.035-0.189-0.051c-0.169-0.041-0.34-0.073-0.513-0.093
					c-0.043-0.005-0.322-0.054-0.107-0.013c-0.072-0.014-0.156-0.005-0.228-0.005c-0.163,0.001-0.326,0.01-0.488,0.029
					c-0.087,0.01-0.172,0.025-0.258,0.037c-0.009,0.001-0.012,0.002-0.019,0.003c-0.012,0.003-0.029,0.008-0.054,0.014
					c-0.158,0.039-0.314,0.086-0.467,0.143c-0.081,0.03-0.162,0.063-0.241,0.098c-0.031,0.014-0.063,0.029-0.094,0.044
					c-0.006,0.003-0.003,0.002-0.01,0.005c-0.002,0.001-0.005,0.001-0.007,0.003c-0.002,0.001-0.005,0.002-0.007,0.003
					c0.003-0.002,0.002-0.001,0.005-0.002c-0.374,0.195-0.875,0.18-1.121-0.218C282.358,125.859,282.383,125.284,282.784,125.07z"/>
				<path d="M292.282,124.414c1.517-0.811,3.353-0.879,4.892-0.072c0.377,0.197,0.583,0.699,0.368,1.09
					c-0.209,0.379-0.687,0.579-1.09,0.368c-0.155-0.081-0.313-0.148-0.475-0.216c-0.016-0.006-0.013-0.005-0.023-0.008
					c-0.029-0.009-0.058-0.018-0.087-0.027c-0.063-0.018-0.125-0.035-0.189-0.051c-0.169-0.041-0.34-0.073-0.513-0.093
					c-0.043-0.005-0.322-0.054-0.107-0.013c-0.072-0.014-0.155-0.005-0.228-0.005c-0.163,0.001-0.326,0.01-0.488,0.029
					c-0.087,0.01-0.172,0.025-0.258,0.037c-0.009,0.001-0.013,0.002-0.019,0.003c-0.012,0.003-0.029,0.008-0.054,0.014
					c-0.158,0.039-0.314,0.086-0.467,0.143c-0.081,0.03-0.162,0.063-0.241,0.098c-0.032,0.014-0.063,0.029-0.094,0.044
					c-0.006,0.003-0.003,0.002-0.01,0.006c-0.002,0.001-0.005,0.001-0.007,0.002c-0.002,0.001-0.005,0.002-0.007,0.003
					c0.003-0.002,0.002-0.001,0.005-0.003c-0.374,0.195-0.875,0.18-1.121-0.218C291.856,125.204,291.882,124.628,292.282,124.414z"
					/>
				<g>
					<path style="fill:#FEAE93;" d="M315.059,134.535c-1.667,2.028-4.323,2.6-5.933,1.277c-1.61-1.323-1.564-4.039,0.102-6.068
						c1.667-2.028,4.323-2.6,5.932-1.277C316.771,129.79,316.726,132.507,315.059,134.535z"/>
					<path style="fill:#C16B5B;" d="M314.07,129.463c-0.721-0.372-1.677-0.345-2.556,0.075c-0.438,0.208-0.755,0.461-0.97,0.77
						c-0.284,0.41-0.359,0.922-0.195,1.335c0.146,0.371,0.446,0.61,0.711,0.821c0.191,0.153,0.373,0.297,0.476,0.47
						c0.158,0.266,0.123,0.642-0.083,0.874c-0.206,0.231-0.574,0.309-0.858,0.182c-0.167-0.075-0.361,0-0.436,0.165
						c-0.074,0.165-0.001,0.361,0.165,0.436c0.182,0.082,0.378,0.12,0.575,0.118c0.391-0.004,0.782-0.167,1.046-0.463
						c0.396-0.445,0.462-1.138,0.157-1.65c-0.164-0.276-0.412-0.474-0.631-0.648c-0.219-0.175-0.426-0.34-0.508-0.549
						c-0.083-0.208-0.034-0.489,0.124-0.717c0.064-0.092,0.151-0.175,0.247-0.255c0.327-0.006,0.738,0.091,0.947,0.314
						c0.236,0.253,0.349,0.622,0.297,0.963c-0.028,0.18,0.096,0.348,0.276,0.376c0.018,0.003,0.036,0.004,0.054,0.004
						c0.158-0.002,0.297-0.118,0.322-0.279c0.085-0.544-0.09-1.109-0.466-1.513c-0.14-0.15-0.314-0.251-0.497-0.332
						c0.544-0.152,1.082-0.129,1.502,0.088c0.518,0.267,0.915,0.967,0.655,1.542c-0.074,0.166,0,0.361,0.165,0.436
						c0.166,0.074,0.361,0.001,0.436-0.165C315.402,131.023,314.965,129.925,314.07,129.463z"/>
				</g>
			</g>
		</g>
	</g>
	<g>
		<g>
			<g>
				<rect x="348.381" y="296.587" style="fill:#E04A4A;" width="63.802" height="117.606"/>
				<rect x="412.183" y="296.587" style="fill:#942B2B;" width="34.421" height="117.606"/>
				<rect x="351.139" y="299.327" style="fill:#FF9191;" width="58.286" height="46.425"/>
				<rect x="351.139" y="349.412" style="fill:#FF9191;" width="58.286" height="46.425"/>
				<circle style="fill:#942B2B;" cx="380.282" cy="372.624" r="3.354"/>
				<path style="fill:#942B2B;" d="M383.636,322.539c0,1.852-1.502,3.354-3.354,3.354c-1.852,0-3.354-1.502-3.354-3.354
					c0-1.852,1.502-3.354,3.354-3.354C382.134,319.186,383.636,320.687,383.636,322.539z"/>
			</g>
			<polygon style="fill:#942B2B;" points="349.629,414.193 347.312,438.809 351.139,438.809 358.896,414.193 			"/>
			<polygon style="fill:#942B2B;" points="410.935,414.193 413.252,438.809 409.425,438.809 401.668,414.193 			"/>
			<polygon style="fill:#942B2B;" points="382.981,414.193 380.665,438.809 384.492,438.809 392.249,414.193 			"/>
			<polygon style="fill:#942B2B;" points="444.288,414.193 446.605,438.809 442.778,438.809 435.021,414.193 			"/>
		</g>
		<g>
			<g>
				<path style="fill:#7677B8;" d="M387.066,251.419v12.346c0,0.372-0.295,0.693-0.667,0.687c-0.729-0.011-1.316,0.577-1.316,1.296
					v0.194c0,0.356,0.143,0.681,0.376,0.914c0.243,0.243,0.572,0.386,0.933,0.382c0.372-0.003,0.674,0.352,0.674,0.724v24.684
					c0,2.176-1.764,3.941-3.941,3.941h-15.284c-2.176,0-3.941-1.764-3.941-3.941v-24.721c0-0.363,0.284-0.665,0.648-0.686
					c0.731-0.041,1.336-0.566,1.336-1.297v-0.194c0-0.357-0.149-0.681-0.382-0.914c-0.236-0.243-0.566-0.386-0.928-0.382
					c-0.38,0.004-0.673-0.342-0.673-0.723v-12.316c0-1.025,0.831-1.856,1.856-1.856h19.447
					C386.232,249.556,387.066,250.39,387.066,251.419z"/>
				<path style="fill:#31326F;" d="M384.705,249.558H366.26c-1.304,0-2.362-1.057-2.362-2.362v-0.158
					c0-1.304,1.057-2.362,2.362-2.362h18.445c1.304,0,2.362,1.057,2.362,2.362v0.158
					C387.067,248.501,386.009,249.558,384.705,249.558z"/>
				<rect x="372.714" y="241.873" style="fill:#31326F;" width="5.536" height="3.99"/>
				<path style="fill:#31326F;" d="M378.358,242.215h-5.75c-0.712,0-1.29-0.577-1.29-1.29l0,0c0-0.712,0.577-1.29,1.29-1.29h5.75
					c0.712,0,1.29,0.577,1.29,1.29l0,0C379.647,241.637,379.07,242.215,378.358,242.215z"/>
			</g>
			<path style="fill:#31326F;" d="M385.083,265.747v0.194c0,0.356,0.143,0.681,0.376,0.914c0.24,0.24,0.564,0.383,0.92,0.383
				c0.376,0,0.687,0.311,0.687,0.687v5.146h-23.165v-5.146c0-0.376,0.305-0.687,0.687-0.687c0.713,0,1.296-0.583,1.296-1.296v-0.194
				c0-0.357-0.149-0.681-0.382-0.914c-0.233-0.24-0.558-0.382-0.914-0.382c-0.382,0-0.687-0.311-0.687-0.687v-5.283h23.165v5.283
				c0,0.376-0.311,0.687-0.687,0.687C385.659,264.451,385.083,265.034,385.083,265.747z"/>
		</g>
		<g>
			<g>
				<path style="fill:#7677B8;" d="M409.023,268.63c0.399-6.241,0.797-12.525,0.039-18.732c-0.759-6.207-2.753-12.403-6.676-17.273
					c-3.924-4.87-9.962-8.254-16.212-8.035c-1.852,4.575-3.628,9.019-4.061,13.936c-0.433,4.917,0.212,10.001,2.405,14.424
					c2.185,4.408,5.829,7.993,10.005,10.594C398.7,266.145,404.243,267.466,409.023,268.63z"/>
				<path style="fill:#9DDFD3;" d="M413.923,284.521c-1.663-6.658-3.659-13.231-5.983-19.688
					c-2.316-6.436-4.955-12.757-7.902-18.929c-1.671-3.5-3.443-6.951-5.31-10.351c-0.201-0.366-0.761-0.039-0.56,0.327
					c3.292,5.993,6.284,12.149,8.96,18.441c2.674,6.289,5.027,12.715,7.055,19.24c1.144,3.68,2.181,7.393,3.115,11.132
					C413.399,285.098,414.025,284.926,413.923,284.521z"/>
			</g>
			<g>
				<path style="fill:#7677B8;" d="M419.24,268.864c-4.184-8.975-2.826-20.008,2.471-28.375
					c5.297-8.367,14.146-14.142,23.678-16.826c2.657,6.724,4.558,13.809,3.69,20.986c-0.868,7.178-4.091,14.182-9.522,18.955
					C434.126,268.377,426.261,270.591,419.24,268.864z"/>
				<path style="fill:#9DDFD3;" d="M440.131,236.896c-3.839,5.001-7.673,10.009-11.252,15.2c-3.559,5.161-6.868,10.511-9.613,16.153
					c-1.526,3.137-2.872,6.361-3.99,9.665c-0.134,0.396,0.492,0.566,0.625,0.172c1.999-5.905,4.74-11.527,7.904-16.891
					c3.175-5.383,6.761-10.511,10.481-15.529c2.104-2.838,4.253-5.641,6.404-8.444C440.944,236.893,440.382,236.57,440.131,236.896z
					"/>
			</g>
			<g>
				<path style="fill:#FF9191;" d="M413.968,260.739c-6.328-8.408-8.67-19.688-6.212-29.92c2.458-10.232,9.668-19.218,19.124-23.834
					c4.637,3.203,13.464,17.186,9.161,35.964C433.929,252.163,423.385,259.924,413.968,260.739z"/>
				<path style="fill:#9DDFD3;" d="M425.333,213.883c-3.004,8.364-5.537,16.895-7.579,25.544
					c-2.032,8.602-3.579,17.317-4.639,26.092c-0.599,4.958-1.038,9.934-1.321,14.92c-0.024,0.417,0.625,0.415,0.648,0
					c0.504-8.869,1.506-17.708,3.009-26.464c1.49-8.683,3.465-17.282,5.914-25.744c1.381-4.772,2.915-9.5,4.594-14.176
					C426.099,213.662,425.473,213.492,425.333,213.883z"/>
			</g>
		</g>
		<polygon style="fill:#31326F;" points="423.519,296.587 404.654,296.587 401.344,275.121 426.829,275.121 		"/>
	</g>
	<g>
		<path style="fill:#7677B8;" d="M165.23,389.94h-17.922c2.467-4.634-1.097-10.607-4.992-14.127s-8.906-5.535-13.15-8.623
			c-4.245-3.089-7.909-8.012-7.014-13.184c0.686-3.963,3.816-6.958,6.418-10.025c2.603-3.066,4.915-7.143,3.579-10.937
			c-1.912-5.431-9.783-6.431-12.436-11.541c-1.925-3.709-0.414-8.257,1.619-11.907c2.034-3.65,4.642-7.223,4.951-11.391
			c0.254-3.422-1.092-6.728-2.076-10.016c-0.984-3.287-1.58-7.002,0.048-10.024c1.729-3.211,5.737-4.787,9.346-4.265
			c3.609,0.522,6.776,2.84,9.004,5.728c2.228,2.888,3.624,6.322,4.83,9.763c1.376,3.927,2.681,8.15,5.848,10.849
			c2.727,2.324,6.43,3.145,9.407,5.139c5.496,3.682,7.666,11.588,4.818,17.56c-1.465,3.072-4.106,5.797-4.146,9.199
			c-0.033,2.762,1.716,5.244,3.752,7.11c2.036,1.866,4.426,3.337,6.321,5.347c3.588,3.806,5.063,9.489,3.778,14.56
			c-1.389,5.481-5.565,9.727-8.891,14.3C164.997,378.03,163.03,384.731,165.23,389.94z"/>
		<path style="fill:#31326F;" d="M166.768,389.94h16.694c-1.796-1.645-2.049-4.361-1.104-6.606c0.945-2.245,2.808-3.966,4.73-5.462
			c1.922-1.497,3.979-2.867,5.554-4.725c3.85-4.543,3.948-11.836,0.22-16.48c-1.329-1.656-3.042-2.958-4.495-4.507
			c-1.453-1.548-2.686-3.483-2.689-5.606c-0.004-2.679,1.959-4.997,4.21-6.45c2.251-1.453,4.843-2.291,7.167-3.623
			c2.324-1.333,4.486-3.377,4.904-6.023c0.487-3.084-1.476-5.961-3.288-8.504c-1.812-2.543-3.658-5.551-2.915-8.583
			c0.806-3.291,4.39-5.298,5.317-8.556c0.858-3.014-1.014-6.396-3.84-7.748c-2.827-1.352-6.3-0.88-9.001,0.709
			c-2.701,1.588-4.704,4.163-6.167,6.934c-1.302,2.468-2.322,5.252-4.552,6.93c-2.627,1.977-6.246,1.903-9.263,3.21
			c-2.783,1.206-5.002,3.653-5.929,6.541c-0.928,2.888-0.55,6.169,1.01,8.77c1.574,2.625,4.293,4.628,5.039,7.596
			c0.789,3.14-0.933,6.42-3.238,8.694c-2.305,2.274-5.186,3.879-7.609,6.026c-2.424,2.147-4.461,5.147-4.186,8.373
			c0.354,4.153,4.2,6.949,7.044,9.996C165.113,375.915,167.331,383.028,166.768,389.94z"/>
		<path style="fill:#FF9191;" d="M165.036,438.483L165.036,438.483c-13.831,0-25.044-11.212-25.044-25.044v-25.044h50.088v25.044
			C190.08,427.271,178.868,438.483,165.036,438.483z"/>
		<path style="fill:#DBF6E9;" d="M153.533,364.278c-0.871-1.832-1.896-3.583-3.05-5.25c-1.164-1.681-2.442-3.331-3.236-5.23
			c-1.42-3.397-0.423-6.808,1.083-9.98c1.442-3.037,3.319-5.995,3.949-9.344c0.603-3.211-0.34-6.208-2.142-8.867
			c-1.829-2.699-4.213-4.965-6.09-7.628c-0.933-1.324-1.745-2.752-2.205-4.312c-0.648-2.195-0.553-4.505-0.353-6.759
			c0.195-2.201,0.468-4.393,0.377-6.607c-0.081-1.955-0.377-3.903-0.875-5.795c-0.998-3.787-2.804-7.352-5.277-10.389
			c-0.609-0.748-1.262-1.459-1.949-2.136c-0.297-0.293-0.756,0.165-0.458,0.458c2.833,2.793,5.01,6.219,6.353,9.964
			c1.381,3.851,1.789,7.859,1.427,11.922c-0.201,2.265-0.522,4.541-0.347,6.819c0.139,1.801,0.632,3.513,1.474,5.109
			c1.504,2.851,3.816,5.165,5.833,7.645c1.996,2.453,3.806,5.252,3.789,8.529c-0.017,3.409-1.784,6.513-3.28,9.471
			c-1.436,2.839-2.939,5.933-2.648,9.206c0.355,3.986,3.332,6.972,5.311,10.241c4.238,7,6.065,15.4,5.17,23.53
			c-0.113,1.023-0.274,2.04-0.474,3.05c-0.08,0.408,0.544,0.582,0.625,0.172C158.122,380.092,157.035,371.647,153.533,364.278z"/>
		<path style="fill:#DBF6E9;" d="M191.375,305.898c-2.303,1.967-4.657,3.987-6.26,6.595c-1.486,2.416-2.294,5.468-1.466,8.254
			c0.443,1.491,1.376,2.794,1.64,4.345c0.236,1.389-0.032,2.822-0.553,4.116c-1.143,2.841-3.46,4.894-5.798,6.76
			c-2.355,1.88-4.818,3.697-6.477,6.264c-1.526,2.361-2.215,5.212-1.188,7.91c0.954,2.506,2.898,4.441,4.192,6.757
			c1.543,2.762,1.621,5.923,1.087,8.976c-1.032,5.888-4.337,11.864-2.722,17.96c0.182,0.688,0.437,1.353,0.747,1.993
			c0.182,0.375,0.741,0.047,0.56-0.327c-2.765-5.714,0.37-12.093,1.688-17.744c0.679-2.912,1.054-6.031,0.166-8.942
			c-0.798-2.618-2.67-4.615-4.088-6.894c-0.703-1.129-1.291-2.36-1.448-3.695c-0.167-1.418,0.141-2.855,0.729-4.145
			c1.256-2.756,3.55-4.747,5.875-6.594c2.307-1.833,4.723-3.637,6.314-6.168c1.467-2.332,2.177-5.187,1.129-7.827
			c-0.563-1.418-1.339-2.71-1.495-4.259c-0.147-1.463,0.117-2.937,0.629-4.307c1.069-2.858,3.254-5.101,5.493-7.092
			c0.561-0.499,1.132-0.987,1.703-1.475C192.151,306.085,191.691,305.629,191.375,305.898z"/>
	</g>
</g>
</svg>
