<?xml version="1.0" encoding="utf-8"?>
<!-- Generator: Adobe Illustrator 27.5.0, SVG Export Plug-In . SVG Version: 6.00 Build 0)  -->
<svg version="1.1" xmlns="http://www.w3.org/2000/svg" xmlns:xlink="http://www.w3.org/1999/xlink" x="0px" y="0px"
	 viewBox="0 0 500 500" style="enable-background:new 0 0 500 500;" xml:space="preserve">
<g id="BACKGROUND">
	<rect style="fill:#FFFFFF;" width="500" height="500"/>
</g>
<g id="OBJECTS">
	<path style="fill:#FFEAE1;" d="M159.576,395.826c-28.753-6.289-56.316-17.929-77.28-35.81
		c-38.938-33.21-50.502-85.719-35.074-130.747c15.429-45.028,55.106-82.359,102.838-105.843s103.016-34.078,158.036-37.192
		c34.575-1.957,71.1-0.687,101.009,14.195c43.875,21.831,63.364,69.812,55.735,112.557c-7.629,42.744-38.003,80.399-74.279,110.684
		c-30.807,25.719-66.422,47.254-105.055,63.629C245.566,404.229,203.044,405.333,159.576,395.826z"/>
	<g>
		<g>
			<path style="fill:#EA7C32;" d="M67.956,163.853c-0.421,2.295-2.4,4.527-4.642,6.434c-4.701,3.999-10.878,7.081-17.308,8.635
				c-6.431,1.554-13.079,1.573-18.629,0.051c-2.115-0.58-4.221-1.524-4.625-3.23c-0.988-4.171,6.148-7.214,10.473-9.139
				c6.571-2.925,13.442-5.334,20.427-7.159c1.027-0.268,2.055-0.529,3.086-0.778c1.899-0.453,3.877-0.834,5.659-0.625
				C65.782,158.441,68.453,161.143,67.956,163.853z"/>
			<g>
				<path style="fill:#38261E;" d="M68.006,155.809c1.011,0.959,1.427,2.5,1.034,3.838c-0.428,1.458-1.666,2.512-2.862,3.449
					c-5.887,4.61-12.356,8.599-19.466,10.918c-7.109,2.318-14.912,2.892-22.079,0.758c-1.919-0.572-3.948-1.482-4.808-3.29
					c-0.501-1.055-0.505-2.365,0.112-3.357c0.724-1.163,2.108-1.703,3.397-2.168c5.915-2.136,11.836-4.268,17.858-6.087
					c6.039-1.824,12.188-3.332,18.446-4.17c1.517-0.203,3.11-0.208,4.549-0.707C65.495,154.539,66.993,154.847,68.006,155.809z"/>
				<path style="fill:#FF4D4D;" d="M21.178,165.159l43.026-12.235c0.359,1.352,0.848,2.669,1.456,3.928
					c-5.714,5.463-12.246,9.931-19.686,12.607c-7.439,2.676-15.687,3.379-23.312,1.288C22.181,168.915,21.66,166.992,21.178,165.159
					z"/>
				<path style="fill:#00AE92;" d="M67.305,146.425c0.517,0.155,1.126,0.414,1.192,0.949c0.081,0.652-0.741,1.208-0.56,1.84
					c0.193,0.675,1.234,0.599,1.707,1.119c0.469,0.515,0.139,1.402-0.445,1.783c-0.584,0.381-1.992,1.06-2.678,1.184
					c-2.457,0.445-4.62,0.79-6.36,2.581c-1.048,1.079-0.821,2.719-2.026,3.618c-1.023,0.764-2.716,0.601-3.874,1.14
					c-0.851,0.396-1.505,1.997-2.396,2.293c-0.807,0.268-1.806,0.123-2.414,0.718c-0.82,0.802-0.951,2.122-1.77,2.926
					c-0.719,0.705-1.805,0.859-2.811,0.887c-3.063,0.088-6.305-0.602-9.079,0.697c-1.459,0.683-2.972,1.917-4.479,1.345
					c-1.342-0.511-1.882-2.248-3.206-2.805c-1.552-0.653-3.333,0.618-4.973,0.239c-1.345-0.311-2.296-1.67-3.665-1.852
					c-0.774-0.103-1.537,0.194-2.308,0.319c-0.77,0.125-1.695,0.007-2.104-0.658c-0.38-0.617,0.123-1.453,0.265-2.164
					c0.069-0.343,0.093-0.929,0.099-1.443c0.007-0.591,0.36-1.116,0.906-1.342c1.816-0.753,5.034-2.495,6.693-3.73
					c2.918-2.173,6.813-2.504,10.165-3.921c4.84-2.046,9.214-5.816,14.468-5.869c2.098-0.021,4.146,0.569,6.217,0.909
					c2.274,0.373,4.48,0.231,6.636-0.598c1.06-0.407,2.072-0.862,3.23-0.868C64.956,145.715,66.147,146.077,67.305,146.425z"/>
				<path style="fill:#FFBE92;" d="M64.808,147.622c1.165,0.075,1.585,1.578,0.637,2.26l-17.734,12.752
					c-1.475,1.061-2.982,2.138-4.714,2.687c-1.946,0.617-4.036,0.524-6.075,0.424c-6.234-0.304-12.519-0.616-18.599-1.963
					c-0.979-0.217-1.342-1.421-0.625-2.122c0.993-0.971,2.051-2.095,2.319-2.331c1.475-1.298,2.975-2.566,4.5-3.805
					c3.077-2.5,6.252-4.878,9.517-7.127c2.15-1.481,4.339-2.906,6.564-4.273c0.177-0.109,0.367-0.217,0.574-0.236
					c0.776-0.073,1.949,0.472,2.712,0.65c3.759,0.875,7.558,1.58,11.381,2.114C58.432,147.093,61.616,147.417,64.808,147.622z"/>
			</g>
			<g>
				<path style="fill:#FF9348;" d="M17.5,159.652c2.242,5.753,9.895,4.29,14.59,3.496c7.142-1.214,14.131-3.251,20.773-6.096
					c0.987-0.405,1.964-0.839,2.922-1.284c1.786-0.831,3.563-1.79,4.79-3.326c1.336-1.704,1.925-4.184,1.716-6.536
					c-0.153-1.678-0.698-3.294-1.67-4.508c-1.974-2.466-5.108-3.746-8.197-4.433c-6.478-1.439-13.415-0.704-19.458,2.061
					c-4.783,2.188-8.985,5.651-12.088,9.908l0.005,0.015c-0.808,1.104-1.533,2.262-2.178,3.46
					C17.505,154.629,16.564,157.291,17.5,159.652z"/>
				<g>
					<path style="fill:#EA7C32;" d="M51.23,139.422c0.952-0.311,1.437,1.168,0.484,1.48
						C50.761,141.213,50.276,139.734,51.23,139.422z"/>
					<path style="fill:#EA7C32;" d="M46.356,138.56c1.905-0.622,2.875,2.337,0.967,2.96
						C45.419,142.142,44.448,139.183,46.356,138.56z"/>
					<path style="fill:#EA7C32;" d="M39.682,141.622c0.952-0.311,1.437,1.168,0.483,1.48
						C39.213,143.413,38.728,141.934,39.682,141.622z"/>
					<path style="fill:#EA7C32;" d="M35.074,140.61c1.905-0.622,2.875,2.337,0.967,2.96
						C34.136,144.193,33.166,141.234,35.074,140.61z"/>
					<path style="fill:#EA7C32;" d="M39.039,138.498c0.952-0.311,1.437,1.168,0.483,1.48C38.57,140.29,38.085,138.81,39.039,138.498
						z"/>
					<path style="fill:#EA7C32;" d="M29.478,146.78c0.952-0.311,1.438,1.168,0.484,1.48
						C29.009,148.571,28.524,147.092,29.478,146.78z"/>
					<path style="fill:#EA7C32;" d="M26.489,150.147c0.952-0.311,1.437,1.168,0.484,1.48
						C26.021,151.938,25.535,150.459,26.489,150.147z"/>
					<path style="fill:#EA7C32;" d="M25.25,145.393c1.905-0.622,2.875,2.337,0.967,2.96
						C24.313,148.975,23.343,146.016,25.25,145.393z"/>
					<path style="fill:#EA7C32;" d="M34.05,147.488c0.952-0.311,1.438,1.168,0.484,1.48C33.581,149.279,33.096,147.8,34.05,147.488z
						"/>
				</g>
				<path style="fill:#EA7C32;" d="M17.5,159.652c2.242,5.753,9.895,4.29,14.59,3.496c7.142-1.214,14.131-3.251,20.773-6.096
					c0.987-0.405,1.964-0.839,2.922-1.284c1.786-0.831,3.563-1.79,4.79-3.326c1.336-1.704,1.925-4.184,1.716-6.536
					c-1.312,2.535-3.471,4.591-5.89,6.105c-3.005,1.887-6.381,3.04-9.743,4.138c-5.111,1.686-10.366,3.337-15.738,3.117
					c-1.934-0.076-3.906-0.419-5.558-1.443c-1.769-1.134-2.996-2.972-3.696-4.965c-0.428-1.259-0.662-2.582-0.783-3.909
					c-0.808,1.104-1.533,2.262-2.178,3.46C17.505,154.629,16.564,157.291,17.5,159.652z"/>
			</g>
		</g>
		<g>
			<path style="fill:#EA7C32;" d="M88.678,117.174c0.372-1.741,1.334-3.356,2.596-4.628c6.205-6.253,15.454-3.695,23.229-5.097
				c5.258-0.948,9.31-4.718,12.639-8.655c4.227-5.001,13.129-15.163,20.188-8.158c2.778,2.756,2.686,7.301,1.586,11.057
				c-2.999,10.24-11.96,18.016-22.022,21.568c-6.615,2.335-13.701,3.234-20.698,3.049c-5.72-0.151-17.918,0.979-17.685-7.762
				C88.525,118.083,88.582,117.624,88.678,117.174z"/>
			<g>
				<path style="fill:#00AE92;" d="M146.463,92.662c-0.281-0.701-0.429-1.465-0.842-2.097c-0.413-0.632-1.218-1.108-1.919-0.826
					c-0.503,0.202-0.795,0.719-1.031,1.207c-0.546,1.127-1.121,2.409-2.293,2.851c-0.565,0.213-1.223,0.204-1.709,0.562
					c-0.962,0.706-0.672,2.355-1.566,3.147c-0.875,0.774-2.343,0.279-3.331,0.904c-0.496,0.314-0.792,0.868-0.962,1.43
					c-0.17,0.562-0.236,1.15-0.396,1.715c-0.548,1.942-2.325,3.423-4.315,3.759c-0.434-0.284-1.032-0.086-1.425,0.252
					c-0.393,0.337-0.669,0.794-1.061,1.134c-0.949,0.824-2.34,0.798-3.598,0.791c-1.257-0.007-2.687,0.136-3.45,1.135
					c-0.45,0.59-0.565,1.36-0.816,2.058c-0.25,0.698-0.756,1.415-1.495,1.481c-0.561,0.05-1.111-0.297-1.667-0.207
					c-0.759,0.123-1.238,1.005-2.003,1.08c-0.489,0.048-0.937-0.25-1.412-0.374c-1.113-0.29-2.24,0.395-3.389,0.453
					c-1.326,0.067-2.531-0.693-3.776-1.153c-1.246-0.46-2.896-0.507-3.643,0.591c-0.342,0.503-0.501,1.235-1.085,1.404
					c-0.594,0.172-1.161-0.392-1.779-0.404c-0.589-0.012-1.066,0.471-1.633,0.635c-1.2,0.347-2.412-0.788-3.644-0.585
					c-0.678,0.111-1.262,0.665-1.41,1.337c-0.147,0.672,0.151,1.419,0.721,1.804c8.325,0.355,16.642-0.053,24.858-1.441
					c4.183-0.707,8.456-1.693,11.907-4.159c3.103-2.217,5.293-5.45,7.665-8.437C138.952,98.95,142.783,95.747,146.463,92.662z"/>
				<g>
					<path style="fill:#FF4D4D;" d="M98.696,127.49c-2.165-0.078-4.356-0.161-6.44-0.757c-2.083-0.596-4.082-1.768-5.241-3.598
						c-0.929-1.466-1.231-3.436-0.363-4.938c1.04-1.8,3.32-2.396,5.374-2.714c8.648-1.339,17.976,0.228,26.329-2.704
						c4.948-1.737,9.207-5.105,13.124-8.503c3.037-2.636,5.91-5.453,8.755-8.293c2.538-2.533,4.747-5.505,7.87-7.369
						c2.218-1.324,4.51-0.174,5.43,2.086c0.643,1.581,0.764,3.499,0.406,5.163c-0.72,3.344-2.183,6.663-3.725,9.693
						c-1.61,3.164-3.7,6.08-6.151,8.646c-0.259,0.271-0.522,0.538-0.788,0.801c-5.728,5.645-13.141,9.43-20.929,11.435
						S106.733,127.781,98.696,127.49z"/>
					<path style="fill:#FFBE92;" d="M143.353,91.932c0.046,1.646,0.022,3.302-0.122,4.944c-0.024,0.277-0.024,0.665-0.215,0.89
						c-0.195,0.23-0.55,0.244-0.828,0.251c-0.833,0.019-1.694-0.101-2.518-0.213c-0.711-0.097-1.455-0.276-2.149,0.004
						c-0.671,0.271-0.989,0.878-1.142,1.552c-0.334,1.468-0.628,2.946-0.936,4.42c-1.809-0.244-3.75-0.362-5.28,0.808
						c-1.415,1.082-1.435,2.439-1.264,4.06c0.05,0.478,0.107,0.988-0.377,1.271c-0.443,0.259-1.06,0.139-1.52,0.035
						c-0.892-0.202-1.719-0.479-2.646-0.352c-1.691,0.231-3.025,1.449-3.561,3.037c-0.223,0.661-0.34,1.769-1.125,2.015
						c-1.003,0.314-2.157-0.707-3.006-1.101c-1.84-0.854-3.169-0.129-4.411,1.296c-0.642,0.736-1.411,1.489-2.368,0.814
						c-0.6-0.424-1.059-1.021-1.703-1.387c-1.37-0.778-2.507-0.001-3.49,0.971c-0.762,0.753-1.25,0.985-2.189,0.326
						c-0.805-0.565-1.547-1.069-2.569-1.096c-1.948-0.051-3.472,1.497-3.576,3.402c-0.049,0.904,1.353,1.01,1.403,0.105
						c0.053-0.972,0.629-1.833,1.616-2.051c1-0.221,1.673,0.346,2.44,0.876c1.254,0.866,2.461,0.748,3.568-0.274
						c0.438-0.404,0.979-1.219,1.655-1.191c0.622,0.026,1.178,0.741,1.613,1.118c1.104,0.959,2.387,1.249,3.636,0.314
						c0.695-0.52,1.136-1.285,1.801-1.832c0.987-0.812,2.007-0.117,2.946,0.4c1.312,0.723,3.08,1.243,4.189-0.121
						c1.073-1.319,0.741-3.175,2.514-3.987c1.7-0.779,3.373,0.688,5.101,0.065c0.749-0.27,1.273-0.837,1.438-1.619
						c0.184-0.872-0.206-1.716-0.115-2.582c0.264-2.507,3.751-2.123,5.436-1.884c0.041,0.006,0.072-0.007,0.109-0.007
						c0.018,0.008,0.029,0.022,0.048,0.029c0.322,0.116,0.817-0.062,0.895-0.433c0.357-1.685,0.661-3.392,1.073-5.065
						c0.077-0.313,0.129-0.612,0.483-0.674c0.336-0.059,0.714,0.047,1.046,0.096c0.853,0.125,1.715,0.22,2.577,0.251
						c0.693,0.025,1.457-0.029,2.013-0.496c0.532-0.447,0.707-1.11,0.775-1.775c0.174-1.689,0.183-3.409,0.136-5.105
						C144.731,91.14,143.328,91.028,143.353,91.932z"/>
				</g>
				<path style="fill:#00AE92;" d="M148.675,103.582c0.627-1.758,1.815-3.354,2.258-5.207c0.081-0.34,0.34-1.702-0.116-1.971
					c-0.318-0.187-1.449,0.323-1.833,0.347c-0.533,0.034-0.826-0.195-1.155-0.609c-0.49-0.615-1.489-1.451-2.252-0.714
					c-0.402,0.389-0.458,1.02-1.099,1.135c-0.521,0.094-0.818-0.336-1.313-0.433c-0.841-0.165-1.336,0.596-1.829,1.143
					c-0.641,0.712-1.34,1.74-2.315,1.931c-0.752,0.147-1.09,0.446-1.582,1.004c-0.511,0.58-1.075,1.04-1.628,1.602
					c-0.438,0.445-0.839,0.899-1.229,1.388c-0.288,0.359-0.677,0.822-1.117,0.979c-0.633,0.226-1.28,0.17-1.644,0.818
					c-0.179,0.317-0.208,0.627-0.306,0.966c-0.141,0.494-0.391,0.922-0.785,1.25c-0.368,0.307-0.831,0.382-1.167,0.745
					c-0.539,0.582-0.74,1.464-1.32,1.994c-0.334,0.305-0.826,0.368-1.262,0.454c-0.229,0.045-0.593,0.042-0.797,0.156
					c-0.283,0.158-0.348,0.542-0.488,0.848c-0.423,0.926-1.14,2.181-2.171,2.527c-0.467,0.157-1.06,0.234-1.55,0.292
					c-0.631,0.074-1.19-0.174-1.792-0.185c-1.09-0.02-1.893,0.69-2.726,1.298c-0.776,0.566-1.351,0.992-2.293,1.143
					c-0.509,0.082-1.044,0.099-1.556,0.007c-0.52-0.093-1.002-0.387-1.521-0.51c-0.489-0.116-0.742,0.043-1.163,0.354
					c-0.802,0.592-0.952,0.05-1.811,0.001c-0.363-0.021-0.799,0.118-1.097,0.275c-0.753,0.397-0.994,0.496-1.754,0.107
					c-0.746-0.382-1.185-0.343-1.939-0.032c-0.617,0.255-1.191,0.618-1.838,0.806c-0.311,0.09-0.738,0.188-1.059,0.165
					c-0.324-0.024-0.615-0.262-0.933-0.313c-0.83-0.132-1.747,0.911-2.404,1.31c-0.33,0.2-0.768,0.32-1.151,0.299
					c-0.339-0.018-0.59-0.267-0.948-0.096c-0.566,0.27-0.702,0.987-1.033,1.466c-0.404,0.585-1.039,0.559-1.679,0.71
					c-1.136,0.269-2.04,1.04-1.65,2.307c0.158,0.511,0.495,1.019,0.76,1.501c0.217,0.393,0.445,1.033,0.819,1.284
					c0.456,0.306,1.969-0.099,2.508-0.178c1.526-0.225,3.058-0.299,4.584-0.581c3.289-0.606,6.585-1.186,9.864-1.83
					c2.028-0.398,4.055-0.807,6.085-1.196c1.579-0.303,3.041-0.998,4.542-1.561c2.407-0.902,4.797-1.775,7.128-2.861
					c1.897-0.884,3.571-1.914,5.252-3.154c1.745-1.288,3.599-2.355,5.407-3.534c1.83-1.194,3.709-2.415,5.424-3.757
					c1.095-0.857,2.181-1.724,3.257-2.604C147.766,104.454,148.456,104.196,148.675,103.582z"/>
			</g>
			<g>
				<path style="fill:#FF9348;" d="M152.578,110.988c-3,10.238-11.955,18.018-22.016,21.564c-6.626,2.339-13.707,3.241-20.698,3.059
					c-5.719-0.158-17.925,0.973-17.685-7.772c0.009-0.246,0.018-0.493,0.058-0.731c0.029-0.222,0.06-0.429,0.105-0.64
					c0.38-1.731,1.328-3.357,2.59-4.628c6.218-6.248,15.463-3.687,23.235-5.099c5.258-0.947,9.314-4.711,12.644-8.648
					c3.13-3.711,8.853-10.28,14.477-10.535c1.94-0.093,3.9,0.573,5.709,2.378C153.77,102.689,153.685,107.242,152.578,110.988z"/>
				<g>
					<path style="fill:#EA7C32;" d="M101.221,121.726c-0.888,0.174-0.618,1.554,0.271,1.38
						C102.381,122.931,102.111,121.551,101.221,121.726z"/>
					<path style="fill:#EA7C32;" d="M105.36,120.939c-1.776,0.349-1.236,3.109,0.542,2.759
						C107.678,123.349,107.138,120.589,105.36,120.939z"/>
					<path style="fill:#EA7C32;" d="M103.096,119.293c-0.888,0.174-0.618,1.555,0.271,1.38
						C104.255,120.498,103.986,119.118,103.096,119.293z"/>
					<path style="fill:#EA7C32;" d="M118.72,119.608c-0.888,0.174-0.618,1.555,0.271,1.38
						C119.879,120.813,119.609,119.433,118.72,119.608z"/>
					<path style="fill:#EA7C32;" d="M123.138,118.987c-0.888,0.174-0.618,1.555,0.271,1.38
						C124.297,120.192,124.028,118.812,123.138,118.987z"/>
					<path style="fill:#EA7C32;" d="M120.865,117.081c-0.888,0.174-0.618,1.555,0.271,1.38
						C122.024,118.286,121.754,116.906,120.865,117.081z"/>
					<path style="fill:#EA7C32;" d="M126.454,114.853c-1.776,0.349-1.237,3.109,0.542,2.76
						C128.772,117.264,128.232,114.504,126.454,114.853z"/>
					<path style="fill:#EA7C32;" d="M139.002,103.513c-1.776,0.349-1.236,3.109,0.542,2.759
						C141.32,105.924,140.781,103.163,139.002,103.513z"/>
					<path style="fill:#EA7C32;" d="M135.899,105.995c-0.888,0.174-0.618,1.554,0.271,1.38
						C137.058,107.2,136.788,105.82,135.899,105.995z"/>
					<path style="fill:#EA7C32;" d="M138.562,107.783c-0.888,0.174-0.618,1.555,0.271,1.38
						C139.721,108.989,139.451,107.608,138.562,107.783z"/>
					<path style="fill:#EA7C32;" d="M144.632,100.44c-0.888,0.174-0.618,1.554,0.271,1.38
						C145.79,101.646,145.521,100.265,144.632,100.44z"/>
				</g>
				<path style="fill:#EA7C32;" d="M152.578,110.988c-3,10.238-11.955,18.018-22.016,21.564c-6.626,2.339-13.707,3.241-20.698,3.059
					c-5.719-0.158-17.925,0.973-17.685-7.772c0.009-0.246,0.018-0.493,0.058-0.731c0.515,0.936,0.952,1.988,1.804,2.656
					c1.465,1.152,3.262,1.505,5.077,1.796c4.063,0.67,8.521,1.076,12.65,0.25c2.909-0.586,5.865-1.08,8.791-1.655l5.713-1.123
					c2.662-0.523,4.799-2.037,7.034-3.485c6.827-4.394,10.883-11.6,13.889-18.801c0.905-2.209,1.28-3.895,0.678-6.225
					c-0.405-1.548-1.353-2.413-2.584-2.963c1.94-0.093,3.9,0.573,5.709,2.378C153.77,102.689,153.685,107.242,152.578,110.988z"/>
			</g>
		</g>
		<g>
			<path style="fill:#EA7C32;" d="M78.237,290.759c-0.561-1.208-1.525-2.225-2.649-2.939c-5.524-3.512-11.764-0.072-17.605,0.227
				c-3.951,0.202-7.505-1.863-10.566-4.173c-3.887-2.934-12.012-8.843-15.927-2.526c-1.54,2.485-0.711,5.79,0.712,8.346
				c3.881,6.97,11.648,11.126,19.499,12.01c5.162,0.581,10.422,0.032,15.436-1.292c4.099-1.083,13.085-2.332,11.449-8.677
				C78.5,291.398,78.382,291.072,78.237,290.759z"/>
			<g>
				<path style="fill:#00AE92;" d="M32.455,282.68c0.085-0.56,0.064-1.143,0.255-1.675c0.192-0.532,0.693-1.016,1.245-0.93
					c0.397,0.062,0.694,0.39,0.946,0.707c0.583,0.73,1.213,1.569,2.132,1.693c0.443,0.06,0.916-0.059,1.327,0.12
					c0.813,0.352,0.88,1.606,1.657,2.032c0.761,0.417,1.736-0.194,2.553,0.094c0.41,0.145,0.717,0.499,0.934,0.881
					c0.217,0.382,0.363,0.8,0.573,1.186c0.721,1.325,2.251,2.105,3.742,2.012c0.265-0.281,0.73-0.238,1.07-0.058
					c0.34,0.179,0.616,0.466,0.955,0.648c0.823,0.44,1.822,0.185,2.727-0.034c0.905-0.219,1.961-0.358,2.678,0.243
					c0.424,0.354,0.636,0.897,0.934,1.365c0.298,0.468,0.783,0.905,1.327,0.827c0.413-0.059,0.751-0.406,1.167-0.435
					c0.568-0.039,1.062,0.523,1.626,0.449c0.36-0.048,0.633-0.342,0.955-0.513c0.754-0.401,1.681-0.092,2.52-0.245
					c0.968-0.176,1.708-0.936,2.529-1.484c0.821-0.548,2.003-0.862,2.726-0.188c0.331,0.309,0.569,0.817,1.018,0.841
					c0.457,0.025,0.771-0.484,1.215-0.598c0.423-0.109,0.848,0.163,1.284,0.186c0.923,0.05,1.607-0.985,2.529-1.047
					c0.508-0.034,1.022,0.271,1.241,0.737c0.219,0.465,0.129,1.062-0.217,1.44c-5.943,1.675-12.009,2.791-18.166,3.174
					c-3.134,0.195-6.381,0.201-9.284-1.013c-2.61-1.092-4.731-3.081-6.943-4.859C38.927,285.996,35.627,284.308,32.455,282.68z"/>
				<g>
					<path style="fill:#FF4D4D;" d="M72.745,299.999c1.548-0.426,3.114-0.858,4.517-1.648s2.646-1.985,3.175-3.52
						c0.424-1.229,0.311-2.719-0.567-3.669c-1.052-1.138-2.796-1.186-4.331-1.069c-6.461,0.492-12.924,3.223-19.439,2.502
						c-3.86-0.427-7.496-2.163-10.891-3.98c-2.633-1.408-5.177-2.978-7.705-4.569c-2.255-1.419-4.347-3.214-6.911-4.044
						c-1.822-0.59-3.281,0.64-3.565,2.447c-0.199,1.264,0.036,2.686,0.574,3.84c1.081,2.32,2.692,4.496,4.313,6.447
						c1.692,2.037,3.689,3.812,5.887,5.269c0.232,0.154,0.466,0.304,0.703,0.451c5.078,3.15,11.058,4.654,17.011,4.794
						C61.467,303.392,66.998,301.578,72.745,299.999z"/>
					<path style="fill:#FFBE92;" d="M34.575,281.618c0.243,1.211,0.538,2.416,0.917,3.59c0.064,0.198,0.129,0.481,0.305,0.614
						c0.179,0.135,0.438,0.085,0.639,0.042c0.604-0.128,1.205-0.362,1.78-0.583c0.496-0.191,1.003-0.449,1.55-0.362
						c0.529,0.084,0.861,0.473,1.084,0.939c0.487,1.016,0.947,2.045,1.417,3.069c1.263-0.486,2.644-0.902,3.943-0.307
						c1.202,0.55,1.444,1.538,1.593,2.75c0.044,0.358,0.089,0.74,0.485,0.865c0.363,0.114,0.788-0.079,1.102-0.233
						c0.609-0.299,1.159-0.642,1.849-0.707c1.258-0.118,2.425,0.544,3.078,1.613c0.272,0.445,0.542,1.234,1.149,1.28
						c0.776,0.059,1.437-0.883,1.983-1.315c1.184-0.937,2.264-0.633,3.399,0.197c0.586,0.429,1.267,0.848,1.844,0.192
						c0.361-0.411,0.592-0.925,0.995-1.302c0.857-0.801,1.807-0.427,2.68,0.116c0.676,0.421,1.067,0.507,1.633-0.134
						c0.486-0.549,0.936-1.044,1.668-1.237c1.396-0.368,2.755,0.503,3.15,1.877c0.187,0.652-0.806,0.968-0.994,0.315
						c-0.201-0.701-0.761-1.232-1.509-1.224c-0.758,0.008-1.149,0.537-1.612,1.054c-0.759,0.846-1.649,0.965-2.619,0.406
						c-0.384-0.221-0.911-0.724-1.393-0.589c-0.444,0.125-0.725,0.741-0.975,1.091c-0.635,0.888-1.512,1.318-2.569,0.848
						c-0.588-0.262-1.035-0.745-1.606-1.032c-0.848-0.426-1.467,0.256-2.057,0.793c-0.825,0.751-2.012,1.432-3.041,0.624
						c-0.995-0.781-1.067-2.193-2.482-2.485c-1.356-0.28-2.317,1.076-3.667,0.915c-0.585-0.07-1.058-0.395-1.309-0.938
						c-0.279-0.606-0.14-1.289-0.351-1.905c-0.611-1.786-3.061-0.913-4.236-0.452c-0.029,0.011-0.053,0.007-0.08,0.014
						c-0.012,0.009-0.017,0.021-0.03,0.03c-0.213,0.139-0.599,0.094-0.718-0.164c-0.54-1.17-1.046-2.366-1.624-3.517
						c-0.108-0.216-0.196-0.425-0.462-0.41c-0.252,0.014-0.507,0.156-0.738,0.248c-0.594,0.236-1.2,0.452-1.816,0.621
						c-0.495,0.136-1.055,0.226-1.534-0.02c-0.459-0.236-0.696-0.691-0.857-1.164c-0.409-1.204-0.704-2.459-0.955-3.706
						C33.449,281.274,34.442,280.953,34.575,281.618z"/>
				</g>
				<path style="fill:#00AE92;" d="M32.693,291.033c-0.747-1.177-1.872-2.142-2.502-3.419c-0.116-0.234-0.531-1.186-0.247-1.459
					c0.198-0.191,1.099-0.011,1.38-0.058c0.39-0.066,0.563-0.283,0.731-0.641c0.25-0.533,0.83-1.313,1.504-0.904
					c0.356,0.216,0.502,0.667,0.983,0.642c0.391-0.02,0.534-0.385,0.874-0.54c0.579-0.263,1.063,0.208,1.511,0.524
					c0.582,0.411,1.258,1.043,1.993,1.017c0.567-0.021,0.861,0.141,1.309,0.465c0.466,0.337,0.95,0.577,1.443,0.893
					c0.391,0.25,0.756,0.514,1.119,0.805c0.268,0.214,0.626,0.485,0.969,0.525c0.494,0.058,0.951-0.093,1.323,0.318
					c0.182,0.201,0.256,0.422,0.382,0.654c0.185,0.337,0.437,0.607,0.776,0.78c0.317,0.162,0.663,0.138,0.967,0.346
					c0.486,0.333,0.78,0.944,1.286,1.232c0.292,0.166,0.658,0.128,0.986,0.117c0.173-0.006,0.435-0.07,0.601-0.022
					c0.23,0.067,0.342,0.337,0.494,0.537c0.46,0.605,1.188,1.399,1.99,1.477c0.363,0.035,0.804-0.009,1.167-0.051
					c0.467-0.053,0.829-0.33,1.261-0.44c0.783-0.2,1.48,0.182,2.183,0.484c0.654,0.282,1.14,0.495,1.845,0.445
					c0.381-0.027,0.769-0.105,1.123-0.26c0.359-0.157,0.657-0.453,1.011-0.631c0.333-0.168,0.542-0.095,0.898,0.061
					c0.678,0.296,0.695-0.126,1.306-0.308c0.258-0.077,0.596-0.049,0.837,0.015c0.609,0.162,0.8,0.194,1.283-0.22
					c0.474-0.406,0.797-0.452,1.393-0.353c0.488,0.081,0.963,0.249,1.461,0.276c0.24,0.013,0.564,0.012,0.792-0.06
					c0.23-0.073,0.399-0.296,0.62-0.387c0.576-0.238,1.412,0.369,1.953,0.548c0.271,0.09,0.608,0.103,0.88,0.023
					c0.241-0.071,0.38-0.295,0.667-0.231c0.453,0.101,0.672,0.602,0.991,0.895c0.39,0.359,0.843,0.231,1.33,0.233
					c0.864,0.003,1.646,0.413,1.577,1.404c-0.028,0.4-0.186,0.829-0.296,1.226c-0.09,0.323-0.148,0.83-0.375,1.077
					c-0.277,0.301-1.436,0.263-1.838,0.296c-1.138,0.095-2.256,0.301-3.403,0.355c-2.474,0.117-4.947,0.253-7.42,0.34
					c-1.53,0.054-3.06,0.1-4.589,0.161c-1.189,0.047-2.361-0.212-3.537-0.368c-1.887-0.25-3.757-0.481-5.62-0.878
					c-1.516-0.323-2.896-0.791-4.316-1.411c-1.475-0.644-2.991-1.108-4.492-1.662c-1.52-0.561-3.079-1.134-4.542-1.822
					c-0.934-0.44-1.862-0.889-2.786-1.348C33.495,291.515,32.954,291.444,32.693,291.033z"/>
			</g>
			<g>
				<path style="fill:#FF9348;" d="M31.122,297.106c3.881,6.968,11.645,11.128,19.495,12.008c5.17,0.582,10.427,0.037,15.438-1.285
					c4.098-1.088,13.089-2.337,11.448-8.684c-0.048-0.179-0.096-0.357-0.164-0.525c-0.058-0.157-0.115-0.303-0.183-0.449
					c-0.564-1.2-1.521-2.226-2.645-2.94c-5.532-3.507-11.768-0.064-17.61,0.226c-3.95,0.202-7.506-1.857-10.569-4.167
					c-2.88-2.179-8.109-6.003-12.207-5.234c-1.415,0.262-2.716,1.082-3.718,2.707C28.869,291.246,29.694,294.558,31.122,297.106z"/>
				<g>
					<path style="fill:#EA7C32;" d="M69.956,296.217c0.669-0.024,0.707,1.03,0.036,1.054
						C69.322,297.294,69.285,296.241,69.956,296.217z"/>
					<path style="fill:#EA7C32;" d="M66.84,296.346c1.339-0.047,1.413,2.061,0.072,2.108
						C65.573,298.501,65.499,296.393,66.84,296.346z"/>
					<path style="fill:#EA7C32;" d="M68.196,294.759c0.669-0.023,0.707,1.03,0.036,1.054
						C67.562,295.837,67.525,294.783,68.196,294.759z"/>
					<path style="fill:#EA7C32;" d="M56.983,297.645c0.669-0.024,0.707,1.03,0.036,1.054
						C56.35,298.723,56.312,297.669,56.983,297.645z"/>
					<path style="fill:#EA7C32;" d="M53.693,297.943c0.67-0.023,0.707,1.03,0.036,1.054
						C53.059,299.021,53.022,297.967,53.693,297.943z"/>
					<path style="fill:#EA7C32;" d="M55.012,296.164c0.669-0.024,0.707,1.03,0.036,1.054
						C54.379,297.242,54.341,296.188,55.012,296.164z"/>
					<path style="fill:#EA7C32;" d="M50.608,295.488c1.339-0.047,1.413,2.061,0.072,2.108
						C49.341,297.643,49.267,295.535,50.608,295.488z"/>
					<path style="fill:#EA7C32;" d="M39.656,289.338c1.339-0.047,1.413,2.061,0.072,2.108
						C38.389,291.493,38.315,289.385,39.656,289.338z"/>
					<path style="fill:#EA7C32;" d="M42.311,290.623c0.669-0.023,0.707,1.031,0.036,1.054
						C41.677,291.701,41.64,290.647,42.311,290.623z"/>
					<path style="fill:#EA7C32;" d="M40.69,292.382c0.67-0.023,0.707,1.031,0.036,1.054C40.057,293.46,40.02,292.406,40.69,292.382z
						"/>
					<path style="fill:#EA7C32;" d="M35.082,288.05c0.669-0.023,0.707,1.031,0.036,1.054
						C34.448,289.128,34.411,288.074,35.082,288.05z"/>
				</g>
				<path style="fill:#EA7C32;" d="M31.122,297.106c3.881,6.968,11.645,11.128,19.495,12.008c5.17,0.582,10.427,0.037,15.438-1.285
					c4.098-1.088,13.089-2.337,11.448-8.684c-0.048-0.179-0.096-0.357-0.164-0.525c-0.214,0.771-0.353,1.614-0.855,2.246
					c-0.863,1.091-2.1,1.654-3.359,2.175c-2.817,1.181-5.964,2.235-9.08,2.334c-2.196,0.067-4.41,0.208-6.617,0.285l-4.308,0.151
					c-2.007,0.071-3.802-0.672-5.657-1.35c-5.66-2.049-9.795-6.623-13.171-11.371c-1.023-1.459-1.577-2.628-1.533-4.432
					c0.032-1.199,0.57-1.992,1.366-2.604c-1.415,0.262-2.716,1.082-3.718,2.707C28.869,291.246,29.694,294.558,31.122,297.106z"/>
			</g>
		</g>
		<g>
			<path style="fill:#EA7C32;" d="M123.507,184.283c0.304,1.505,1.632,2.951,3.13,4.18c3.141,2.577,7.241,4.533,11.491,5.48
				c4.25,0.948,8.625,0.882,12.26-0.184c1.385-0.406,2.76-1.052,3.006-2.18c0.601-2.756-4.13-4.676-6.999-5.892
				c-4.358-1.848-8.909-3.353-13.527-4.473c-0.679-0.164-1.359-0.324-2.04-0.476c-1.255-0.276-2.561-0.504-3.732-0.345
				C124.875,180.696,123.149,182.506,123.507,184.283z"/>
			<g>
				<path style="fill:#38261E;" d="M123.38,178.99c-0.654,0.643-0.91,1.662-0.636,2.538c0.299,0.954,1.125,1.634,1.924,2.236
					c3.928,2.965,8.232,5.515,12.938,6.957c4.706,1.443,9.847,1.729,14.539,0.241c1.256-0.398,2.581-1.021,3.126-2.221
					c0.317-0.7,0.305-1.563-0.113-2.208c-0.49-0.757-1.407-1.096-2.261-1.387c-3.918-1.336-7.839-2.671-11.824-3.798
					c-3.995-1.13-8.06-2.051-12.188-2.528c-1.001-0.116-2.049-0.1-3.002-0.412C125.018,178.125,124.036,178.346,123.38,178.99z"/>
				<path style="fill:#FF4D4D;" d="M154.307,184.596l-28.458-7.549c-0.221,0.894-0.527,1.766-0.913,2.602
					c3.824,3.529,8.175,6.393,13.102,8.067c4.927,1.674,10.363,2.04,15.356,0.575C153.691,187.08,154.011,185.808,154.307,184.596z"
					/>
				<path style="fill:#00AE92;" d="M123.732,172.807c-0.338,0.108-0.736,0.285-0.774,0.638c-0.046,0.43,0.501,0.786,0.39,1.204
					c-0.119,0.447-0.805,0.409-1.11,0.756c-0.303,0.345-0.075,0.925,0.314,1.168c0.389,0.244,1.323,0.674,1.776,0.748
					c1.622,0.264,3.049,0.466,4.215,1.624c0.702,0.698,0.572,1.78,1.376,2.358c0.682,0.491,1.795,0.364,2.563,0.705
					c0.565,0.251,1.014,1.297,1.604,1.481c0.534,0.167,1.19,0.06,1.597,0.444c0.549,0.519,0.651,1.386,1.199,1.905
					c0.481,0.456,1.198,0.544,1.86,0.551c2.017,0.022,4.142-0.47,5.983,0.353c0.968,0.433,1.979,1.227,2.963,0.833
					c0.878-0.352,1.212-1.501,2.077-1.883c1.013-0.448,2.201,0.368,3.275,0.099c0.882-0.22,1.492-1.126,2.39-1.261
					c0.508-0.077,1.014,0.11,1.522,0.183c0.508,0.074,1.116-0.016,1.377-0.458c0.243-0.411-0.098-0.955-0.2-1.421
					c-0.049-0.225-0.072-0.61-0.082-0.948c-0.012-0.389-0.25-0.73-0.612-0.873c-1.204-0.474-3.342-1.583-4.448-2.376
					c-1.946-1.396-4.513-1.568-6.735-2.462c-3.209-1.29-6.132-3.72-9.59-3.694c-1.381,0.01-2.722,0.423-4.081,0.671
					c-1.492,0.272-2.946,0.204-4.374-0.316c-0.702-0.256-1.374-0.543-2.136-0.533C125.27,172.312,124.49,172.564,123.732,172.807z"
					/>
				<path style="fill:#FFBE92;" d="M125.39,173.565c-0.766,0.063-1.025,1.057-0.393,1.495l11.819,8.185
					c0.983,0.681,1.988,1.372,3.134,1.713c1.288,0.383,2.662,0.297,4.003,0.208c4.099-0.273,8.231-0.551,12.217-1.509
					c0.642-0.154,0.867-0.951,0.387-1.403c-0.665-0.628-1.374-1.355-1.554-1.507c-0.986-0.837-1.988-1.654-3.006-2.452
					c-2.054-1.609-4.171-3.137-6.346-4.579c-1.432-0.95-2.89-1.862-4.37-2.736c-0.118-0.07-0.244-0.138-0.38-0.149
					c-0.512-0.039-1.277,0.333-1.777,0.459c-2.464,0.62-4.955,1.128-7.465,1.524C129.579,173.143,127.487,173.393,125.39,173.565z"
					/>
			</g>
			<g>
				<path style="fill:#FF9348;" d="M156.663,180.929c-1.408,3.812-6.462,2.939-9.561,2.471c-4.714-0.716-9.337-1.974-13.742-3.769
					c-0.654-0.255-1.303-0.529-1.938-0.811c-1.185-0.526-2.366-1.136-3.191-2.133c-0.899-1.106-1.316-2.731-1.206-4.281
					c0.081-1.106,0.421-2.176,1.047-2.986c1.27-1.646,3.318-2.525,5.342-3.013c4.247-1.023,8.82-0.62,12.829,1.129
					c3.173,1.384,5.979,3.614,8.07,6.379l-0.003,0.01c0.545,0.717,1.035,1.471,1.474,2.252
					C156.601,177.624,157.252,179.365,156.663,180.929z"/>
				<g>
					<path style="fill:#EA7C32;" d="M134.229,168.01c-0.63-0.194-0.932,0.786-0.301,0.98
						C134.559,169.184,134.861,168.204,134.229,168.01z"/>
					<path style="fill:#EA7C32;" d="M137.427,167.386c-1.261-0.387-1.865,1.571-0.602,1.959
						C138.085,169.732,138.689,167.774,137.427,167.386z"/>
					<path style="fill:#EA7C32;" d="M141.855,169.323c-0.63-0.194-0.932,0.786-0.301,0.98
						C142.184,170.497,142.486,169.517,141.855,169.323z"/>
					<path style="fill:#EA7C32;" d="M144.875,168.603c-1.261-0.387-1.865,1.571-0.602,1.959
						C145.534,170.95,146.138,168.991,144.875,168.603z"/>
					<path style="fill:#EA7C32;" d="M142.241,167.26c-0.63-0.194-0.932,0.786-0.301,0.98
						C142.571,168.433,142.873,167.454,142.241,167.26z"/>
					<path style="fill:#EA7C32;" d="M148.63,172.598c-0.63-0.194-0.932,0.786-0.301,0.98
						C148.959,173.772,149.261,172.792,148.63,172.598z"/>
					<path style="fill:#EA7C32;" d="M150.636,174.779c-0.63-0.194-0.932,0.786-0.301,0.98
						C150.966,175.953,151.268,174.973,150.636,174.779z"/>
					<path style="fill:#EA7C32;" d="M151.396,171.636c-1.261-0.387-1.865,1.571-0.602,1.959
						C152.055,173.982,152.659,172.024,151.396,171.636z"/>
					<path style="fill:#EA7C32;" d="M145.63,173.118c-0.63-0.194-0.932,0.786-0.301,0.98
						C145.959,174.291,146.261,173.312,145.63,173.118z"/>
				</g>
				<path style="fill:#EA7C32;" d="M156.663,180.929c-1.408,3.812-6.462,2.939-9.561,2.471c-4.714-0.716-9.337-1.974-13.742-3.769
					c-0.654-0.255-1.303-0.529-1.938-0.811c-1.185-0.526-2.366-1.136-3.191-2.133c-0.899-1.106-1.316-2.731-1.206-4.281
					c0.893,1.653,2.338,2.981,3.947,3.949c1.999,1.207,4.235,1.926,6.46,2.609c3.383,1.05,6.861,2.075,10.394,1.867
					c1.272-0.073,2.566-0.322,3.641-1.015c1.151-0.767,1.937-1.991,2.374-3.311c0.267-0.834,0.406-1.707,0.47-2.581
					c0.545,0.717,1.035,1.471,1.474,2.252C156.601,177.624,157.252,179.365,156.663,180.929z"/>
			</g>
		</g>
		<g>
			<path style="fill:#FFBE92;" d="M83.282,204.596l-1.233,18.713l-1.858,28.032c-13.987,7.27-24.227,2.673-24.227,2.673
				l-8.946-27.384l-0.47-1.448l-1.598-4.873l-3.572-10.923L83.282,204.596z"/>
			<g>
				<path style="fill:#38261E;" d="M82.02,223.311c0.034-1.153-0.581-2.306-1.788-2.783c-0.943-0.368-1.975-0.569-2.96-0.664
					c-8.868-0.917-17.68,1.89-26.579,2.23c-1.529,0.047-3.21-0.025-4.312-1.058c-0.398-0.359-0.812-0.869-1.326-0.758
					c-0.045,0.016-0.076,0.016-0.106,0.031l2.068,6.322l8.946,27.384c0,0,10.241,4.597,24.227-2.673l1.858-28.032L82.02,223.311z"/>
				<g>
					<g>
						<path style="fill:#FFBE92;" d="M68.07,248.495c-0.969,0.011-0.954,1.517,0.016,1.507
							C69.056,249.991,69.041,248.485,68.07,248.495z"/>
						<path style="fill:#FFBE92;" d="M64.887,243.177c-1.939,0.021-1.909,3.034,0.033,3.013
							C66.859,246.168,66.829,243.155,64.887,243.177z"/>
						<path style="fill:#FFBE92;" d="M69.053,243.19c-0.969,0.01-0.954,1.517,0.017,1.506
							C70.039,244.686,70.024,243.179,69.053,243.19z"/>
					</g>
					<g>
						<path style="fill:#FFBE92;" d="M57.753,233.766c-0.969,0.011-0.954,1.517,0.017,1.507
							C58.739,235.262,58.724,233.755,57.753,233.766z"/>
						<path style="fill:#FFBE92;" d="M60.403,230.005c-0.969,0.01-0.954,1.517,0.017,1.507
							C61.388,231.501,61.374,229.994,60.403,230.005z"/>
						<path style="fill:#FFBE92;" d="M55.255,227.572c-1.939,0.021-1.909,3.034,0.033,3.013
							C57.227,230.564,57.197,227.551,55.255,227.572z"/>
					</g>
					<g>
						<path style="fill:#FFBE92;" d="M75.128,235.138c-0.969,0.011-0.955,1.517,0.017,1.507
							C76.114,236.634,76.099,235.127,75.128,235.138z"/>
						<path style="fill:#FFBE92;" d="M72.494,232.389c-0.969,0.011-0.954,1.517,0.017,1.507
							C73.48,233.885,73.465,232.378,72.494,232.389z"/>
						<path style="fill:#FFBE92;" d="M74.269,228.03c-0.969,0.011-0.955,1.517,0.016,1.507
							C75.255,229.526,75.24,228.019,74.269,228.03z"/>
					</g>
				</g>
			</g>
			<g>
				<path style="fill:#B5795E;" d="M83.048,203.865c-1.566-3.025-10.679-4.518-21.429-3.354
					c-10.312,1.117-18.623,4.299-20.064,7.461c-1.176,0.989-1.796,2.01-1.688,3.006c0.407,3.758,10.792,5.716,23.195,4.373
					c12.403-1.343,22.128-5.478,21.721-9.236C84.692,205.264,84.067,204.513,83.048,203.865z"/>
				<g>
					<path style="fill:#FF4D4D;" d="M67.063,214.801l-1.002,8.777c1.128,0.947,2.38,0.866,3.732-0.041l1.195-9.501
						C69.733,214.321,68.424,214.578,67.063,214.801z"/>
					<path style="fill:#FF4D4D;" d="M96.002,175.685l-19.364,4.816c-3.503,0.871-6.097,3.827-6.507,7.413l-1.919,17.123
						c1.305,0.987,2.649,0.961,3.983,0.142l1.894-15.791c0.296-2.352,2.039-4.264,4.353-4.776l17.614-3.895
						C97.148,178.814,97.104,177.141,96.002,175.685z"/>
				</g>
			</g>
		</g>
		<g>
			<path style="fill:#FFBE92;" d="M180,114.245l-3.847,12.081l-5.757,18.1c7.006,8.031,14.586,7.668,14.586,7.668l12.396-15.023
				l0.654-0.795l2.21-2.672l4.947-5.992L180,114.245z"/>
			<g>
				<path style="fill:#38261E;" d="M176.171,126.334c0.264-0.734,0.935-1.308,1.813-1.309c0.684,0.001,1.383,0.13,2.027,0.313
					c5.807,1.614,10.659,5.557,16.176,7.97c0.951,0.407,2.027,0.777,2.975,0.399c0.339-0.128,0.726-0.346,1.021-0.149
					c0.025,0.021,0.044,0.029,0.059,0.046l-2.863,3.467l-12.396,15.023c0,0-7.58,0.363-14.586-7.668l5.757-18.1L176.171,126.334z"/>
				<g>
					<g>
						<path style="fill:#FFBE92;" d="M178.728,145.63c0.607,0.246,0.226,1.191-0.383,0.944
							C177.738,146.328,178.119,145.383,178.728,145.63z"/>
						<path style="fill:#FFBE92;" d="M182.045,143.069c1.215,0.492,0.452,2.381-0.765,1.888
							C180.065,144.465,180.828,142.576,182.045,143.069z"/>
						<path style="fill:#FFBE92;" d="M179.42,142.048c0.607,0.246,0.226,1.191-0.383,0.944
							C178.429,142.746,178.811,141.801,179.42,142.048z"/>
					</g>
					<g>
						<path style="fill:#FFBE92;" d="M188.859,138.909c0.607,0.246,0.226,1.191-0.383,0.944
							C187.869,139.607,188.251,138.663,188.859,138.909z"/>
						<path style="fill:#FFBE92;" d="M188.121,135.887c0.607,0.246,0.226,1.191-0.383,0.944
							C187.131,136.585,187.513,135.641,188.121,135.887z"/>
						<path style="fill:#FFBE92;" d="M191.962,135.628c1.215,0.492,0.452,2.381-0.765,1.888
							C189.982,137.024,190.745,135.135,191.962,135.628z"/>
					</g>
					<g>
						<path style="fill:#FFBE92;" d="M177.586,135.48c0.607,0.246,0.226,1.191-0.383,0.944
							C176.596,136.178,176.978,135.233,177.586,135.48z"/>
						<path style="fill:#FFBE92;" d="M179.923,134.401c0.607,0.246,0.226,1.191-0.383,0.944
							C178.933,135.099,179.314,134.154,179.923,134.401z"/>
						<path style="fill:#FFBE92;" d="M179.883,131.219c0.607,0.246,0.226,1.191-0.383,0.944
							C178.893,131.917,179.274,130.972,179.883,131.219z"/>
					</g>
				</g>
			</g>
			<g>
				<path style="fill:#B5795E;" d="M180.328,113.842c1.733-1.517,7.837-0.205,14.314,3.184c6.214,3.25,10.658,7.307,10.783,9.652
					c0.495,0.913,0.633,1.709,0.32,2.309c-1.184,2.265-8.204,0.931-15.678-2.979c-7.474-3.91-12.572-8.915-11.388-11.179
					C178.948,114.317,179.527,113.998,180.328,113.842z"/>
				<g>
					<path style="fill:#FF4D4D;" d="M187.686,124.674l-1.538,5.771c-0.944,0.317-1.712-0.043-2.338-0.948l1.595-6.274
						C186.124,123.712,186.885,124.197,187.686,124.674z"/>
					<path style="fill:#FF4D4D;" d="M179.138,92.908l10.996,7.815c1.99,1.414,2.892,3.915,2.263,6.273l-3.023,11.25
						c-1.065,0.299-1.905-0.05-2.542-0.894l2.709-10.406c0.395-1.553-0.23-3.187-1.56-4.081l-10.122-6.803
						C177.644,94.593,178.085,93.551,179.138,92.908z"/>
				</g>
			</g>
		</g>
		<g>
			<g>
				<polygon style="fill:#FF9348;" points="106.576,228.549 107.805,225.385 116.762,249.136 114.237,250.153 				"/>
				<polygon style="fill:#EA7C32;" points="107.805,225.385 116.762,249.136 117.802,247.941 110.308,227.047 				"/>
			</g>
			<g>
				<polygon style="fill:#FF9348;" points="134.822,225.63 136.999,223.025 137.883,248.393 135.166,248.548 				"/>
				<polygon style="fill:#EA7C32;" points="136.999,223.025 137.883,248.393 139.251,247.594 138.838,225.401 				"/>
			</g>
			<g>
				<polygon style="fill:#FF9348;" points="110.232,226.49 111.461,223.325 120.417,247.077 117.892,248.093 				"/>
				<polygon style="fill:#EA7C32;" points="111.461,223.325 120.417,247.077 121.457,245.881 113.964,224.988 				"/>
			</g>
			<g>
				<polygon style="fill:#FF9348;" points="101.581,229.669 102.421,226.38 114.166,248.883 111.781,250.195 				"/>
				<polygon style="fill:#EA7C32;" points="102.421,226.38 114.166,248.883 115.055,247.572 105.106,227.729 				"/>
			</g>
			<g>
				<polygon style="fill:#FF9348;" points="113.964,224.738 114.938,221.486 125.753,244.45 123.317,245.664 				"/>
				<polygon style="fill:#EA7C32;" points="114.938,221.486 125.753,244.45 126.695,243.176 117.565,222.944 				"/>
			</g>
			<g>
				<polygon style="fill:#FF9348;" points="125.318,220.266 126.778,217.202 133.949,241.551 131.356,242.378 				"/>
				<polygon style="fill:#EA7C32;" points="126.778,217.202 133.949,241.551 135.075,240.436 129.151,219.045 				"/>
			</g>
			<g>
				<polygon style="fill:#FF9348;" points="131.365,218.878 133.85,216.566 131.559,241.846 128.843,241.66 				"/>
				<polygon style="fill:#EA7C32;" points="133.85,216.566 131.559,241.846 133.016,241.223 135.378,219.153 				"/>
			</g>
			<g>
				<polygon style="fill:#FF9348;" points="116.597,219.932 118.363,217.033 123.003,241.99 120.338,242.546 				"/>
				<polygon style="fill:#EA7C32;" points="118.363,217.033 123.003,241.99 124.237,240.996 120.535,219.11 				"/>
			</g>
			<g>
				<polygon style="fill:#FF9348;" points="122.049,217.214 124.147,214.545 125.794,239.876 123.083,240.112 				"/>
				<polygon style="fill:#EA7C32;" points="124.147,214.545 125.794,239.876 127.137,239.035 126.057,216.865 				"/>
			</g>
			<g>
				<polygon style="fill:#FF9348;" points="120.77,221.934 122.267,218.888 129.137,243.324 126.534,244.118 				"/>
				<polygon style="fill:#EA7C32;" points="122.267,218.888 129.137,243.324 130.276,242.223 124.617,220.76 				"/>
			</g>
			<path style="fill:#FF4D4D;" d="M104.11,237.318l10.898,36.405c0,0,17.441,0.48,26.888-4.163l-2.523-39.049
				C139.373,230.511,120.761,230.533,104.11,237.318z"/>
		</g>
		<g>
			<g>
				<polygon style="fill:#FF9348;" points="69.216,88.56 70.576,87.681 67.392,99.366 66.132,99.052 				"/>
				<polygon style="fill:#EA7C32;" points="70.576,87.681 67.392,99.366 68.128,99.195 71.078,89.023 				"/>
			</g>
			<g>
				<polygon style="fill:#FF9348;" points="80.949,95.334 82.519,94.937 75.763,104.988 74.669,104.288 				"/>
				<polygon style="fill:#EA7C32;" points="82.519,94.937 75.763,104.988 76.515,105.062 82.565,96.369 				"/>
			</g>
			<g>
				<polygon style="fill:#FF9348;" points="71.204,88.786 72.565,87.907 69.381,99.593 68.121,99.279 				"/>
				<polygon style="fill:#EA7C32;" points="72.565,87.907 69.381,99.593 70.117,99.422 73.067,89.25 				"/>
			</g>
			<g>
				<polygon style="fill:#FF9348;" points="66.972,87.595 68.217,86.559 66.46,98.542 65.171,98.382 				"/>
				<polygon style="fill:#EA7C32;" points="68.217,86.559 66.46,98.542 67.17,98.284 68.877,87.831 				"/>
			</g>
			<g>
				<polygon style="fill:#FF9348;" points="73.137,89.154 74.424,88.169 72.178,100.071 70.897,99.858 				"/>
				<polygon style="fill:#EA7C32;" points="74.424,88.169 72.178,100.071 72.899,99.842 75.031,89.468 				"/>
			</g>
			<g>
				<polygon style="fill:#FF9348;" points="78.776,90.602 80.198,89.826 76.157,101.243 74.923,100.837 				"/>
				<polygon style="fill:#EA7C32;" points="80.198,89.826 76.157,101.243 76.904,101.127 80.599,91.203 				"/>
			</g>
			<g>
				<polygon style="fill:#FF9348;" points="81.502,91.757 83.109,91.559 75.151,100.688 74.153,99.857 				"/>
				<polygon style="fill:#EA7C32;" points="83.109,91.559 75.151,100.688 75.888,100.855 82.976,92.986 				"/>
			</g>
			<g>
				<polygon style="fill:#FF9348;" points="75.499,88.033 76.993,87.407 71.804,98.35 70.618,97.82 				"/>
				<polygon style="fill:#EA7C32;" points="76.993,87.407 71.804,98.35 72.559,98.311 77.251,88.817 				"/>
			</g>
			<g>
				<polygon style="fill:#FF9348;" points="78.367,88.508 79.924,88.063 73.474,98.314 72.36,97.647 				"/>
				<polygon style="fill:#EA7C32;" points="79.924,88.063 73.474,98.314 74.228,98.365 80.014,89.494 				"/>
			</g>
			<g>
				<polygon style="fill:#FF9348;" points="76.552,89.974 77.983,89.216 73.801,100.582 72.573,100.161 				"/>
				<polygon style="fill:#EA7C32;" points="77.983,89.216 73.801,100.582 74.549,100.475 78.367,90.597 				"/>
			</g>
			<path style="fill:#FF4D4D;" d="M65.809,91.258l-5.974,17.119c0,0,6.606,5.066,11.556,5.914l9.95-15.797
				C81.342,98.494,74.143,93.295,65.809,91.258z"/>
		</g>
	</g>
	<g>
		<g>
			<g>
				<path style="fill:#008E73;" d="M389.159,116.905c0,0,4.868,5.86-5.1,19.187c-4.508,6.027-3.702,15.781-12.779,22.24
					c-12.525,8.912-28.072-5.311-31.356-18.6L389.159,116.905z"/>
				<path style="fill:#FFBE92;" d="M344.223,122.891c0.39-0.272,0.799-0.526,1.225-0.761c4.623-2.549,10.761-2.01,15.838-1.984
					c4.126,0.021,8.132-1.19,11.932-2.699c2.287-0.909,4.473-2.091,6.844-2.799c3.692-1.102,8.601-1.233,9.489,3.571
					c0.399,2.159-0.372,4.224-1.64,5.961c-1.973,2.702-4.859,4.582-6.842,7.268c-2.888,3.91-4.455,8.619-6.878,12.802
					c-4.03,6.959-11.824,10.821-19.79,8.967c-7.736-1.8-14.681-10.163-15.65-17.953
					C338.135,130.304,340.245,125.663,344.223,122.891z"/>
				<path style="fill:#00AE92;" d="M389.657,119.421c0.111,2.565-1.406,4.891-3.076,6.725c-1.705,1.859-3.667,3.449-5.094,5.427
					c-2.894,3.995-4.44,8.807-6.997,13.199c-2.649,4.369-7.026,7.794-12.067,8.84c-2.499,0.558-5.108,0.508-7.581-0.045
					c-2.484-0.555-4.773-1.761-6.729-3.312c4.132,2.833,9.385,3.793,14.124,2.562c4.758-1.155,8.885-4.394,11.343-8.589
					c2.556-4.194,4.114-9.091,7.258-13.143c1.597-2.028,3.625-3.543,5.369-5.295C387.968,124.094,389.516,121.968,389.657,119.421z"
					/>
			</g>
			<path style="fill:#B5795E;" d="M365.808,134.017c-1.779,3.055-6.085,8.52-13.83,7.74c-1.331-0.134-2.471-1.062-2.847-2.339
				c-0.846-2.876-1.446-8.311,3.961-12.571c5.706-4.495,10.46,0.496,12.554,3.408C366.441,131.363,366.503,132.823,365.808,134.017z
				"/>
		</g>
		<g>
			<g>
				<path style="fill:#FFBE92;" d="M404.055,188.647c2.558,6.362-13.455,22.31-37.683,32.051
					c-24.228,9.741-47.496,9.585-50.054,3.223c-2.558-6.362,16.563-16.522,40.791-26.263
					C381.337,187.917,401.497,182.285,404.055,188.647z"/>
				<path style="fill:#B5795E;" d="M404.287,190.331c-0.167,2.085-1.203,3.996-2.341,5.713c-1.123,1.758-2.477,3.345-3.861,4.899
					c-2.859,3.024-6.017,5.755-9.351,8.237c-6.679,4.968-14.059,8.928-21.729,12.14c-7.741,3.05-15.81,5.297-24.055,6.393
					c-4.12,0.537-8.277,0.832-12.434,0.723c-2.076-0.1-4.154-0.228-6.202-0.594c-2.038-0.348-4.108-0.803-5.923-1.823
					c1.889,0.857,3.953,1.153,5.982,1.392c2.039,0.24,4.099,0.243,6.148,0.22c4.104-0.055,8.199-0.488,12.244-1.168
					c4.041-0.707,8.057-1.547,12.008-2.652c3.947-1.113,7.817-2.479,11.615-4.011c3.799-1.537,7.521-3.266,11.14-5.195
					c3.605-1.956,7.081-4.135,10.47-6.444c3.379-2.324,6.581-4.913,9.514-7.776c1.448-1.445,2.876-2.929,4.079-4.588
					C402.797,194.163,403.942,192.385,404.287,190.331z"/>
			</g>
			<g>
				<g>
					<path style="fill:#00AE92;" d="M323.151,215.979c-0.639,0.331-0.9,1.735-0.193,2.319c0.579,0.479,1.593-0.136,2.161-0.336
						c2.338-0.822,2.811,1.702,4.539,2.876c2.107,1.432,3.319-0.265,4.911-1.126c2.587-1.399,3.59,1.211,5.871,1.955
						c1.089,0.355,2.227,0.018,3.17-0.543c1.477-0.879,2.15-2.086,3.887-2.702c1.692-0.6,2.924-0.166,4.573-0.077
						c1.535,0.083,1.574-0.706,2.611-1.611c1.803-1.573,4.174-0.571,6.295-0.478c1.405,0.062,2.717-0.201,4.005-0.7
						c0.822-0.319,1.832-0.546,2.487-1.146c0.969-0.889,1.155-2.406,1.724-3.558c0.88-1.781,3.699-2.562,5.451-2.722
						c0.809-0.074,2.085,0.128,2.78-0.468c0.582-0.5,0.769-1.535,1.266-2.132c1.48-1.777,4.638-2.012,6.655-2.7
						c1.417-0.483,2.793-1.126,4.183-1.683c3.51-1.406,2.166-5.398,3.509-8.474c0.645-1.477,2.201-1.992,2.978-3.222
						c0.561-0.887-0.017-0.979-0.132-1.962c-0.134-1.143,0.643-1.86-0.784-2.463c-1.212-0.512-2.101-0.404-3.047-1.657
						c-0.591-0.783-0.886-1.749-1.474-2.499c-1.993-2.546-3.425,1.078-5.594,1.55c-2.302,0.502-4.752-1.038-7.126-0.398
						c-1.156,0.311-2.539,0.827-3.576,1.441c-1.276,0.755-2.6,2.126-4.148,2.289c-2.189,0.23-4.379-1.328-6.59-0.394
						c-1.21,0.512-2.101,1.788-2.939,2.835c-1.704,2.131-3.79,2.77-6.381,3.046c-2.703,0.287-5.358-0.884-8.06-0.186
						c-2.018,0.521-2.091,1.983-3.012,3.679c-0.978,1.801-3.616,2.72-5.401,3.395c-2.87,1.086-5.918,1.364-8.783,2.518
						c-1.718,0.692-4.322,1.191-5.54,2.668c-1.331,1.614-0.433,2.671-0.215,4.551c0.181,1.561-0.714,2.636-0.645,4.135
						C322.621,213.109,323.287,214.556,323.151,215.979z"/>
					<path style="fill:#008E73;" d="M330.768,215.067c-0.334-0.87-0.946-1.615-1.799-1.786c-1.378-0.276-2.954-0.99-3.354-2.061
						c-0.465-1.244,0.283-1.172,1.143-1.721c0.865-0.552,0.866-0.855,0.473-1.953c-0.577-1.61-2.522-2.771-1.775-4.592
						c0.858-2.092,3.33-2.157,5.121-2.684c1.118-0.328,1.693-0.703,2.27-1.774c0.676-1.257,1.168-2.646,2.427-3.267
						c1.602-0.79,3.464,0.426,4.811-0.923c1.411-1.413,1.868-3.82,3.316-5.242c1.274-1.25,3.14-1.588,4.83-1.07
						c3.563,1.093,5.173-4.015,8.857-2.135c0.965,0.492,1.592,1.148,2.657,0.982c1.954-0.305,3.76-1.585,5.426-2.575
						c2.116-1.258,3.066-0.024,5.349,0.203c1.972,0.196,3.745-1.257,5.329-2.185c2.022-1.184,4.971-2.771,7.203-1.158
						c1.96,1.417,2.21,4.326,2.813,6.479c0.375,1.339,0.964,1.394,1.972,1.907c1.136,0.578,2.086,2,0.944,2.987
						c-1.477,1.277-4.665,0.734-5.353,2.755c-0.313,0.92-0.036,2.367-0.193,3.396c-0.238,1.562-1.265,2.081-2.881,2.305
						c-1.721,0.238-3.752-0.418-5.136,0.925c-0.592,0.575-0.848,1.791-1.52,2.32c-1.013,0.797-2.178,0.149-3.318-0.018
						c-1.411-0.207-3.242,0.542-4.139,1.596c-1.733,2.035-2.57,4.061-5.169,5.058c-2.148,0.823-4.274-1.124-6.422-0.572
						c-2.292,0.588-4.375,3.805-6.916,3.292c-0.796-0.161-1.492-0.925-2.253-1.114c-0.699-0.174-1.493,0.229-2.115,0.469
						c-1.891,0.73-3.208,2.31-4.972,3.327c-0.37,0.213-1.001,0.619-1.452,0.647c-0.666,0.042-0.934-0.375-1.543-0.62
						c-1.029-0.414-1.782,0.164-2.782,0.117C331.839,216.348,331.105,215.946,330.768,215.067z"/>
				</g>
				<g>
					<g>
						<path style="fill:#FF4D4D;" d="M327.808,209.351l6.931-15.91c0,0,6.882,3.876,3.466,11.718
							C334.788,213.001,327.808,209.351,327.808,209.351z"/>
						<g>
							<g>
								<path style="fill:#D32626;" d="M328.889,206.87c0,0,5.198,1.548,7.117-2.857c1.919-4.406-2.29-8.222-2.29-8.222
									L328.889,206.87z"/>
								<path style="fill:#FF4D4D;" d="M329.995,204.331c0,0,2.063,0.56,3.165-1.969c1.102-2.53-0.553-4.028-0.553-4.028
									L329.995,204.331z"/>
							</g>
							<g>
								<path style="fill:#FF9348;" d="M330.609,205.108c0,0-0.355,1.049-0.059,1.073
									C330.845,206.204,330.609,205.108,330.609,205.108z"/>
								<path style="fill:#FF9348;" d="M331.827,205.093c0,0-0.053,1.135,0.231,1.066
									C332.342,206.091,331.827,205.093,331.827,205.093z"/>
								<path style="fill:#FF9348;" d="M333.078,204.406c0,0,0.327,1.108,0.564,0.935
									C333.878,205.167,333.078,204.406,333.078,204.406z"/>
								<path style="fill:#FF9348;" d="M333.521,198.422c0,0,0.52-0.958,0.716-0.708
									C334.435,197.965,333.521,198.422,333.521,198.422z"/>
								<path style="fill:#FF9348;" d="M334.254,199.52c0,0,0.764-0.74,0.89-0.445C335.27,199.371,334.254,199.52,334.254,199.52z"
									/>
								<path style="fill:#FF9348;" d="M334.537,201.057c0,0,0.978-0.384,1-0.067C335.56,201.308,334.537,201.057,334.537,201.057z"
									/>
								<path style="fill:#FF9348;" d="M334.225,202.905c0,0,0.775,0.838,0.897,0.558
									C335.243,203.183,334.225,202.905,334.225,202.905z"/>
							</g>
						</g>
					</g>
					<g>
						<path style="fill:#FF4D4D;" d="M344.293,199.148l18.328,3.451c0,0-0.955,8.746-9.988,7.045
							C343.6,207.944,344.293,199.148,344.293,199.148z"/>
						<g>
							<g>
								<path style="fill:#D32626;" d="M347.152,199.686c0,0,0.622,6.233,5.697,7.188c5.075,0.956,7.067-4.785,7.067-4.785
									L347.152,199.686z"/>
								<path style="fill:#FF4D4D;" d="M350.077,200.237c0,0,0.3,2.46,3.214,3.008c2.914,0.549,3.695-1.708,3.695-1.708
									L350.077,200.237z"/>
							</g>
							<g>
								<path style="fill:#FF9348;" d="M349.572,201.134c0,0-1.167-0.114-1.068,0.224
									C348.602,201.695,349.572,201.134,349.572,201.134z"/>
								<path style="fill:#FF9348;" d="M350.086,202.492c0,0-1.126,0.248-0.943,0.547
									C349.325,203.339,350.086,202.492,350.086,202.492z"/>
								<path style="fill:#FF9348;" d="M351.266,203.706c0,0-0.945,0.666-0.679,0.883
									C350.853,204.807,351.266,203.706,351.266,203.706z"/>
								<path style="fill:#FF9348;" d="M357.274,202.584c0,0,1.146,0.322,0.983,0.61
									C358.093,203.482,357.274,202.584,357.274,202.584z"/>
								<path style="fill:#FF9348;" d="M356.505,203.701c0,0,1.034,0.654,0.797,0.875
									C357.066,204.796,356.505,203.701,356.505,203.701z"/>
								<path style="fill:#FF9348;" d="M355.124,204.432c0,0,0.775,0.99,0.475,1.101
									C355.299,205.644,355.124,204.432,355.124,204.432z"/>
								<path style="fill:#FF9348;" d="M353.198,204.583c0,0-0.498,1.094-0.176,1.154
									C353.344,205.798,353.198,204.583,353.198,204.583z"/>
							</g>
						</g>
					</g>
					<path style="fill:#571B59;" d="M336.438,199.032c0.285,1.669,1.226,3.231,2.446,4.134c1.273,0.895,2.852,1.373,4.52,1.495
						c1.667,0.174,3.257-0.023,4.553-0.689c1.245-0.685,2.23-2.075,2.565-3.689l1.356,0.108c0.134,2.263-0.846,4.465-2.631,5.732
						c-1.785,1.225-3.933,1.478-5.885,1.305c-1.952-0.174-4.087-0.807-5.83-2.346c-1.742-1.581-2.652-3.951-2.45-6.184
						L336.438,199.032z"/>
					<path style="fill:#571B59;" d="M344.357,193.166c0.749,1.161,1.93,1.994,3.096,2.223c1.2,0.202,2.482-0.028,3.712-0.561
						c1.246-0.494,2.315-1.24,3.022-2.234c0.664-0.988,0.912-2.415,0.624-3.767l1.002-0.427c0.835,1.669,0.856,3.71-0.003,5.344
						c-0.873,1.602-2.322,2.601-3.771,3.202c-1.449,0.601-3.178,0.922-4.924,0.407c-1.759-0.547-3.183-2.006-3.768-3.779
						L344.357,193.166z"/>
					<path style="fill:#571B59;" d="M375.681,193.698c1.389,0.909,3.083,1.192,4.458,0.786c1.398-0.456,2.671-1.456,3.734-2.777
						c1.101-1.284,1.884-2.758,2.153-4.308c0.225-1.52-0.219-3.307-1.206-4.7l0.871-1.068c1.737,1.445,2.779,3.786,2.665,6.162
						c-0.144,2.347-1.212,4.33-2.479,5.854c-1.267,1.524-2.977,2.886-5.122,3.294c-2.176,0.378-4.443-0.487-5.962-2.194
						L375.681,193.698z"/>
					<path style="fill:#571B59;" d="M361.313,187.812c1.132,1.264,2.721,2.024,4.172,2.042c1.487-0.023,2.988-0.597,4.366-1.534
						c1.405-0.892,2.547-2.055,3.204-3.441c0.606-1.37,0.624-3.187,0.009-4.79l1.125-0.754c1.336,1.871,1.764,4.385,1.051,6.596
						c-0.737,2.174-2.288,3.736-3.916,4.806c-1.629,1.07-3.651,1.857-5.859,1.618c-2.229-0.277-4.234-1.755-5.29-3.81
						L361.313,187.812z"/>
					<g>
						<path style="fill:#FF4D4D;" d="M353.413,186.833l24.148-0.627c0,0,0.918,11.695-10.984,12.004
							C354.675,198.519,353.413,186.833,353.413,186.833z"/>
						<g>
							<g>
								<path style="fill:#D32626;" d="M357.178,186.735c0,0,2.311,7.97,8.998,7.796c6.687-0.174,7.82-8.233,7.82-8.233
									L357.178,186.735z"/>
								<path style="fill:#FF4D4D;" d="M361.033,186.635c0,0,0.981,3.13,4.82,3.03c3.84-0.1,4.283-3.266,4.283-3.266
									L361.033,186.635z"/>
							</g>
							<g>
								<path style="fill:#FF9348;" d="M360.609,187.948c0,0-1.512,0.179-1.304,0.592
									C359.513,188.953,360.609,187.948,360.609,187.948z"/>
								<path style="fill:#FF9348;" d="M361.594,189.579c0,0-1.372,0.639-1.066,0.979
									C360.833,190.898,361.594,189.579,361.594,189.579z"/>
								<path style="fill:#FF9348;" d="M363.391,190.834c0,0-1.039,1.134-0.648,1.344
									C363.134,192.388,363.391,190.834,363.391,190.834z"/>
								<path style="fill:#FF9348;" d="M370.757,187.685c0,0,1.535,0.1,1.398,0.522
									C372.018,188.628,370.757,187.685,370.757,187.685z"/>
								<path style="fill:#FF9348;" d="M370.052,189.359c0,0,1.474,0.565,1.227,0.919
									C371.032,190.633,370.052,189.359,370.052,189.359z"/>
								<path style="fill:#FF9348;" d="M368.474,190.702c0,0,1.226,1.076,0.872,1.305
									C368.993,192.236,368.474,190.702,368.474,190.702z"/>
								<path style="fill:#FF9348;" d="M366.061,191.439c0,0-0.367,1.569,0.058,1.557
									C366.544,192.984,366.061,191.439,366.061,191.439z"/>
							</g>
						</g>
					</g>
				</g>
			</g>
		</g>
		<g>
			<g>
				<g>
					<g>
						<path style="fill:#FFBE92;" d="M469.553,237.467l-8.462,16.02l-0.934,1.784l-0.048,0.09l-13.342,25.31
							c-19.327,4.018-30.146-10.119-30.146-10.119l3.719-29.986l0.011-0.032l0.301-2.367l2.042-16.43L469.553,237.467z"/>
						<path style="fill:#B5795E;" d="M469.552,237.47c-0.96,2.859-12.227,1.655-25.167-2.688
							c-12.94-4.343-22.652-10.182-21.692-13.04c0.96-2.859,12.227-1.655,25.167,2.688
							C460.8,228.773,470.512,234.611,469.552,237.47z"/>
						<path style="fill:#FFFFFF;" d="M466.298,238.957c-3.727,0.402-7.487-0.166-11.15-0.857c-3.675-0.715-7.275-1.757-10.834-2.902
							c-3.532-1.228-7.031-2.568-10.397-4.207c-3.343-1.653-6.682-3.465-9.43-6.013c1.452,1.173,3.055,2.125,4.697,2.99
							c1.63,0.887,3.305,1.693,5.004,2.44c3.394,1.505,6.863,2.841,10.392,3.999c3.513,1.203,7.088,2.225,10.703,3.068
							c1.806,0.427,3.628,0.79,5.465,1.062C462.579,238.831,464.434,239.034,466.298,238.957z"/>
					</g>
					<g>
						<path style="fill:#00AE92;" d="M460.11,255.361l-13.342,25.31c-19.327,4.018-30.146-10.119-30.146-10.119l3.719-29.986
							l0.011-0.032c1.184-0.325,2.295-0.798,3.706-0.748c1.464,0.05,2.895,0.249,4.306,0.405c2.626,0.264,5.182,0.682,7.802,1.332
							c5.915,1.439,11.501,3.702,16.621,6.777c3.019,1.824,5.561,3.858,7.283,6.974C460.073,255.313,460.099,255.339,460.11,255.361
							z"/>
						<path style="fill:#008E73;" d="M460.068,255.276c-7.236,1.026-14.706,0.228-21.555-2.264
							c-6.97-2.551-13.291-6.876-18.173-12.445l0.011-0.032c1.184-0.325,2.295-0.798,3.706-0.748
							c1.464,0.05,2.895,0.249,4.306,0.405c2.626,0.264,5.182,0.682,7.802,1.332c5.915,1.439,11.501,3.702,16.621,6.777
							C455.804,250.125,458.347,252.16,460.068,255.276z"/>
						<g>
							<path style="fill:#008E73;" d="M429.447,261.225c-1.014-0.34-1.545,1.235-0.529,1.576
								C429.932,263.142,430.463,261.566,429.447,261.225z"/>
							<path style="fill:#008E73;" d="M434.047,258.658c-2.029-0.681-3.09,2.471-1.058,3.153
								C435.018,262.492,436.079,259.34,434.047,258.658z"/>
							<path style="fill:#008E73;" d="M430.516,256.835c-1.014-0.34-1.545,1.235-0.529,1.576
								C431.002,258.751,431.533,257.176,430.516,256.835z"/>
							<path style="fill:#008E73;" d="M446.317,262.441c-1.014-0.34-1.545,1.235-0.529,1.577
								C446.802,264.358,447.333,262.782,446.317,262.441z"/>
							<path style="fill:#008E73;" d="M450.584,259.965c-2.029-0.681-3.09,2.471-1.058,3.153
								C451.554,263.799,452.616,260.647,450.584,259.965z"/>
							<path style="fill:#008E73;" d="M451.673,265.148c-1.014-0.341-1.545,1.235-0.529,1.576
								C452.158,267.065,452.689,265.489,451.673,265.148z"/>
							<path style="fill:#008E73;" d="M433.329,273.743c-1.014-0.34-1.545,1.235-0.529,1.576
								C433.814,275.66,434.345,274.084,433.329,273.743z"/>
							<path style="fill:#008E73;" d="M438.539,273.572c-1.014-0.34-1.545,1.235-0.529,1.576
								C439.025,275.489,439.555,273.913,438.539,273.572z"/>
							<path style="fill:#008E73;" d="M436.631,268.721c-2.029-0.681-3.09,2.471-1.058,3.153
								C437.602,272.554,438.663,269.403,436.631,268.721z"/>
							<path style="fill:#008E73;" d="M424.287,266.363c-1.014-0.34-1.545,1.235-0.529,1.576
								C424.772,268.28,425.303,266.704,424.287,266.363z"/>
						</g>
					</g>
				</g>
				<g>
					<path style="fill:#FF9348;" d="M439.926,232.749l0.849-38.989c-2.279-1.433-4.183-1.238-5.832,0.063l-0.318,36.766
						C436.373,231.355,438.141,232.073,439.926,232.749z"/>
					<path style="fill:#FF9348;" d="M434.619,231.314L434.49,246.2c1.837,1.478,3.554,1.647,5.135,0.344l0.282-12.968
						C438.12,232.881,436.354,232.134,434.619,231.314z"/>
				</g>
			</g>
			<g>
				<path style="fill:#FF4D4D;" d="M473.401,245.178l-11.252-16.797c0,0,7.491-5.904,13.036,2.374
					C480.731,239.033,473.401,245.178,473.401,245.178z"/>
				<g>
					<g>
						<path style="fill:#D32626;" d="M471.646,242.558c0,0,4.349-5.215,1.233-9.867c-3.116-4.651-9.069-1.831-9.069-1.831
							L471.646,242.558z"/>
						<path style="fill:#FF4D4D;" d="M469.85,239.877c0,0,1.675-2.1-0.114-4.771c-1.789-2.671-4.127-1.561-4.127-1.561
							L469.85,239.877z"/>
					</g>
					<g>
						<path style="fill:#FF9348;" d="M470.927,239.587c0,0,0.799,0.989,0.985,0.656
							C472.098,239.911,470.927,239.587,470.927,239.587z"/>
						<path style="fill:#FF9348;" d="M471.587,238.158c0,0,1.047,0.683,1.14,0.314C472.82,238.103,471.587,238.158,471.587,238.158z
							"/>
						<path style="fill:#FF9348;" d="M471.63,236.322c0,0,1.233,0.225,1.199-0.146C472.795,235.806,471.63,236.322,471.63,236.322z"
							/>
						<path style="fill:#FF9348;" d="M466.199,232.528c0,0-0.621-1.131-0.275-1.223
							C466.271,231.212,466.199,232.528,466.199,232.528z"/>
						<path style="fill:#FF9348;" d="M467.646,232.275c0,0-0.279-1.296,0.071-1.281
							C468.067,231.009,467.646,232.275,467.646,232.275z"/>
						<path style="fill:#FF9348;" d="M469.261,232.787c0,0,0.177-1.351,0.49-1.203C470.065,231.731,469.261,232.787,469.261,232.787
							z"/>
						<path style="fill:#FF9348;" d="M470.841,234.162c0,0,1.224-0.445,1.026-0.74C471.669,233.127,470.841,234.162,470.841,234.162
							z"/>
					</g>
				</g>
			</g>
		</g>
		<g>
			<path style="fill:#008E73;" d="M454.085,170.773c-2.273-4.37-2.75-9.642-1.297-14.349c0.058-0.188,0.124-0.382,0.264-0.52
				c0.141-0.137,0.38-0.194,0.535-0.073c0.144,0.113,0.16,0.322,0.164,0.505c0.072,3.404,0.143,6.807,0.215,10.211
				c0.692-4.103,1.594-8.225,3.023-12.132c0.195-0.533,0.421-1.086,0.861-1.445c0.44-0.359,1.16-0.438,1.545-0.021
				c0.373,0.404,0.276,1.039,0.151,1.575c-0.949,4.095-2.089,8.146-3.415,12.135c1.658-4.029,3.879-7.893,6.446-11.414
				c0.394-0.541,0.991-1.141,1.625-0.924c0.647,0.221,0.738,1.1,0.611,1.772c-0.796,4.222-5.279,6.92-6.346,11.082
				c0.928-1.487,1.983-2.888,3.265-4.083c0.157-0.146,0.363-0.3,0.564-0.227c0.223,0.08,0.267,0.375,0.246,0.612
				c-0.092,1.025-0.701,1.934-1.407,2.684c-0.705,0.75-1.524,1.391-2.187,2.178c-0.653,0.776-1.156,1.693-1.945,2.33
				C456.215,171.305,454.553,171.673,454.085,170.773z"/>
			<path style="fill:#EA7C32;" d="M453.403,186.192c-2.312-3.29-4.736-6.999-4.228-10.989c0.366-2.877,2.388-5.484,5.083-6.554
				c4.091-1.625,8.905,0.375,11.858,3.639c2.953,3.264,4.455,7.551,5.885,11.714c1.363,3.967,2.726,7.935,4.089,11.902
				c2.211,6.436,4.429,12.895,5.768,19.568c0.192,0.954,0.365,1.945,0.15,2.894c-0.214,0.95-0.913,1.856-1.874,2.015
				c-2.336,0.388-3.566-3.02-4.997-4.292c-1.909-1.697-3.248-3.587-4.723-5.686c-3.625-5.159-7.249-10.317-10.874-15.475
				C457.496,192.016,455.449,189.104,453.403,186.192z"/>
		</g>
		<g>
			<g>
				<path style="fill:#FF4D4D;" d="M438.277,155.813c-0.516,3.588-1.755,7.176-4.182,9.861c-2.323,2.556-5.576,4.156-8.957,4.801
					c-3.407,0.619-6.918,0.336-10.274-0.465c-3.175-0.749-6.324-2.013-8.621-4.337c-1.859-1.91-2.994-4.337-3.562-6.97
					c-0.49-2.168-0.619-4.492-0.49-6.737c0.181-3.278,0.826-6.608,2.53-9.422c1.239-2.091,3.072-3.794,5.163-4.982
					c7.357-4.233,16.985-1.807,23.103,3.691c0.49,0.439,0.955,0.904,1.394,1.368c1.704,1.807,3.098,3.949,3.717,6.35
					C438.691,151.192,438.613,153.541,438.277,155.813z"/>
				<path style="fill:#D32626;" d="M438.277,155.813c-0.516,3.588-1.755,7.176-4.182,9.861c-2.323,2.556-5.576,4.156-8.957,4.801
					c-3.407,0.619-6.918,0.336-10.274-0.465c-3.175-0.749-6.324-2.013-8.621-4.337c-1.859-1.91-2.994-4.337-3.562-6.97
					c0.955,1.265,2.272,2.323,3.64,3.124c4.311,2.504,9.654,3.149,14.378,1.652c4.724-1.497,8.777-5.111,10.713-9.654
					c1.678-3.923,1.807-8.26,1.575-12.571c0.49,0.439,0.955,0.904,1.394,1.368c1.704,1.807,3.098,3.949,3.717,6.35
					C438.691,151.192,438.613,153.541,438.277,155.813z"/>
			</g>
			<path style="fill:#008E73;" d="M425.223,135.588c-3.909-0.642-7.982-0.255-11.7,1.11c2.353-0.175,4.694-0.014,7.028,0.331
				c-1.832,0.607-3.521,1.577-5.04,2.767c2.397-0.823,4.915-1.297,7.45-1.34c-0.058,1.508-0.233,2.971-0.551,4.447
				c0.81-1.362,1.64-2.715,2.45-4.077c1.195,1.863,1.976,3.91,2.277,6.103c0.201-1.817,0.227-3.657,0.074-5.478
				c1.643,1.391,2.99,3.123,3.995,5.028c-0.462-1.73-1.123-3.356-1.971-4.934c1.989,1.373,3.779,3.024,5.338,4.871
				C432.952,140.29,429.597,136.307,425.223,135.588z"/>
		</g>
		<g>
			<g>
				<path style="fill:#FFBE92;" d="M373.903,298.704c-2.527,0.373-5.053,0.663-7.58,1.035c-1.367-1.222-2.444-2.496-3.811-3.718
					c3.5-7.715,5.147-16.248,4.764-24.708c1.864,0.652,3.769,1.346,5.685,2.04c1.947,0.704,3.894,1.408,5.789,2.081
					C375.27,282.674,373.53,290.689,373.903,298.704z"/>
				<path style="fill:#B5795E;" d="M373.903,298.704c-2.527,0.373-5.053,0.663-7.58,1.035c0,0,4.774-13.182,6.638-26.386
					c1.947,0.704,3.894,1.408,5.789,2.081C375.27,282.674,373.53,290.689,373.903,298.704z"/>
			</g>
			<g>
				<path style="fill:#00AE92;" d="M350.482,273.623c-0.87-1.1-1.077-2.686-0.518-3.972s1.86-2.217,3.258-2.331
					c-1.023-1.276-1.058-3.189-0.32-4.648c0.738-1.459,2.371-2.417,4.005-2.349c-0.619-1.543-0.189-3.309,0.876-4.585
					c1.065-1.276,2.853-1.903,4.482-1.571c0.573-1.747,2.463-2.875,4.299-2.801c1.836,0.074,3.54,1.472,3.971,3.258
					c0.568-1.695,2.454-2.808,4.236-2.947c1.782-0.139,3.631,1.111,3.98,2.864c0.855-1.558,2.961-2.46,4.712-2.157
					c1.751,0.303,3.23,1.799,3.513,3.554c2.05-1.107,4.926-0.772,6.641,0.804c1.716,1.576,2.287,4.272,1.358,6.408
					c1.334,0.449,2.379,1.797,2.64,3.18c0.261,1.383-0.277,2.889-1.356,3.793c0.747,1.061,1.347,2.08,1.763,3.308
					c0.417,1.229,0.472,2.636-0.135,3.782c-0.608,1.146-1.98,1.925-3.234,1.592c-0.183,1.407-1.233,2.706-2.602,3.081
					c-1.368,0.375-2.938-0.145-3.812-1.263c-0.451,1.158-1.348,2.165-2.371,2.871c-1.022,0.707-2.337,1.026-3.544,0.728
					c-1.207-0.298-2.261-1.257-2.544-2.467c-1.055,1.264-2.834,1.994-4.44,1.631c-1.606-0.363-2.958-1.677-3.366-3.272
					c-0.681,1.331-2.879,2.327-4.353,2.077c-1.474-0.25-2.713-1.528-2.918-3.009c-0.977,0.603-2.075,1.243-3.199,1.474
					c-1.125,0.231-2.414,0.005-3.173-0.856c-0.673-0.765-0.805-1.851-0.906-2.864c-0.857,0.705-2.212,0.71-3.239,0.291
					c-1.027-0.419-1.788-1.429-1.907-2.532C351.443,274.851,351.01,274.291,350.482,273.623z"/>
				<g>
					<path style="fill:#008E73;" d="M371.658,259.424c-0.546-0.414-1.252-0.558-1.923-0.459c-0.311,0.046-0.614,0.146-0.888,0.302
						c-0.191,0.109-0.48,0.476-0.677,0.444c-0.164-0.027-0.34-0.16-0.501-0.212c-0.176-0.057-0.36-0.086-0.544-0.105
						c-0.372-0.037-0.76,0.013-1.11,0.145c-0.647,0.244-1.187,0.744-1.459,1.381c-0.109,0.256-0.076,0.552,0.185,0.705
						c0.217,0.127,0.595,0.073,0.705-0.185c0.207-0.484,0.57-0.857,1.092-0.986c0.283-0.07,0.582-0.054,0.858,0.038
						c0.329,0.11,0.59,0.304,0.953,0.266c0.551-0.057,0.861-0.615,1.395-0.75c0.498-0.126,0.991-0.002,1.395,0.305
						c0.222,0.168,0.577,0.035,0.705-0.185C371.998,259.865,371.88,259.593,371.658,259.424z"/>
					<g>
						<path style="fill:#008E73;" d="M386.436,262.556c-0.329-0.568-0.704-1.183-1.305-1.497c-0.632-0.33-1.419-0.329-1.962,0.169
							c-0.199,0.182-0.199,0.546,0,0.729c0.213,0.196,0.516,0.195,0.729,0c0.009-0.009,0.019-0.017,0.028-0.025
							c-0.004,0.003-0.02,0.016,0.002,0.001c0.01-0.006,0.019-0.012,0.029-0.017c0.013-0.007,0.064-0.029,0.059-0.028
							c0,0,0.002-0.001,0.002-0.001c0.027-0.009,0.054-0.016,0.081-0.022c0.006-0.001,0.012-0.002,0.018-0.002
							c-0.011,0-0.019,0-0.038,0c0.057,0,0.114-0.009,0.171-0.008c0.022,0,0.045,0.002,0.068,0.003
							c0.053,0.012,0.105,0.021,0.157,0.037c0.028,0.008,0.056,0.019,0.083,0.027c0.049,0.025,0.098,0.049,0.145,0.078
							c0.026,0.016,0.051,0.033,0.076,0.051c0.007,0.005,0.002,0,0.006,0.003c0.044,0.022,0.105,0.093,0.131,0.119
							c0.047,0.046,0.092,0.094,0.135,0.144c0.022,0.025,0.042,0.051,0.064,0.076c0.002,0.002,0,0,0.002,0.002
							c0.002,0.002,0.001,0.001,0.003,0.004c0.157,0.217,0.294,0.446,0.428,0.677c0.135,0.233,0.472,0.335,0.705,0.185
							C386.486,263.109,386.58,262.805,386.436,262.556z"/>
						<path style="fill:#008E73;" d="M384.114,261.862C384.164,261.861,384.145,261.858,384.114,261.862L384.114,261.862z"/>
					</g>
					<path style="fill:#008E73;" d="M381.442,258.085c-0.421-0.571-1.024-1.007-1.731-1.139c-0.736-0.137-1.514,0.008-2.13,0.441
						c-0.22,0.155-0.344,0.458-0.185,0.705c0.141,0.219,0.469,0.351,0.705,0.185c0.115-0.08,0.234-0.15,0.36-0.211
						c0.056-0.026,0.063-0.029,0.021-0.009c0.033-0.012,0.065-0.024,0.098-0.035c0.066-0.022,0.133-0.041,0.201-0.057
						c0.013-0.003,0.125-0.024,0.142-0.029c0.062-0.008,0.124-0.012,0.186-0.014c0.07-0.002,0.139-0.001,0.209,0.004
						c0.027,0.002,0.055,0.004,0.082,0.007c0.007,0.001,0.014,0.003,0.037,0.006c0.129,0.029,0.254,0.062,0.379,0.106
						c0.012,0.005,0.012,0.005,0.019,0.008c0.028,0.013,0.056,0.026,0.083,0.04c0.059,0.03,0.116,0.062,0.172,0.096
						c0.056,0.035,0.111,0.071,0.163,0.111c-0.073-0.055,0.072,0.065,0.086,0.077c0.048,0.045,0.095,0.091,0.139,0.14
						c0.012,0.014,0.129,0.161,0.074,0.087c0.16,0.216,0.454,0.347,0.705,0.185C381.472,258.651,381.613,258.316,381.442,258.085z"
						/>
					<path style="fill:#008E73;" d="M381.736,267.326c-0.153-0.262-0.45-0.299-0.705-0.185c-0.56,0.25-1.205,0.253-1.788,0.043
						c-0.485-0.175-0.936-0.566-1.21-1.023c-0.143-0.238-0.463-0.326-0.705-0.185c-0.239,0.14-0.328,0.465-0.185,0.705
						c0.418,0.698,1.061,1.221,1.826,1.497c0.845,0.305,1.772,0.215,2.582-0.147C381.805,267.917,381.866,267.547,381.736,267.326z"
						/>
					<path style="fill:#008E73;" d="M384.647,274.496c-0.803,0.529-2.143,1.41-3.005,0.5c-0.237-0.25-0.635-0.167-0.809,0.104
						c-0.538,0.835-1.602,1.046-2.442,0.537c-0.569-0.345-1.087,0.546-0.52,0.89c1.16,0.703,2.587,0.477,3.488-0.451
						c0.454,0.27,1,0.372,1.531,0.312c0.85-0.095,1.578-0.542,2.277-1.003C385.719,275.023,385.203,274.13,384.647,274.496z"/>
					<g>
						<path style="fill:#008E73;" d="M390.773,270.175c-0.002,0.01-0.003,0.018-0.002,0.026c0-0.002,0.001-0.004,0.001-0.006
							C390.773,270.189,390.772,270.184,390.773,270.175z"/>
						<path style="fill:#008E73;" d="M391.695,269.329c-0.193-0.523-0.565-0.977-1.071-1.226c-0.241-0.119-0.569-0.073-0.705,0.185
							c-0.123,0.233-0.073,0.578,0.185,0.705c0.085,0.042,0.162,0.093,0.241,0.145c0.013,0.011,0.026,0.022,0.038,0.033
							c0.038,0.034,0.075,0.071,0.11,0.109c0.016,0.017,0.03,0.034,0.046,0.051c0.002,0.002,0,0,0.001,0.001
							c0.022,0.035,0.049,0.068,0.07,0.103c0.024,0.039,0.047,0.079,0.067,0.12c0.008,0.016,0.016,0.032,0.023,0.048
							c0,0.001,0,0,0,0.002c0.016,0.046,0.031,0.092,0.044,0.139c0.004,0.014,0.012,0.072,0.022,0.111
							c0-0.019,0.003-0.025,0.008,0.029c0.001,0.001,0.002,0.009,0.003,0.009c-0.001,0-0.001-0.003-0.002-0.004
							c0.002,0.025,0.004,0.051,0.005,0.076c0.002,0.051,0.002,0.102-0.001,0.153c-0.001,0.009-0.004,0.035-0.007,0.059
							c0.005-0.021,0.011-0.035,0.001,0.013c0,0.002-0.001,0.005-0.001,0.007c0,0.005-0.001,0.015,0,0.016
							c-0.001-0.002-0.001-0.007-0.001-0.01c-0.009,0.046-0.018,0.091-0.031,0.136c-0.014,0.051-0.032,0.099-0.049,0.149
							c-0.015,0.027-0.028,0.055-0.042,0.082c-0.127,0.237-0.067,0.572,0.185,0.705c0.239,0.126,0.569,0.069,0.705-0.185
							C391.823,270.558,391.906,269.901,391.695,269.329z"/>
						<path style="fill:#008E73;" d="M390.776,269.882c-0.003-0.004-0.005-0.018-0.008-0.029c0,0.013,0.003,0.028,0.009,0.034
							c0,0,0,0,0,0C390.776,269.884,390.776,269.884,390.776,269.882z"/>
					</g>
					<path style="fill:#008E73;" d="M369.962,268.711c-0.151,0.015-0.299,0.013-0.45,0.002c-0.011-0.001-0.008,0-0.014,0
						c-0.005-0.001-0.003-0.001-0.012-0.003c-0.033-0.007-0.067-0.012-0.1-0.019c-0.074-0.016-0.146-0.035-0.218-0.058
						c-0.033-0.01-0.065-0.022-0.097-0.033c-0.009-0.003-0.009-0.003-0.016-0.005c-0.066-0.018-0.137-0.065-0.195-0.097
						c-0.066-0.037-0.129-0.077-0.191-0.12c-0.012-0.008-0.101-0.079-0.046-0.033c0.053,0.045-0.047-0.042-0.058-0.051
						c-0.055-0.049-0.107-0.101-0.157-0.155c-0.023-0.025-0.044-0.05-0.066-0.076c-0.013-0.015-0.026-0.031-0.038-0.047
						c0.011,0.013,0.021,0.027,0.032,0.04c-0.046-0.023-0.096-0.141-0.122-0.184c-0.038-0.063-0.072-0.128-0.104-0.195
						c-0.004-0.009-0.023-0.056-0.029-0.067c-0.005-0.014-0.01-0.028-0.011-0.032c-0.027-0.076-0.05-0.153-0.068-0.231
						c-0.014-0.059-0.034-0.127-0.037-0.188c0-0.013-0.001-0.025-0.001-0.031c-0.003-0.04-0.005-0.08-0.006-0.12
						c-0.008-0.269-0.231-0.528-0.515-0.515c-0.273,0.012-0.524,0.227-0.515,0.515c0.022,0.754,0.341,1.506,0.907,2.014
						c0.572,0.513,1.356,0.794,2.126,0.719c0.267-0.026,0.529-0.218,0.515-0.515C370.466,268.969,370.249,268.682,369.962,268.711z"
						/>
					<path style="fill:#008E73;" d="M362.451,271.931c-0.852,0.235-1.735-0.218-2.006-1.068c-0.085-0.268-0.355-0.433-0.634-0.36
						c-1.028,0.269-1.89-0.581-1.779-1.598c0.03-0.277-0.258-0.515-0.515-0.515c-0.304,0-0.485,0.237-0.515,0.515
						c-0.082,0.758,0.226,1.565,0.802,2.067c0.508,0.443,1.169,0.637,1.828,0.587c0.572,1.113,1.839,1.711,3.093,1.366
						C363.364,272.749,363.093,271.755,362.451,271.931z"/>
				</g>
			</g>
		</g>
		<g>
			<path style="fill:#008E73;" d="M434.67,87.334c1.471-2.828,1.78-6.24,0.84-9.286c-0.038-0.121-0.08-0.247-0.171-0.336
				c-0.091-0.089-0.246-0.126-0.346-0.047c-0.094,0.073-0.104,0.208-0.106,0.327c-0.046,2.203-0.093,4.406-0.139,6.608
				c-0.448-2.655-1.032-5.323-1.956-7.852c-0.126-0.345-0.272-0.703-0.557-0.935c-0.285-0.232-0.751-0.284-1-0.013
				c-0.241,0.262-0.178,0.672-0.098,1.019c0.614,2.65,1.352,5.272,2.21,7.853c-1.073-2.608-2.511-5.108-4.172-7.387
				c-0.255-0.35-0.641-0.738-1.051-0.598c-0.419,0.143-0.478,0.712-0.396,1.147c0.515,2.733,3.417,4.479,4.107,7.172
				c-0.601-0.962-1.283-1.869-2.113-2.643c-0.101-0.094-0.235-0.194-0.365-0.147c-0.144,0.052-0.173,0.243-0.159,0.396
				c0.06,0.663,0.454,1.252,0.91,1.737c0.456,0.485,0.986,0.9,1.415,1.41c0.423,0.502,0.748,1.095,1.259,1.508
				C433.291,87.678,434.367,87.916,434.67,87.334z"/>
			<path style="fill:#EA7C32;" d="M435.111,97.313c1.496-2.13,3.065-4.53,2.736-7.112c-0.237-1.862-1.545-3.549-3.29-4.242
				c-2.647-1.052-5.763,0.243-7.675,2.355c-1.911,2.113-2.883,4.887-3.809,7.581c-0.882,2.568-1.764,5.135-2.647,7.703
				c-1.431,4.165-2.866,8.346-3.733,12.664c-0.124,0.618-0.236,1.258-0.097,1.873c0.139,0.615,0.591,1.201,1.213,1.304
				c1.512,0.251,2.308-1.955,3.234-2.778c1.236-1.098,2.102-2.322,3.057-3.68c2.346-3.339,4.692-6.677,7.038-10.015
				C432.463,101.082,433.787,99.198,435.111,97.313z"/>
		</g>
		<g>
			<g>
				<path style="fill:#FF4D4D;" d="M460.07,288.221c0.334,2.322,1.136,4.644,2.706,6.382c1.504,1.654,3.609,2.69,5.797,3.107
					c2.205,0.401,4.477,0.217,6.649-0.301c2.055-0.484,4.093-1.303,5.58-2.807c1.203-1.236,1.938-2.807,2.305-4.511
					c0.317-1.403,0.401-2.907,0.317-4.36c-0.117-2.122-0.535-4.277-1.637-6.098c-0.802-1.353-1.988-2.456-3.341-3.224
					c-4.761-2.74-10.992-1.169-14.952,2.389c-0.317,0.284-0.618,0.585-0.902,0.885c-1.103,1.17-2.005,2.556-2.406,4.11
					C459.802,285.231,459.853,286.751,460.07,288.221z"/>
				<path style="fill:#D32626;" d="M460.07,288.221c0.334,2.322,1.136,4.644,2.706,6.382c1.504,1.654,3.609,2.69,5.797,3.107
					c2.205,0.401,4.477,0.217,6.649-0.301c2.055-0.484,4.093-1.303,5.58-2.807c1.203-1.236,1.938-2.807,2.305-4.511
					c-0.618,0.819-1.47,1.504-2.355,2.021c-2.79,1.62-6.248,2.038-9.305,1.069c-3.057-0.969-5.68-3.308-6.933-6.248
					c-1.086-2.539-1.169-5.346-1.019-8.136c-0.317,0.284-0.618,0.585-0.902,0.885c-1.103,1.17-2.005,2.556-2.406,4.11
					C459.802,285.231,459.853,286.751,460.07,288.221z"/>
			</g>
			<path style="fill:#008E73;" d="M468.519,275.132c2.53-0.415,5.166-0.165,7.572,0.719c-1.523-0.113-3.038-0.009-4.548,0.214
				c1.186,0.393,2.279,1.021,3.262,1.791c-1.552-0.533-3.181-0.84-4.821-0.867c0.037,0.976,0.151,1.923,0.356,2.878
				c-0.524-0.881-1.061-1.757-1.585-2.639c-0.774,1.206-1.279,2.531-1.474,3.95c-0.13-1.176-0.147-2.366-0.048-3.545
				c-1.064,0.9-1.935,2.021-2.585,3.254c0.299-1.12,0.727-2.172,1.275-3.193c-1.287,0.889-2.446,1.957-3.455,3.152
				C463.517,278.175,465.688,275.597,468.519,275.132z"/>
		</g>
		<g>
			<g>
				<path style="fill:#FFBE92;" d="M465.669,139.413c1.653,0.244,3.307,0.434,4.96,0.678c0.895-0.8,1.599-1.633,2.494-2.433
					c-2.29-5.048-3.368-10.632-3.117-16.168c-1.22,0.427-2.467,0.881-3.72,1.335c-1.274,0.461-2.548,0.922-3.788,1.362
					C464.775,128.923,465.913,134.168,465.669,139.413z"/>
				<path style="fill:#B5795E;" d="M465.669,139.413c1.653,0.244,3.307,0.434,4.96,0.678c0,0-3.124-8.626-4.344-17.266
					c-1.274,0.461-2.548,0.922-3.788,1.362C464.775,128.923,465.913,134.168,465.669,139.413z"/>
			</g>
			<g>
				<path style="fill:#00AE92;" d="M480.995,123.001c0.569-0.719,0.705-1.758,0.339-2.599c-0.366-0.842-1.217-1.451-2.132-1.525
					c0.669-0.835,0.692-2.087,0.209-3.042c-0.483-0.955-1.552-1.581-2.621-1.537c0.405-1.009,0.124-2.165-0.573-3.001
					c-0.697-0.835-1.867-1.245-2.933-1.028c-0.375-1.143-1.612-1.881-2.813-1.833c-1.202,0.048-2.317,0.963-2.599,2.132
					c-0.372-1.109-1.606-1.838-2.772-1.929c-1.166-0.091-2.376,0.727-2.604,1.874c-0.56-1.019-1.938-1.609-3.084-1.411
					c-1.146,0.198-2.114,1.177-2.299,2.326c-1.341-0.724-3.223-0.505-4.346,0.526c-1.122,1.031-1.496,2.796-0.888,4.193
					c-0.873,0.294-1.557,1.176-1.728,2.081c-0.171,0.905,0.181,1.89,0.887,2.482c-0.489,0.694-0.881,1.361-1.154,2.165
					c-0.273,0.804-0.309,1.725,0.089,2.474c0.397,0.75,1.296,1.259,2.116,1.042c0.12,0.921,0.807,1.771,1.703,2.016
					c0.895,0.245,1.922-0.095,2.494-0.826c0.295,0.758,0.882,1.417,1.551,1.879c0.669,0.462,1.529,0.671,2.319,0.477
					c0.789-0.195,1.479-0.822,1.665-1.614c0.69,0.827,1.855,1.305,2.905,1.067c1.051-0.238,1.935-1.098,2.202-2.141
					c0.446,0.871,1.884,1.523,2.848,1.359c0.964-0.164,1.775-1,1.909-1.969c0.639,0.395,1.358,0.814,2.094,0.965
					c0.736,0.151,1.58,0.004,2.077-0.56c0.441-0.5,0.527-1.211,0.593-1.874c0.561,0.461,1.448,0.464,2.12,0.19
					c0.672-0.274,1.17-0.935,1.248-1.657C480.366,123.804,480.649,123.438,480.995,123.001z"/>
				<g>
					<path style="fill:#008E73;" d="M467.138,113.709c0.357-0.271,0.819-0.365,1.258-0.301c0.204,0.03,0.402,0.096,0.581,0.198
						c0.125,0.072,0.314,0.311,0.443,0.29c0.107-0.017,0.223-0.105,0.328-0.139c0.115-0.037,0.236-0.056,0.356-0.068
						c0.243-0.024,0.497,0.008,0.726,0.095c0.423,0.16,0.777,0.487,0.955,0.904c0.072,0.167,0.05,0.361-0.121,0.461
						c-0.142,0.083-0.389,0.047-0.461-0.121c-0.135-0.317-0.373-0.561-0.714-0.645c-0.185-0.046-0.381-0.035-0.561,0.025
						c-0.215,0.072-0.386,0.199-0.624,0.174c-0.361-0.037-0.563-0.403-0.913-0.491c-0.326-0.083-0.648-0.001-0.913,0.2
						c-0.145,0.11-0.377,0.023-0.461-0.121C466.916,113.998,466.993,113.82,467.138,113.709z"/>
					<g>
						<path style="fill:#008E73;" d="M457.468,115.758c0.215-0.371,0.461-0.774,0.854-0.98c0.413-0.216,0.928-0.215,1.284,0.111
							c0.13,0.12,0.13,0.357,0,0.477c-0.139,0.128-0.338,0.127-0.477,0c-0.006-0.006-0.012-0.011-0.018-0.016
							c0.003,0.002,0.013,0.011-0.001,0.001c-0.006-0.004-0.013-0.007-0.019-0.011c-0.009-0.005-0.042-0.019-0.038-0.019
							c0,0-0.001,0-0.001-0.001c-0.017-0.006-0.035-0.01-0.053-0.014c-0.004-0.001-0.008-0.001-0.012-0.002c0.007,0,0.012,0,0.025,0
							c-0.037,0-0.075-0.006-0.112-0.005c-0.015,0-0.03,0.001-0.044,0.002c-0.035,0.007-0.069,0.014-0.103,0.024
							c-0.018,0.006-0.036,0.012-0.055,0.018c-0.032,0.017-0.064,0.032-0.095,0.051c-0.017,0.01-0.033,0.022-0.05,0.033
							c-0.004,0.003-0.001,0-0.004,0.002c-0.028,0.014-0.068,0.061-0.086,0.078c-0.031,0.03-0.06,0.062-0.088,0.094
							c-0.014,0.016-0.027,0.033-0.042,0.05c-0.001,0.002,0,0-0.001,0.001c-0.001,0.002,0,0.001-0.002,0.003
							c-0.103,0.142-0.192,0.292-0.28,0.443c-0.088,0.153-0.309,0.219-0.461,0.121C457.435,116.12,457.373,115.922,457.468,115.758z
							"/>
						<path style="fill:#008E73;" d="M458.987,115.304C458.954,115.303,458.967,115.302,458.987,115.304L458.987,115.304z"/>
					</g>
					<path style="fill:#008E73;" d="M460.735,112.832c0.275-0.373,0.67-0.659,1.133-0.745c0.481-0.089,0.991,0.005,1.394,0.289
						c0.144,0.101,0.225,0.299,0.121,0.461c-0.092,0.143-0.307,0.229-0.461,0.121c-0.075-0.053-0.153-0.098-0.236-0.138
						c-0.037-0.017-0.042-0.019-0.014-0.006c-0.021-0.008-0.043-0.016-0.064-0.023c-0.043-0.014-0.087-0.027-0.131-0.037
						c-0.009-0.002-0.082-0.016-0.093-0.019c-0.04-0.005-0.081-0.008-0.122-0.009c-0.046-0.001-0.091,0-0.137,0.003
						c-0.018,0.001-0.036,0.003-0.054,0.005c-0.004,0.001-0.009,0.002-0.024,0.004c-0.085,0.019-0.166,0.041-0.248,0.069
						c-0.008,0.003-0.008,0.003-0.013,0.005c-0.018,0.008-0.036,0.017-0.054,0.026c-0.038,0.019-0.076,0.04-0.112,0.063
						c-0.037,0.022-0.073,0.046-0.107,0.072c0.048-0.036-0.047,0.042-0.056,0.05c-0.032,0.029-0.062,0.06-0.091,0.092
						c-0.008,0.009-0.084,0.105-0.049,0.057c-0.104,0.142-0.297,0.227-0.461,0.121C460.716,113.203,460.623,112.984,460.735,112.832
						z"/>
					<path style="fill:#008E73;" d="M460.543,118.88c0.1-0.171,0.294-0.195,0.461-0.121c0.367,0.164,0.788,0.166,1.17,0.028
						c0.317-0.114,0.612-0.37,0.792-0.67c0.094-0.156,0.303-0.214,0.461-0.121c0.156,0.091,0.215,0.304,0.121,0.461
						c-0.274,0.457-0.695,0.799-1.195,0.979c-0.553,0.2-1.16,0.141-1.69-0.096C460.498,119.267,460.458,119.025,460.543,118.88z"/>
					<path style="fill:#008E73;" d="M458.638,123.572c0.526,0.346,1.402,0.923,1.966,0.327c0.155-0.164,0.416-0.109,0.53,0.068
						c0.352,0.547,1.048,0.685,1.598,0.352c0.372-0.226,0.711,0.357,0.34,0.582c-0.759,0.46-1.693,0.312-2.283-0.295
						c-0.297,0.177-0.654,0.243-1.002,0.204c-0.556-0.062-1.032-0.355-1.49-0.656C457.937,123.917,458.274,123.332,458.638,123.572z
						"/>
					<g>
						<path style="fill:#008E73;" d="M454.629,120.744c0.001,0.006,0.002,0.012,0.001,0.017c0-0.001-0.001-0.003-0.001-0.004
							C454.63,120.753,454.63,120.75,454.629,120.744z"/>
						<path style="fill:#008E73;" d="M454.026,120.19c0.126-0.342,0.37-0.639,0.701-0.802c0.158-0.078,0.372-0.048,0.461,0.121
							c0.08,0.152,0.048,0.378-0.121,0.461c-0.056,0.028-0.106,0.061-0.158,0.094c-0.008,0.007-0.017,0.014-0.025,0.021
							c-0.025,0.023-0.049,0.046-0.072,0.071c-0.01,0.011-0.02,0.022-0.03,0.034c-0.001,0.001,0,0-0.001,0.001
							c-0.014,0.023-0.032,0.045-0.046,0.067c-0.016,0.025-0.03,0.052-0.044,0.078c-0.005,0.01-0.01,0.021-0.015,0.032
							c0,0.001,0,0,0,0.001c-0.01,0.03-0.02,0.06-0.029,0.09c-0.003,0.009-0.008,0.047-0.014,0.073c0-0.012-0.002-0.016-0.005,0.019
							c-0.001,0.001-0.001,0.006-0.002,0.006c0.001,0,0.001-0.002,0.001-0.003c-0.001,0.017-0.003,0.033-0.003,0.05
							c-0.001,0.033-0.001,0.067,0.001,0.1c0,0.006,0.003,0.023,0.004,0.039c-0.003-0.014-0.007-0.023-0.001,0.008
							c0,0.002,0.001,0.003,0.001,0.005c0,0.003,0.001,0.01,0,0.011c0.001-0.001,0-0.004,0.001-0.007
							c0.006,0.03,0.012,0.06,0.02,0.089c0.009,0.033,0.021,0.065,0.032,0.097c0.01,0.017,0.018,0.036,0.028,0.054
							c0.083,0.155,0.044,0.374-0.121,0.461c-0.157,0.083-0.372,0.045-0.461-0.121C453.942,120.995,453.888,120.565,454.026,120.19z
							"/>
						<path style="fill:#008E73;" d="M454.628,120.552c0.002-0.003,0.003-0.012,0.005-0.019c0,0.009-0.002,0.018-0.006,0.022l0,0
							C454.628,120.554,454.628,120.554,454.628,120.552z"/>
					</g>
					<path style="fill:#008E73;" d="M468.248,119.786c0.099,0.01,0.196,0.009,0.294,0.001c0.007-0.001,0.006,0,0.009,0
						c0.004-0.001,0.002-0.001,0.008-0.002c0.022-0.004,0.044-0.008,0.066-0.013c0.048-0.01,0.096-0.023,0.142-0.038
						c0.021-0.007,0.042-0.014,0.064-0.022c0.006-0.002,0.006-0.002,0.011-0.003c0.043-0.012,0.09-0.042,0.128-0.064
						c0.043-0.024,0.085-0.05,0.125-0.078c0.008-0.005,0.066-0.052,0.03-0.022c-0.035,0.029,0.031-0.027,0.038-0.034
						c0.036-0.032,0.07-0.066,0.102-0.102c0.015-0.016,0.029-0.033,0.043-0.049c0.009-0.01,0.017-0.02,0.025-0.031
						c-0.007,0.009-0.014,0.018-0.021,0.026c0.03-0.015,0.063-0.092,0.08-0.12c0.025-0.041,0.047-0.084,0.068-0.127
						c0.003-0.006,0.015-0.037,0.019-0.044c0.003-0.009,0.006-0.018,0.007-0.021c0.018-0.05,0.032-0.1,0.045-0.151
						c0.009-0.039,0.022-0.083,0.024-0.123c0-0.008,0-0.016,0.001-0.02c0.002-0.026,0.003-0.053,0.004-0.079
						c0.005-0.176,0.151-0.345,0.337-0.337c0.178,0.008,0.343,0.148,0.337,0.337c-0.014,0.493-0.224,0.986-0.594,1.318
						c-0.375,0.336-0.887,0.52-1.391,0.471c-0.175-0.017-0.346-0.143-0.337-0.337C467.918,119.955,468.06,119.768,468.248,119.786z"
						/>
					<path style="fill:#008E73;" d="M473.162,121.894c0.558,0.153,1.135-0.143,1.313-0.699c0.056-0.175,0.232-0.283,0.415-0.236
						c0.673,0.176,1.237-0.38,1.164-1.046c-0.02-0.181,0.169-0.337,0.337-0.337c0.199,0,0.318,0.155,0.337,0.337
						c0.054,0.496-0.148,1.024-0.524,1.353c-0.332,0.29-0.765,0.417-1.197,0.384c-0.374,0.728-1.203,1.12-2.024,0.894
						C472.565,122.429,472.743,121.778,473.162,121.894z"/>
				</g>
			</g>
		</g>
	</g>
	<g>
		<g>
			<g>
				<path style="fill:#38261E;" d="M270.276,133.997c5.64-3.582,12.336-5.34,19.014-5.543c6.819-0.207,13.77,1.212,19.653,4.667
					c5.883,3.455,10.619,9.037,12.46,15.606c1.841,6.57,0.57,14.073-3.817,19.298c-4.232,5.04-10.836,7.568-17.368,8.369
					c-11.311,1.388-23.313-2.121-31.507-10.041c-4.335-4.19-9.203-10.259-9.633-16.497
					C258.562,142.386,264.588,137.608,270.276,133.997z"/>
				<path style="fill:#EA7C32;" d="M289.468,158.134c-0.367-3.332-1.572-6.679-3.964-9.029c-2.816-2.766-6.962-3.829-10.908-3.711
					c-3.946,0.118-7.774,1.289-11.547,2.451l25.992,20.314C289.438,164.83,289.835,161.467,289.468,158.134z"/>
				<path style="fill:#38261E;" d="M294.665,175.196c-2.283-7.514-6.11-14.693-11.891-19.933c-6.12-5.548-14.171-8.652-22.338-9.529
					c-8.167-0.877-16.458,0.373-24.333,2.748c-7.298,2.2-14.41,5.428-20.208,10.433c-5.798,5.005-10.205,11.927-11.235,19.573
					c-1.029,7.646,1.676,15.947,7.678,20.687l52.74,24.42c11.061,1.891,22.435-5.178,27.717-15.216
					C298.078,198.34,297.966,186.062,294.665,175.196z"/>
			</g>
			<g>
				<g>
					<path style="fill:#E7AC8D;" d="M249.494,261.557c1.245-11.941,5.794-24.86,14.58-33.042c3.5-3.26,7.455-6.009,10.886-9.342
						c7.557-7.342,12.32-17.494,13.135-27.999c-26.904-30.474-52.227-34.03-76.173-14.14c-2.184,10.636-4.379,21.429-3.649,32.262
						c0.73,10.833,4.763,21.901,13.108,28.846c2.437,2.028,5.242,3.723,7.05,6.328c3.276,4.72,2.449,11.05,1.487,16.714
						c0,0-17.845,8.763-17.813,18.299c0.032,9.536,50.651,10.466,50.615-0.17C262.684,268.676,249.494,261.557,249.494,261.557z"/>
					<path style="fill:#B5795E;" d="M241.014,241.1c-4.085,1.946-8.975,1.981-13.087,0.09c-0.759-0.349-1.419,0.779-0.655,1.13
						c4.57,2.102,9.863,2.069,14.405-0.094C242.435,241.864,241.769,240.74,241.014,241.1z"/>
				</g>
				<g>
					<g>
						<path style="fill:#38261E;" d="M238.016,198.852c-0.277,2.377-1.48,4.189-2.688,4.048c-1.207-0.141-1.961-2.182-1.684-4.558
							c0.277-2.377,1.48-4.189,2.688-4.049C237.539,194.435,238.293,196.475,238.016,198.852z"/>
						<path style="fill:#FFFFFF;" d="M236.238,197.676c-0.098,0.842-0.524,1.484-0.952,1.434c-0.428-0.05-0.695-0.773-0.596-1.614
							c0.098-0.842,0.524-1.484,0.952-1.434C236.069,196.111,236.336,196.834,236.238,197.676z"/>
					</g>
					<g>
						<path style="fill:#38261E;" d="M221.034,196.28c-0.277,2.377-1.48,4.189-2.688,4.048c-1.207-0.141-1.961-2.182-1.684-4.558
							c0.277-2.377,1.48-4.189,2.688-4.048C220.557,191.862,221.311,193.903,221.034,196.28z"/>
						<path style="fill:#FFFFFF;" d="M219.255,195.103c-0.098,0.842-0.524,1.484-0.952,1.434c-0.427-0.05-0.695-0.773-0.596-1.614
							c0.098-0.842,0.524-1.484,0.952-1.434C219.086,193.539,219.354,194.261,219.255,195.103z"/>
					</g>
					<path style="fill:#B5795E;" d="M225.176,206.113c-0.777-0.22-1.65-0.344-2.453-0.211c-0.811,0.135-1.347,0.874-1.316,1.684
						c0.059,1.52,1.469,2.529,2.631,3.262c0.273,0.172,0.658,0.054,0.816-0.217c0.167-0.288,0.056-0.643-0.217-0.816
						c-0.227-0.143-0.453-0.289-0.673-0.444c-0.14-0.099-0.176-0.126-0.275-0.206c-0.095-0.077-0.189-0.158-0.279-0.242
						c-0.104-0.097-0.204-0.198-0.299-0.305c-0.035-0.039-0.068-0.08-0.101-0.121c-0.008-0.012-0.059-0.082-0.066-0.093
						c-0.168-0.245-0.27-0.438-0.33-0.711c-0.007-0.041-0.009-0.045-0.007-0.011c-0.005-0.045-0.008-0.091-0.009-0.137
						c0-0.022,0.013-0.126,0.01-0.131c0.01-0.042,0.02-0.084,0.033-0.125c-0.033,0.101,0.036-0.063,0.051-0.087
						c0.023-0.035,0.02-0.032-0.009,0.008c0.017-0.02,0.036-0.038,0.056-0.057c0.004,0,0.045-0.029,0.072-0.046
						c0.015-0.001,0.108-0.033,0.11-0.034c0.072-0.013,0.081-0.016,0.025-0.009c0.031-0.004,0.062-0.006,0.093-0.008
						c0.639-0.047,1.215,0.035,1.822,0.207c0.3,0.085,0.663-0.107,0.733-0.419C225.666,206.527,225.497,206.204,225.176,206.113z"/>
					<path style="fill:#38261E;" d="M232.839,188.872c0.952-0.376,1.804-0.561,2.739-0.684c0.92-0.111,1.863-0.105,2.794,0.049
						c0.932,0.139,1.842,0.489,2.651,0.971c0.834,0.462,1.487,1.154,2.082,1.847c0.235,0.274,0.204,0.687-0.07,0.922
						c-0.257,0.221-0.637,0.207-0.878-0.023l-0.057-0.055c-0.555-0.535-1.124-1.055-1.813-1.356
						c-0.671-0.322-1.39-0.538-2.142-0.583c-0.747-0.058-1.509-0.001-2.258,0.155c-0.731,0.152-1.524,0.414-2.123,0.714l-0.041,0.02
						c-0.535,0.269-1.187,0.052-1.456-0.483c-0.269-0.535-0.052-1.187,0.483-1.456C232.78,188.897,232.81,188.884,232.839,188.872z"
						/>
					<path style="fill:#38261E;" d="M222.517,190.062l-7.404-2.076c-0.35-0.098-0.553-0.461-0.455-0.81
						c0.091-0.324,0.409-0.523,0.733-0.472l7.599,1.174c0.611,0.094,1.03,0.666,0.935,1.277c-0.094,0.611-0.666,1.03-1.277,0.935
						C222.606,190.084,222.558,190.073,222.517,190.062z"/>
					<path style="fill:#E58F8F;" d="M238.07,206.574c-0.269-0.414-0.675-0.791-1.174-0.896c-0.855-0.179-1.709-0.359-2.564-0.538
						c-0.261-0.081-0.521-0.091-0.781-0.032c-0.261,0.013-0.503,0.091-0.727,0.235c-0.228,0.124-0.411,0.293-0.548,0.506
						c-0.173,0.19-0.289,0.412-0.348,0.667c-0.113,0.502-0.086,1.064,0.203,1.508c0.269,0.414,0.675,0.791,1.174,0.896
						c0.855,0.18,1.709,0.359,2.564,0.539c0.261,0.081,0.521,0.092,0.781,0.032c0.261-0.013,0.503-0.091,0.727-0.235
						c0.228-0.124,0.411-0.293,0.548-0.506c0.173-0.19,0.289-0.412,0.348-0.667C238.385,207.581,238.359,207.019,238.07,206.574z"/>
					<path style="fill:#E58F8F;" d="M218.572,204.021c-0.277-0.427-0.671-0.764-1.173-0.896c-0.663-0.175-1.327-0.351-1.99-0.526
						c-0.261-0.081-0.521-0.092-0.781-0.032c-0.261,0.013-0.503,0.091-0.727,0.235c-0.228,0.124-0.41,0.293-0.548,0.506
						c-0.173,0.19-0.289,0.412-0.348,0.667l-0.068,0.521c0.002,0.354,0.092,0.683,0.271,0.988c0.277,0.427,0.671,0.763,1.174,0.896
						c0.663,0.175,1.327,0.351,1.99,0.526c0.261,0.081,0.521,0.092,0.781,0.032c0.261-0.013,0.503-0.091,0.727-0.235
						c0.228-0.124,0.41-0.293,0.548-0.506c0.173-0.19,0.289-0.412,0.348-0.667c0.023-0.174,0.046-0.347,0.068-0.521
						C218.841,204.655,218.75,204.326,218.572,204.021z"/>
					<g>
						<path style="fill:#B5795E;" d="M232.271,217.448c-4.08-1.456-8.468-1.92-12.761-1.342c-0.663,0.089-0.668,1.144,0.003,1.054
							c4.213-0.567,8.477-0.123,12.481,1.306C232.634,218.693,232.905,217.674,232.271,217.448z"/>
						<path style="fill:#B5795E;" d="M227.19,219.182c-1.145-0.323-2.339-0.365-3.507-0.152c-0.272,0.05-0.449,0.396-0.366,0.649
							c0.095,0.292,0.358,0.419,0.649,0.366c0.949-0.173,1.99-0.116,2.946,0.154c0.265,0.075,0.585-0.094,0.647-0.37
							C227.623,219.548,227.474,219.263,227.19,219.182z"/>
					</g>
				</g>
			</g>
			<path style="fill:#38261E;" d="M274.502,207.36c-17.806-5.824-36.903-21.42-37.788-38.665
				c-6.931,8.362-17.172,13.441-27.993,14.369c-0.159-2.61,0.026-5.439,0.951-7.884c5.852-15.474,28.894-17.922,45.147-14.834
				c16.253,3.088,30.562,14.953,36.604,30.353c-1.213,7.037-4.367,13.887-8.746,19.528
				C280.221,209.303,276.995,208.176,274.502,207.36z"/>
			<path style="fill:#38261E;" d="M263.568,232.13c-0.605,0.33-1.246,0.659-1.936,0.661c-0.689,0.001-1.43-0.44-1.525-1.123
				c-0.077-0.556,0.275-1.071,0.61-1.522c1.082-1.458,2.164-2.916,3.246-4.374c0.938-1.264,1.9-2.552,3.191-3.452
				c1.555-1.084,3.487-1.523,5.383-1.567c0.877-0.021,5.227-0.169,5.265,1.142c0.028,0.962-3.511,3.152-4.259,3.729
				C270.398,228.05,267.059,230.229,263.568,232.13z"/>
			<g>
				<path style="fill:#E7AC8D;" d="M278.906,222.471c-5.73,3.334-12.257,2.802-14.578-1.187c-2.321-3.989,0.442-9.926,6.172-13.26
					c5.73-3.334,12.257-2.802,14.578,1.187C287.399,213.2,284.636,219.137,278.906,222.471z"/>
				<path style="fill:#B5795E;" d="M281.246,210.169c-4.005-0.994-8.548-0.106-11.672,2.667c-1.366,1.212-2.415,2.901-2.44,4.77
					c-0.022,1.702,0.779,3.4,2.294,4.243c0.672,0.374,1.271-0.659,0.599-1.033c-1.283-0.713-1.849-2.235-1.674-3.656
					c0.197-1.592,1.319-2.945,2.556-3.885c0.189-0.143,0.392-0.263,0.589-0.393c1.333,1.026,2.289,2.539,2.695,4.178
					c0.078,0.313,0.432,0.499,0.736,0.415c0.319-0.089,0.492-0.422,0.414-0.736c-0.436-1.757-1.437-3.291-2.785-4.476
					c2.557-1.303,5.591-1.633,8.373-0.942C281.678,211.506,281.992,210.354,281.246,210.169z"/>
			</g>
		</g>
		<g>
			<g>
				<path style="fill:#FF4D4D;" d="M290.935,445.74c-84.22,21.05-111.59-8.21-111.59-8.21c0.27-0.39,0.96-3.21,1.91-7.62
					c2.05-9.52,5.34-26.45,8.28-42.22c3.33-17.85,6.2-34.23,6.31-36.72v-0.01c0.02-0.43,0.04-0.84,0.06-1.24
					c0.01-0.23,0.02-0.47,0.03-0.7c0.04-0.93,0.07-1.79,0.1-2.55c-0.4-1.33-0.85-2.85-1.38-4.66c-7.3-25.25,6.16-50.27,6.16-50.27
					s0.07-23.62,3.06-26.34c3-2.71,26.04-4.01,26.04-4.01c3.78,26.11,17.46,3.97,19.36,0.75c0.14-0.25,0.22-0.39,0.22-0.39
					s13.31-0.3,23.23,1.62c3.83,0.75,7.15,1.83,9.01,3.39c0.36,0.3,0.66,0.61,0.9,0.95c2.45,3.4,2.09,25.61,5.46,61.45
					c0,0,0.58,6.08,0.58,6.09c0.52,5.53-6.45,21.69-11.05,34.52c-2.41,6.66-4.17,12.43-3.91,15.34c0.39,4.44,2.61,13.22,5.35,22.76
					C284.125,425.4,290.935,445.74,290.935,445.74z"/>
				<g>
					<path style="fill:#D32626;" d="M208.555,416.549c-2.24,1.43-5.13,1.42-7.71,0.77c1.33,0.73,2.44,1.74,3.05,3.12
						c0.61,1.38,0.61,3.05-0.15,4.36c-1.14,1.92-3.72,2.61-5.92,2.14c-1.98-0.42-3.71-1.58-5.31-2.84c1.27,1.18,1.51,3.24,0.74,4.87
						c-0.87,1.83-3.12,2.85-5.08,2.34c-1.95-0.5-3.42-2.44-3.42-4.47c-0.43,1.6-1.85,2.65-3.5,3.07c2.05-9.52,5.34-26.45,8.28-42.22
						c1.67-0.82,3.5-1.31,5.36-1.38c1.58-0.07,3.28,0.19,4.43,1.26c1.34,1.26,1.59,3.32,1.31,5.13c-0.42,2.79-1.9,5.38-4.04,7.18
						c1.65-1.15,3.53-2.09,5.45-2.42c2.41-0.4,5.27,0.85,5.78,3.24c0.38,1.79-0.7,3.66-2.2,4.74c-1.49,1.07-3.33,1.53-5.13,1.96
						c1.77-0.48,3.72-0.35,5.54-0.24c1.83,0.11,3.73,0.93,4.65,2.52C212.035,411.97,210.795,415.129,208.555,416.549z"/>
					<path style="fill:#D32626;" d="M279.065,407.669c-0.86,0.46-1.81,0.68-2.79,0.58c-2.45-0.24-4.44-2.58-4.23-5.03
						c-1.16,1.57-2.34,3.18-3.95,4.26c-1.62,1.08-3.78,1.57-5.54,0.73c-2.14-1.03-3.04-3.81-2.44-6.11c0.6-2.29,2.35-4.08,4.35-5.37
						c-2.36-0.22-4.79-0.46-6.82-1.68c-2.03-1.2-3.5-3.68-2.78-5.93c0.58-1.8,2.44-2.98,4.32-3.27c1.88-0.29,3.41,0.12,5.24,0.66
						c-2.3-1.55-4.33-3.75-4.95-6.45c-0.25-1.1-0.21-2.29,0.09-3.38c0.44-1.6,1.45-3,2.95-3.67c1.12-0.5,2.35-0.55,3.54-0.29
						c0.9,0.19,1.78,0.56,2.56,1.04c1.83,1.12,2.9,2.72,4.27,4.36c-0.31-1.66-0.61-3.37-0.26-5.02c0.34-1.67,1.49-3.26,3.13-3.64
						c0.63-0.14,1.27-0.09,1.87,0.11c-2.41,6.66-4.17,12.43-3.91,15.34C274.105,389.349,276.325,398.129,279.065,407.669z"/>
					<path style="fill:#D32626;" d="M212.332,334.293c-0.691-1.49-1.212-3.108-1.121-4.748c0.091-1.64,0.884-3.309,2.311-4.123
						c1.505-0.859,3.466-0.619,4.947,0.28c1.481,0.9,2.538,2.365,3.318,3.912c0.043-2.363,1.182-4.648,2.961-6.204
						c1.013-0.887,2.32-1.544,3.661-1.425c1.549,0.137,2.88,1.327,3.465,2.768c0.585,1.441,0.509,3.083,0.091,4.581
						c-0.419,1.498-1.159,2.883-1.893,4.254c1.688-0.458,3.429-0.582,5.178-0.56c1.749,0.021,3.568,0.588,4.732,1.894
						c1.164,1.306,1.471,3.434,0.404,4.82c-0.767,0.996-2.077,1.451-3.333,1.475c-1.257,0.024-2.487-0.325-3.695-0.671
						c1.636,2.007,1.984,4.987,1.524,7.535c-0.167,0.925-0.524,1.884-1.291,2.427c-0.745,0.527-1.738,0.561-2.634,0.388
						c-1.694-0.328-3.243-1.349-4.213-2.776c-0.97-1.427-1.348-3.243-1.03-4.939c-0.344,1.445-0.866,2.727-1.632,4
						c-0.766,1.273-1.925,2.366-3.354,2.775c-1.428,0.409-3.126,0.019-4.034-1.157c-0.7-0.906-0.856-2.141-0.671-3.272
						c0.185-1.13,0.674-2.185,1.162-3.221c-1.527,1.196-3.504,2.218-5.413,2.565c-1.909,0.348-4.19-0.519-4.76-2.374
						c-0.336-1.096-0.021-2.292,0.484-3.321C208.541,337.043,210.112,335.137,212.332,334.293z"/>
					<path style="fill:#D32626;" d="M249.99,425.761c1.356-0.135,2.707,0.844,3.102,2.149c0.396,1.304-0.126,2.805-1.177,3.673
						c-1.051,0.868-2.552,1.11-3.861,0.729c-1.309-0.381-2.413-1.34-3.085-2.526c-0.765,2.038-2.082,3.85-3.972,4.929
						c-1.246,0.711-2.708,1.135-4.124,0.9c-1.8-0.3-3.36-1.734-3.809-3.503c-0.449-1.769,0.239-3.773,1.679-4.895
						c-1.525,0.238-3.11,0.154-4.624-0.142c-1.514-0.296-2.998-1.237-3.504-2.695c-0.622-1.79,0.441-3.833,2.026-4.871
						c1.585-1.038,3.559-1.272,5.453-1.312c-0.738-1.809-0.886-3.905-0.286-5.764c0.6-1.859,2.263-3.443,4.213-3.557
						c2.037-0.119,3.9,1.351,4.866,3.148s1.215,3.881,1.448,5.908c1.334-1.219,2.835-2.426,4.517-3.085
						c1.682-0.659,3.732-0.662,5.165,0.44c1.81,1.393,2.066,4.207,0.988,6.22C253.929,423.52,252.172,425.086,249.99,425.761z"/>
					<path style="fill:#D32626;" d="M231.541,304.164c1.281,0.465,2.074,1.934,1.865,3.28c-0.208,1.347-1.329,2.474-2.652,2.801
						c-1.323,0.327-2.781-0.105-3.796-1.015c-1.015-0.91-1.595-2.254-1.686-3.613c-1.572,1.505-3.544,2.568-5.715,2.722
						c-1.431,0.101-2.933-0.15-4.107-0.975c-1.493-1.05-2.277-3.018-1.915-4.807c0.362-1.789,1.85-3.298,3.634-3.685
						c-1.477-0.446-2.869-1.208-4.106-2.131c-1.237-0.923-2.166-2.414-1.991-3.947c0.215-1.883,2.058-3.264,3.936-3.513
						c1.879-0.249,3.759,0.395,5.483,1.18c0.118-1.95,0.893-3.904,2.239-5.319c1.346-1.415,3.531-2.123,5.338-1.381
						c1.888,0.775,2.93,2.907,3.022,4.945c0.092,2.039-0.586,4.024-1.254,5.952c1.73-0.52,3.606-0.958,5.408-0.824
						s3.651,1.02,4.464,2.633c1.028,2.039,0.04,4.687-1.804,6.034C236.062,303.85,233.8,304.501,231.541,304.164z"/>
				</g>
			</g>
			<g>
				<path style="fill:#E7AC8D;" d="M254.782,274.154l17.81,56.326l8.142-64.614c0,0,12.327,7.88,16.28,20.203
					c3.953,12.323-6.472,85.671-22.879,85.726c-20.66,0.069-31.861-93.766-31.861-93.766L254.782,274.154z"/>
				<path style="fill:#E7AC8D;" d="M268.095,260.793c0,0-1.546-3.835-2.636-3.702c-1.09,0.133-15.545,1.93-16.113,3.513
					c-0.569,1.582,1.032,3.98,1.032,3.98s-12.8,8.752-6.232,17.522c6.568,8.77,28.779-4.39,29.462-8.789
					c0.683-4.4-1.885-18.038-4.269-17.579C266.955,256.195,268.095,260.793,268.095,260.793z"/>
			</g>
			<path style="fill:#E7AC8D;" d="M268.859,353.782l-73.012-2.827l-0.001,0.013c0.078-1.712,0.138-3.229,0.183-4.505
				c-0.396-1.319-0.846-2.843-1.37-4.654c-7.306-25.249,6.149-50.267,6.149-50.267s0.071-23.619,3.07-26.337
				c0,0-14.458,5.418-17.304,15.619c-12.882,46.178-5.505,84.131,4.62,91.25c11.712,8.235,81.922-4.689,81.922-4.689
				L268.859,353.782z"/>
		</g>
	</g>
</g>
</svg>
