<?xml version="1.0" encoding="utf-8"?>
<!-- Generator: Adobe Illustrator 27.5.0, SVG Export Plug-In . SVG Version: 6.00 Build 0)  -->
<svg version="1.1" xmlns="http://www.w3.org/2000/svg" xmlns:xlink="http://www.w3.org/1999/xlink" x="0px" y="0px"
	 viewBox="0 0 500 500" style="enable-background:new 0 0 500 500;" xml:space="preserve">
<g id="BACKGROUND">
	<rect x="1.286" style="fill:#FFFFFF;" width="500" height="500"/>
	<rect style="fill:#FFFFFF;" width="500" height="500"/>
</g>
<g id="OBJECTS">
	<g>
		<g>
			<g>
				<path style="fill:#F9BF2F;" d="M183.481,247.946c3.214-1.606,6.136-3.73,9.042-5.843c-5.357,1.913-10.606,4.123-15.732,6.588
					c0,0,3.628-6.483,4.75-9.434c-3.643,2.867-6.522,6.689-8.291,10.974c-1.964,1.569-3.851,3.234-5.659,4.981
					c2.328-3.982,3.808-8.458,4.285-13.046c-3.444,3.828-5.376,8.961-5.369,14.109c-0.493,0.495-0.985,0.991-1.466,1.498
					c-2.15,2.268-4.168,4.659-6.068,7.141c1.621-5.102,2.081-10.573,1.315-15.872c-2.88,5.464-3.889,11.879-2.876,17.971
					c-1.793,2.483-3.474,5.047-5.027,7.685c-0.559,0.95-1.097,1.911-1.625,2.878c1.229-5.933,1.001-12.164-0.708-17.978
					c-0.838,6.505-0.89,13.108-0.175,19.627c-1.762,3.37-3.342,6.834-4.747,10.369c0.037-5.011-0.71-10.027-2.222-14.805
					c-1.302,5.52-0.739,11.445,1.514,16.647c-0.412,1.09-0.814,2.184-1.194,3.285c-1.937,5.613-3.463,11.359-4.664,17.173
					c0.083-6.854-1.226-13.724-3.844-20.06c-0.335,0.474-0.468,1.057-0.578,1.627c-1.449,7.484-0.093,15.469,3.71,22.073
					c-0.202,1.104-0.395,2.211-0.574,3.319c-0.562,3.463-1.016,6.942-1.388,10.43c-1.016-8.033-4.999-15.669-11.039-21.066
					c2.994,7.799,6.644,15.345,10.885,22.542c-0.429,4.306-0.731,8.625-0.93,12.947c-0.047,1.034-0.089,2.068-0.126,3.102
					c-0.021,0.591,0.898,0.59,0.919,0c0.176-4.958,0.475-9.914,0.939-14.853c8.485-4.593,16.029-10.917,22.023-18.477
					c-9.185,2.286-17.287,8.56-21.861,16.839c0.281-2.758,0.611-5.512,1.009-8.256c0.285-1.964,0.604-3.924,0.956-5.879
					c7.075-4.451,13.064-10.616,17.285-17.83c-0.162-0.448-0.82-0.35-1.256-0.158c-6.735,2.98-12.311,8.463-15.482,15.104
					c1.02-5.128,2.288-10.205,3.865-15.191c0.582-1.839,1.207-3.665,1.874-5.474c0.002,0.004,0.003,0.008,0.005,0.012l-0.001-0.024
					c0.065-0.176,0.135-0.35,0.2-0.526c3.93-1.554,7.85-3.197,11.415-5.464c3.597-2.287,6.844-5.256,8.92-8.979
					c-7.813,2.834-14.849,7.761-20.209,14.112c1.493-3.952,3.193-7.824,5.13-11.58c6.402-1.367,12.932-3.59,17.347-8.405
					c-0.435-0.43-1.145-0.344-1.742-0.213c-5.391,1.183-10.489,3.643-14.795,7.095c0.201-0.375,0.397-0.753,0.603-1.126
					c1.884-3.405,3.968-6.701,6.242-9.86c5.225,0.291,10.529-1.008,15.008-3.715c0.578-0.349,1.184-1.165,0.652-1.581
					c-0.222-0.173-0.535-0.147-0.813-0.108c-5.132,0.709-10.106,2.539-14.474,5.325l-0.122-0.268
					c1.753-2.413,3.614-4.746,5.599-6.973c1.002-1.123,2.038-2.215,3.099-3.284c1.803,0.494,3.648,0.87,5.514,0.86
					c2.045-0.011,4.129-0.503,5.805-1.675c0.625-0.437,1.205-1.365,0.637-1.874c-0.286-0.256-0.718-0.231-1.1-0.188
					c-3.341,0.379-6.649,1.032-9.892,1.92c2.033-1.983,4.171-3.858,6.406-5.61C177.544,250.368,180.643,249.365,183.481,247.946z"/>
				<path style="fill:#F9BF2F;" d="M153.727,221.523c3.207-2.794,5.925-6.096,8.628-9.38c-5.571,3.782-10.931,7.873-16.074,12.219
					c0,0,2.233-8.506,2.643-12.222c-3.324,4.367-5.489,9.602-6.244,15.038c-1.786,2.381-3.454,4.849-5.007,7.388
					c1.486-5.255,1.854-10.823,1.038-16.223c-2.811,5.41-3.501,11.865-1.965,17.763c-0.419,0.713-0.835,1.428-1.235,2.151
					c-1.791,3.238-3.393,6.577-4.834,9.985c0.344-6.328-0.754-12.734-3.204-18.58c-1.679,7.117-0.931,14.768,2.038,21.449
					c-1.318,3.378-2.483,6.816-3.48,10.299c-0.359,1.254-0.69,2.516-1.008,3.781c-0.353-7.164-2.464-14.237-6.148-20.392
					c0.97,7.703,2.871,15.286,5.625,22.545c-1.018,4.385-1.802,8.824-2.362,13.292c-1.445-5.753-3.79-11.281-6.942-16.307
					c0.146,6.712,2.551,13.335,6.677,18.628c-0.149,1.371-0.285,2.744-0.393,4.119c-0.554,7.008-0.597,14.046-0.248,21.065
					c-1.94-7.879-5.479-15.364-10.36-21.847c-0.243,0.642-0.223,1.351-0.18,2.036c0.561,9.007,4.485,17.755,10.804,24.194
					c0.096,1.326,0.204,2.65,0.327,3.974c0.384,4.135,0.896,8.257,1.505,12.364c-3.549-8.904-10.38-16.473-18.905-20.865
					c5.746,8.049,12.169,15.613,19.166,22.602c0.787,5.062,1.723,10.101,2.778,15.113c0.252,1.199,0.512,2.396,0.777,3.592
					c0.151,0.684,1.204,0.41,1.053-0.273c-1.27-5.734-2.399-11.502-3.333-17.301c8.361-7.782,15.128-17.268,19.754-27.712
					c-9.848,5.346-17.27,14.941-20.054,25.787c-0.497-3.244-0.936-6.498-1.294-9.761c-0.256-2.336-0.473-4.677-0.649-7.021
					c6.787-7.201,11.821-16.043,14.517-25.564c-0.319-0.465-1.044-0.158-1.486,0.192c-6.834,5.414-11.596,13.353-13.259,21.905
					c-0.354-6.179-0.407-12.374-0.08-18.556c0.12-2.281,0.296-4.558,0.523-6.83c0.003,0.004,0.006,0.009,0.01,0.013l-0.008-0.027
					c0.022-0.221,0.05-0.441,0.073-0.663c4.042-2.947,8.047-5.994,11.46-9.65c3.443-3.689,6.283-8.055,7.557-12.938
					c-8.113,5.567-14.713,13.301-18.971,22.171c0.538-4.973,1.337-9.914,2.441-14.793c6.932-3.467,13.754-7.953,17.385-14.781
					c-0.626-0.363-1.414-0.054-2.06,0.273c-5.827,2.956-10.939,7.289-14.85,12.522c0.119-0.49,0.231-0.981,0.357-1.47
					c1.149-4.461,2.559-8.857,4.226-13.152c6.074-1.218,11.767-4.281,16.097-8.712c0.559-0.572,1.011-1.687,0.278-2.006
					c-0.306-0.133-0.656-0.01-0.964,0.117c-5.671,2.336-10.828,5.91-15.007,10.399l-0.22-0.271c1.293-3.285,2.733-6.512,4.347-9.653
					c0.814-1.585,1.678-3.144,2.576-4.684c2.213,0.031,4.438-0.086,6.575-0.651c2.34-0.619,4.583-1.802,6.156-3.642
					c0.587-0.686,0.976-1.922,0.174-2.337c-0.404-0.209-0.892-0.052-1.316,0.111c-3.716,1.426-7.313,3.156-10.767,5.136
					c1.742-2.877,3.635-5.659,5.676-8.331C147.641,226.061,150.895,223.991,153.727,221.523z"/>
				<path style="fill:#FF8C2D;" d="M83.807,232.224c-3.245-2.226-6.096-4.97-8.931-7.701c5.524,2.882,10.887,6.069,16.078,9.515
					c0,0-2.96-7.58-3.734-10.951c3.521,3.659,6.07,8.239,7.344,13.155c1.895,1.998,3.692,4.088,5.39,6.256
					c-1.926-4.671-2.859-9.75-2.686-14.8c3.16,4.672,4.484,10.532,3.701,16.116c0.461,0.611,0.92,1.223,1.365,1.846
					c1.991,2.784,3.821,5.682,5.508,8.661c-0.991-5.78-0.666-11.784,0.962-17.419c2.303,6.362,2.432,13.474,0.416,19.931
					c1.572,2.964,3.009,5.999,4.297,9.094c0.464,1.115,0.903,2.238,1.33,3.367c-0.44-6.622,0.745-13.348,3.474-19.398
					c-0.07,7.184-1.007,14.356-2.764,21.321c1.404,3.922,2.598,7.918,3.589,11.964c0.715-5.442,2.279-10.773,4.64-15.729
					c0.582,6.185-0.922,12.528-4.149,17.834c0.283,1.244,0.554,2.492,0.801,3.744c1.257,6.381,2.047,12.846,2.476,19.335
					c0.942-7.449,3.396-14.706,7.191-21.186c0.292,0.564,0.349,1.218,0.383,1.853c0.445,8.338-2.227,16.797-7.348,23.39
					c0.053,1.229,0.095,2.458,0.124,3.687c0.089,3.842,0.057,7.685-0.064,11.525c2.311-8.563,7.782-16.248,15.148-21.195
					c-4.423,8.011-9.518,15.648-15.203,22.819c-0.183,4.736-0.505,9.468-0.941,14.187c-0.104,1.129-0.215,2.257-0.331,3.384
					c-0.066,0.645-1.063,0.505-0.997-0.138c0.555-5.405,0.977-10.827,1.217-16.257c-8.515-6.26-15.747-14.257-21.113-23.362
					c9.621,3.863,17.467,11.889,21.184,21.561c0.111-3.035,0.167-6.072,0.148-9.109c-0.014-2.174-0.064-4.349-0.152-6.522
					c-7.006-5.894-12.576-13.484-16.07-21.947c0.244-0.461,0.943-0.256,1.386,0.018c6.859,4.247,12.083,11.035,14.524,18.717
					c-0.334-5.717-0.947-11.417-1.906-17.063c-0.354-2.083-0.758-4.158-1.21-6.221c-0.003,0.004-0.005,0.008-0.008,0.012
					l0.005-0.026c-0.044-0.201-0.093-0.4-0.138-0.601c-4.029-2.278-8.036-4.65-11.563-7.647c-3.558-3.023-6.635-6.733-8.327-11.085
					c8.051,4.251,14.942,10.655,19.802,18.353c-1.025-4.513-2.287-8.969-3.823-13.336c-6.741-2.447-13.49-5.842-17.556-11.73
					c0.537-0.401,1.294-0.201,1.922,0.031c5.671,2.095,10.832,5.531,14.985,9.924c-0.162-0.437-0.317-0.877-0.485-1.313
					c-1.532-3.978-3.297-7.868-5.288-11.637c-5.712-0.471-11.272-2.679-15.725-6.29c-0.575-0.466-1.109-1.442-0.47-1.814
					c0.266-0.155,0.602-0.079,0.899,0.005c5.461,1.542,10.582,4.276,14.902,7.956l0.173-0.272c-1.539-2.882-3.207-5.694-5.026-8.409
					c-0.918-1.37-1.878-2.711-2.868-4.03c-2.03,0.264-4.088,0.395-6.112,0.103c-2.217-0.319-4.404-1.167-6.046-2.691
					c-0.612-0.568-1.102-1.663-0.409-2.129c0.349-0.235,0.814-0.143,1.221-0.038c3.568,0.914,7.059,2.12,10.444,3.572
					c-1.908-2.458-3.944-4.814-6.105-7.051C89.885,235.745,86.673,234.19,83.807,232.224z"/>
				<path style="fill:#FF8C2D;" d="M155.219,253.348c2.355-2.281,4.313-4.932,6.26-7.57c-4.135,3.137-8.094,6.503-11.876,10.057
					c0,0,1.374-6.638,1.538-9.514c-2.381,3.496-3.835,7.613-4.195,11.827c-1.278,1.905-2.461,3.872-3.554,5.89
					c0.93-4.105,0.988-8.405,0.141-12.528c-1.944,4.278-2.213,9.274-0.791,13.751c-0.293,0.566-0.585,1.133-0.863,1.706
					c-1.247,2.564-2.345,5.199-3.315,7.881c0.008-4.885-1.097-9.771-3.22-14.17c-1.003,5.546-0.117,11.404,2.439,16.425
					c-0.877,2.653-1.634,5.346-2.26,8.068c-0.225,0.98-0.429,1.964-0.623,2.951c-0.562-5.499-2.474-10.858-5.559-15.446
					c1.059,5.889,2.83,11.649,5.245,17.124c-0.606,3.417-1.029,6.864-1.279,10.326c-1.346-4.37-3.375-8.529-6.005-12.269
					c0.385,5.16,2.505,10.16,5.895,14.066c-0.059,1.061-0.107,2.123-0.135,3.186c-0.142,5.416,0.111,10.835,0.664,16.223
					c-1.813-5.986-4.841-11.603-8.861-16.395c-0.161,0.504-0.116,1.049-0.056,1.575c0.798,6.91,4.172,13.484,9.297,18.183
					c0.128,1.016,0.265,2.032,0.413,3.045c0.463,3.167,1.025,6.319,1.66,9.455c-3.093-6.709-8.657-12.257-15.397-15.292
					c4.749,5.962,10,11.523,15.668,16.618c0.811,3.864,1.736,7.705,2.751,11.519c0.243,0.912,0.491,1.823,0.744,2.733
					c0.144,0.52,0.943,0.267,0.799-0.253c-1.21-4.362-2.313-8.755-3.268-13.18c6.119-6.329,10.943-13.905,14.079-22.131
					c-7.362,4.514-12.686,12.2-14.389,20.661c-0.514-2.477-0.984-4.963-1.392-7.46c-0.292-1.787-0.554-3.58-0.785-5.377
					c4.931-5.818,8.447-12.828,10.135-20.265c-0.264-0.345-0.81-0.079-1.136,0.208c-5.04,4.444-8.383,10.748-9.316,17.397
					c-0.523-4.741-0.815-9.507-0.815-14.278c0-1.76,0.043-3.52,0.126-5.278c0.003,0.003,0.005,0.006,0.008,0.009l-0.008-0.02
					c0.008-0.171,0.021-0.342,0.03-0.513c2.991-2.432,5.95-4.94,8.429-7.893c2.5-2.979,4.509-6.455,5.291-10.265
					c-6.018,4.614-10.784,10.835-13.701,17.834c0.212-3.849,0.627-7.685,1.279-11.485c5.194-2.949,10.263-6.679,12.781-12.082
					c-0.497-0.254-1.091,0.016-1.574,0.294c-4.365,2.511-8.124,6.054-10.921,10.24c0.072-0.382,0.138-0.765,0.215-1.146
					c0.703-3.48,1.61-6.921,2.719-10.294c4.625-1.184,8.883-3.773,12.036-7.359c0.407-0.463,0.71-1.339,0.133-1.555
					c-0.24-0.09-0.505,0.019-0.737,0.129c-4.27,2.028-8.094,4.988-11.128,8.613l-0.18-0.199c0.862-2.581,1.839-5.123,2.954-7.606
					c0.563-1.253,1.164-2.488,1.793-3.709c1.704-0.066,3.412-0.246,5.034-0.768c1.776-0.572,3.454-1.573,4.59-3.053
					c0.424-0.552,0.673-1.519,0.039-1.806c-0.319-0.144-0.688-0.004-1.008,0.139c-2.802,1.249-5.501,2.726-8.078,4.39
					c1.224-2.285,2.568-4.503,4.03-6.642C150.719,257.088,153.14,255.363,155.219,253.348z"/>
				<path style="fill:#F9BF2F;" d="M65.168,261.173c-3.089-1.373-5.926-3.246-8.747-5.109c5.117,1.571,10.144,3.426,15.067,5.525
					c0,0-3.685-5.94-4.865-8.667c3.546,2.541,6.415,6.011,8.259,9.964c1.913,1.391,3.757,2.876,5.531,4.442
					c-2.357-3.645-3.938-7.789-4.581-12.081c3.4,3.452,5.433,8.195,5.645,13.034c0.485,0.444,0.968,0.89,1.441,1.346
					c2.117,2.041,4.115,4.203,6.006,6.455c-1.741-4.727-2.404-9.85-1.909-14.864c2.939,5.014,4.16,11.001,3.466,16.77
					c1.791,2.258,3.479,4.597,5.051,7.01c0.566,0.869,1.113,1.75,1.65,2.636c-1.407-5.524-1.457-11.391-0.097-16.928
					c1.064,6.079,1.393,12.283,0.997,18.442c1.799,3.093,3.431,6.282,4.902,9.545c-0.247-4.708,0.242-9.456,1.461-14.01
					c1.458,5.133,1.179,10.726-0.718,15.712c0.433,1.007,0.858,2.018,1.262,3.037c2.059,5.194,3.737,10.531,5.113,15.945
					c-0.368-6.439,0.571-12.952,2.763-19.019c0.335,0.431,0.485,0.974,0.613,1.505c1.679,6.973,0.744,14.536-2.552,20.905
					c0.237,1.03,0.465,2.061,0.681,3.095c0.675,3.231,1.25,6.482,1.747,9.745c0.614-7.594,4.034-14.94,9.483-20.27
					c-2.484,7.458-5.595,14.705-9.275,21.651c0.586,4.029,1.053,8.076,1.423,12.13c0.088,0.97,0.171,1.94,0.25,2.91
					c0.045,0.555-0.819,0.593-0.863,0.039c-0.376-4.652-0.867-9.298-1.512-13.922c-8.171-3.957-15.529-9.582-21.484-16.434
					c8.731,1.759,16.612,7.313,21.263,14.901c-0.381-2.581-0.808-5.155-1.299-7.717c-0.351-1.835-0.734-3.663-1.148-5.485
					c-6.839-3.884-12.73-9.424-17.004-16.027c0.134-0.428,0.756-0.364,1.174-0.201c6.457,2.515,11.931,7.433,15.193,13.54
					c-1.176-4.777-2.584-9.495-4.277-14.115c-0.625-1.704-1.29-3.394-1.994-5.066c-0.002,0.004-0.003,0.008-0.005,0.012l0-0.022
					c-0.069-0.163-0.141-0.324-0.211-0.486c-3.759-1.294-7.514-2.672-10.962-4.652c-3.478-1.998-6.656-4.65-8.766-8.062
					c7.464,2.333,14.286,6.665,19.594,12.408c-1.571-3.652-3.333-7.219-5.313-10.667c-6.076-1.013-12.308-2.826-16.662-7.165
					c0.391-0.422,1.062-0.372,1.629-0.274c5.118,0.883,10.014,2.98,14.208,6.041c-0.205-0.344-0.405-0.691-0.615-1.033
					c-1.915-3.121-4.014-6.13-6.285-9.003c-4.899,0.495-9.94-0.501-14.265-2.855c-0.558-0.304-1.162-1.045-0.68-1.458
					c0.201-0.173,0.496-0.161,0.76-0.136c4.854,0.449,9.607,1.958,13.831,4.392l0.104-0.257c-1.75-2.194-3.598-4.308-5.559-6.317
					c-0.989-1.014-2.01-1.996-3.052-2.956c-1.674,0.541-3.392,0.972-5.147,1.042c-1.923,0.077-3.902-0.297-5.528-1.328
					c-0.606-0.384-1.191-1.232-0.678-1.734c0.258-0.253,0.665-0.248,1.026-0.223c3.157,0.215,6.293,0.688,9.38,1.385
					c-1.995-1.778-4.084-3.45-6.259-5.002C70.852,263.197,67.896,262.386,65.168,261.173z"/>
			</g>
			<g>
				<polygon style="fill:#FF8C2D;" points="156.906,355.664 92.039,355.664 98.791,413.255 150.153,413.255 				"/>
			</g>
			<rect x="85.463" y="343.736" style="fill:#F9BF2F;" width="78.018" height="11.928"/>
		</g>
		<g>
			<polyline style="fill:none;stroke:#FF8C2D;stroke-miterlimit:10;" points="174.376,97.878 150.11,80.275 125.841,97.878 			"/>
			<rect x="92.412" y="94.886" style="fill:#F9BF2F;" width="115.392" height="80.294"/>
			<rect x="98.936" y="100.488" style="fill:#FF8C2D;" width="102.349" height="69.09"/>
			<g>
				<g>
					<path style="fill:#FFFFFF;" d="M169.581,100.488l-47.321,69.09h-13.596c11.814-16.732,37.923-54.762,47.752-69.09H169.581z"/>
					<path style="fill:#FFFFFF;" d="M193.65,100.488l-47.33,69.09h-6.826c11.814-16.732,37.932-54.762,47.761-69.09H193.65z"/>
				</g>
			</g>
			<path style="fill:#F9BF2F;" d="M152.337,81.049c0,1.23-0.997,2.228-2.228,2.228c-1.23,0-2.228-0.997-2.228-2.228
				c0-1.23,0.997-2.228,2.228-2.228C151.339,78.822,152.337,79.819,152.337,81.049z"/>
		</g>
		<g>
			<g>
				<polyline style="fill:#F9BF2F;" points="279.658,339.334 273.492,350.673 279.658,350.673 285.02,340.609 				"/>
				<polyline style="fill:#F9BF2F;" points="410.478,339.334 416.644,350.673 410.478,350.673 405.116,340.609 				"/>
			</g>
			<rect x="253.981" y="360.655" style="fill:#FF8C2D;" width="182.175" height="52.601"/>
			<rect x="246.557" y="350.673" style="fill:#F9BF2F;" width="197.022" height="9.981"/>
			<rect x="262.302" y="370.058" style="fill:none;stroke:#F9BF2F;stroke-miterlimit:10;" width="165.533" height="33.794"/>
			<rect x="252.15" y="237.48" style="fill:#FF8C2D;" width="185.837" height="103.129"/>
			<rect x="255.837" y="240.684" style="fill:#F9BF2F;" width="178.462" height="96.72"/>
			<path style="fill:#F9BF2F;" d="M364.215,339.334h-38.294c-1.566,0-2.835,1.269-2.835,2.835l0,0c0,1.566,1.269,2.835,2.835,2.835
				h38.294c1.566,0,2.835-1.269,2.835-2.835l0,0C367.05,340.603,365.781,339.334,364.215,339.334z"/>
		</g>
		<g>
			<path style="fill:#8DAFDC;" d="M56.421,413.243c0,18.806,15.245,34.051,34.051,34.051h319.056
				c18.806,0,34.051-15.245,34.051-34.051H56.421z"/>
			<g>
				<g>
					<g>
						<g>
							<g>
								<path style="fill:#FFAA7D;" d="M241.069,279.293v25.511l-47.458,24.547l-27.027,13.982l-5.953,3.077l12.191,66.833h-29.976
									l-20.073-54.624l-3.335-9.058c-4.428-12.034-0.046-25.548,10.602-32.704l3.822-2.563l5.218-3.509l26.467-17.785
									l20.404-13.707H241.069z"/>
								<polygon style="fill:#3C3A5F;" points="193.611,329.351 166.584,343.333 139.079,310.785 165.546,292.999 								"/>
								<polygon style="fill:#EF487C;" points="185.95,279.294 151.112,297.417 183.479,336.889 247.735,304.807 247.735,279.294 
																	"/>
								<polygon style="fill:#DC3F76;" points="135.73,302.306 179.398,345.457 191.094,339.986 148.256,292.147 								"/>
							</g>
						</g>
						<g>
							<polygon style="fill:#3C3A5F;" points="176.34,432.563 124.932,432.563 136.801,426.371 145.923,421.612 142.846,413.243 
								172.822,413.243 							"/>
							<rect x="124.932" y="432.563" style="fill:#D7F2FC;" width="51.408" height="5.293"/>
							<polygon style="fill:#4367C7;" points="136.801,426.371 145.923,421.612 142.846,413.243 158.123,413.243 163.415,426.371 
															"/>
						</g>
						<path style="opacity:0.36;fill:#EF487C;" d="M145.831,334.9c0,12.88-10.261,23.371-23.058,23.72l-3.335-9.058
							c-4.428-12.034-0.046-25.548,10.602-32.704l3.822-2.563C141.018,318.373,145.831,326.071,145.831,334.9z"/>
					</g>
					<g>
						<g>
							<g>
								<path style="fill:#FFAA7D;" d="M249.681,279.293v25.511l47.458,24.547l27.027,13.982l5.953,3.077l-12.191,66.833h29.976
									l20.073-54.624l3.335-9.058c4.428-12.034,0.046-25.548-10.602-32.704l-3.822-2.563l-5.218-3.509l-26.467-17.785
									l-20.404-13.707H249.681z"/>
								<polygon style="fill:#3C3A5F;" points="297.14,329.351 324.167,343.333 351.672,310.785 325.205,292.999 								"/>
								<polygon style="fill:#EF487C;" points="304.801,279.294 339.639,297.417 307.272,336.889 243.016,304.807 243.016,279.294 
																	"/>
								<polygon style="fill:#DC3F76;" points="355.021,302.306 311.353,345.457 299.657,339.986 342.495,292.147 								"/>
							</g>
						</g>
						<g>
							<polygon style="fill:#3C3A5F;" points="314.411,432.563 365.819,432.563 353.95,426.371 344.828,421.612 347.905,413.243 
								317.929,413.243 							"/>
							
								<rect x="314.411" y="432.563" transform="matrix(-1 -1.224647e-16 1.224647e-16 -1 680.2299 870.4192)" style="fill:#D7F2FC;" width="51.408" height="5.293"/>
							<polygon style="fill:#4367C7;" points="353.95,426.371 344.828,421.612 347.905,413.243 332.628,413.243 327.336,426.371 
															"/>
						</g>
						<path style="opacity:0.36;fill:#EF487C;" d="M344.92,334.9c0,12.88,10.262,23.371,23.059,23.72l3.335-9.058
							c4.428-12.034,0.046-25.548-10.602-32.704l-3.822-2.563C349.733,318.373,344.92,326.071,344.92,334.9z"/>
					</g>
				</g>
				<polygon style="fill:#4367C7;" points="304.464,279.294 186.287,279.294 203.025,152.757 287.726,152.757 				"/>
				<path style="fill:#FFAA7D;" d="M272.228,152.757c-1.277,13.716-12.815,24.446-26.853,24.446s-25.576-10.73-26.853-24.446
					H272.228z"/>
				<g>
					<g>
						<path style="fill:#3C3A5F;" d="M209.45,101.175c2.856-0.898,5.329-0.393,7.379,0.726c4.729,2.58,6.881,8.235,5.442,13.426
							l-1.071,3.865C212.583,122.847,200.311,104.047,209.45,101.175z"/>
						<path style="fill:#3C3A5F;" d="M258.983,127.378l-30.341,1.894v17.209c9.962-1.836,20.019-3.699,30.067-5.637L258.983,127.378
							z"/>
						<path style="fill:#FFAA7D;" d="M228.642,146.482v11.549h29.717l0.35-17.187C248.661,142.783,238.605,144.646,228.642,146.482z
							"/>
						<path style="fill:#3C3A5F;" d="M214.638,104.852c0,0-7.18-31.861,8.243-34.279h9.573L214.638,104.852z"/>
						<path style="fill:#FFAA7D;" d="M228.81,71.71c0,0-20.053,22.299-16.741,49.686c0.873,7.215,6.342,13.041,13.484,14.382
							c6.458,1.213,15.458,1.878,26.016-0.131c6.841-1.302,12.013-6.943,12.809-13.862c1.368-11.88,2.53-31.713-1.599-50.076
							C262.781,71.71,244.038,69.151,228.81,71.71z"/>
						<path style="fill:#3C3A5F;" d="M263.779,110.187c0,0-18.011-15.225-10.433-39.336c0,0-31.77,6.352-35.578-2.85
							s7.933-11.424,13.645-6.346c0,0,0.241-9.837,7.26-8.885c7.019,0.952,12.096,10.789,12.096,10.789s9.008-4.178,16.187,3.267
							C271.881,71.934,271.712,99.063,263.779,110.187z"/>
						<path style="fill:#FFAA7D;" d="M271.971,101.175c-2.856-0.898-5.329-0.393-7.379,0.726c-4.729,2.58-6.881,8.235-5.442,13.426
							l1.071,3.865C268.838,122.847,281.11,104.047,271.971,101.175z"/>
						<g>
							<path style="fill:#EF487C;" d="M234.783,91.211c-0.13-1.636-2.419-1.898-2.915-0.333l-3.913,12.352
								c-0.496,1.566,0.673,3.162,2.315,3.162h3.088c1.417,0,2.533-1.208,2.421-2.62L234.783,91.211z"/>
							<g>
								<path style="fill:#3C3A5F;" d="M249.099,109.157c0,0-0.108,2.137-0.852,4.923c-1.381,5.223-4.958,12.75-14.107,12.918
									c-4.394,0.084-7.396-1.633-9.449-4.034c-4.514-5.259-4.454-13.807-4.454-13.807H249.099z"/>
								<path style="fill:#EF487C;" d="M248.246,114.079c-1.381,5.223-4.958,12.75-14.107,12.918
									c-4.394,0.084-7.396-1.633-9.449-4.034c0.132-0.18,0.264-0.36,0.396-0.54c2.365-3.086,5.655-5.379,9.185-6.988
									c3.193-1.453,6.699-2.389,10.193-2.149C245.749,113.371,247.034,113.647,248.246,114.079z"/>
							</g>
							<g>
								<ellipse style="fill:#3C3A5F;" cx="244.912" cy="101.482" rx="2.399" ry="3.369"/>
								<ellipse style="fill:#3C3A5F;" cx="224.423" cy="101.482" rx="2.399" ry="3.369"/>
							</g>
						</g>
					</g>
					<path style="fill:#3C3A5F;" d="M269.949,104.38c-3.298,1.155-6.148,3.27-8.219,6.082c-0.295,0.4,0.259,0.815,0.628,0.629
						c1.138-0.576,2.674,0.13,3.009,1.355c0.375,1.373-0.616,2.615-1.864,3.027c-0.559,0.185-0.319,1.072,0.244,0.886
						c1.76-0.581,3.092-2.398,2.463-4.297c-0.421-1.27-1.671-2.054-2.943-2.07c1.846-2.147,4.248-3.789,6.926-4.727
						C270.747,105.071,270.509,104.184,269.949,104.38z"/>
				</g>
				<g>
					<path style="fill:#FFAA7D;" d="M155.071,210.383l44.381,36.131l-3.096,13.936c-22.581,0.781-58.684-13.137-75.266-31.988
						c-5.402-6.128-8.727-12.788-8.856-19.623c-0.156-8.626,8.47-17.28,20.468-25.116c26.779-17.51,70.333-30.968,70.333-30.968
						c8.681,30.38-6.247,47.229-6.247,47.229L155.071,210.383z"/>
					<path style="opacity:0.36;fill:#EF487C;" d="M139.637,202.133c0,12.136-7.735,22.471-18.548,26.329
						c-5.402-6.128-8.727-12.788-8.856-19.623c-0.156-8.626,8.47-17.28,20.468-25.116
						C137.028,188.638,139.637,195.087,139.637,202.133z"/>
					<path style="fill:#FFAA7D;" d="M378.518,208.839c-0.129,6.835-3.454,13.495-8.856,19.623
						c-16.582,18.851-52.685,32.769-75.266,31.988l-3.096-13.936l44.381-36.131l-41.717-10.399c0,0-18.759-14.616-6.247-47.229
						c0,0,43.554,13.459,70.333,30.968C370.048,191.559,378.674,200.213,378.518,208.839z"/>
					<g>
						<path style="opacity:0.36;fill:#EF487C;" d="M378.518,208.839c-0.129,6.835-3.454,13.495-8.856,19.623
							c-10.813-3.858-18.548-14.193-18.548-26.329c0-7.046,2.609-13.495,6.936-18.41
							C370.048,191.559,378.674,200.213,378.518,208.839z"/>
					</g>
				</g>
				<g>
					<rect x="237.824" y="167.691" style="fill:#D7F2FC;" width="15.103" height="12.956"/>
					<g>
						<path style="fill:#D7F2FC;" d="M276.6,194.683l-20.188-10.685h-22.073l-20.188,10.685c-4.451,2.356-7.213,6.838-7.213,11.703
							v89.385c0,4.99,4.046,9.036,9.036,9.036h58.804c4.99,0,9.036-4.046,9.036-9.036v-89.385
							C283.814,201.52,281.051,197.039,276.6,194.683z"/>
						<g>
							<path style="fill:#A6DBFB;" d="M283.06,277.841h-75.37c-2.433,0-4.405,1.972-4.405,4.405v10.767
								c0,2.433,1.972,4.405,4.405,4.405h75.37c2.433,0,4.405-1.972,4.405-4.405v-10.767
								C287.465,279.813,285.493,277.841,283.06,277.841z"/>
							<path style="fill:#A6DBFB;" d="M283.06,241.438h-75.37c-2.433,0-4.405,1.972-4.405,4.405v10.767
								c0,2.433,1.972,4.405,4.405,4.405h75.37c2.433,0,4.405-1.972,4.405-4.405v-10.767
								C287.465,243.41,285.493,241.438,283.06,241.438z"/>
							<path style="fill:#A6DBFB;" d="M283.06,205.221h-75.37c-2.433,0-4.405,1.972-4.405,4.405v10.767
								c0,2.433,1.972,4.405,4.405,4.405h75.37c2.433,0,4.405-1.972,4.405-4.405v-10.767
								C287.465,207.193,285.493,205.221,283.06,205.221z"/>
						</g>
					</g>
					<path style="fill:#A6DBFB;" d="M254.658,177.295h-18.564c-1.299,0-2.352,1.053-2.352,2.352v1.999
						c0,1.299,1.053,2.352,2.352,2.352h18.564c1.299,0,2.352-1.053,2.352-2.352v-1.999
						C257.01,178.348,255.957,177.295,254.658,177.295z"/>
					<rect x="235.544" y="161.035" style="fill:#025AA8;" width="19.711" height="11.007"/>
				</g>
			</g>
			<g>
				<path style="fill:#FFAA7D;" d="M198.272,246.374c0,0,2.063-5.985,6.464-11.01c1.868-2.133,2.111,8.842,2.111,8.842
					s12.975-0.791,14.307,1.074c1.332,1.865-10.307,4.672-10.307,4.672s13.701,3.055,13.336,5.186
					c-0.365,2.132-12.952,1.332-12.952,1.332s10.941,4.133,10.373,5.693c-0.567,1.56-10.373,0-10.373,0s5.41,4.679,4.134,6.097
					s-20.272-7.58-20.272-7.58L198.272,246.374z"/>
				<path style="fill:#FFAA7D;" d="M292.479,246.374c0,0-2.063-5.985-6.464-11.01c-1.868-2.133-2.111,8.842-2.111,8.842
					s-12.975-0.791-14.307,1.074c-1.332,1.865,10.307,4.672,10.307,4.672s-13.701,3.055-13.336,5.186
					c0.365,2.132,12.952,1.332,12.952,1.332s-10.941,4.133-10.373,5.693c0.567,1.56,10.373,0,10.373,0s-5.41,4.679-4.134,6.097
					c1.276,1.418,20.272-7.58,20.272-7.58L292.479,246.374z"/>
			</g>
		</g>
		<g>
			
				<ellipse transform="matrix(0.1566 -0.9877 0.9877 0.1566 169.8383 464.4044)" style="fill:#FF8C2D;" cx="356.848" cy="132.754" rx="37.869" ry="37.869"/>
			
				<ellipse transform="matrix(0.1773 -0.9842 0.9842 0.1773 162.9323 460.4143)" style="fill:#FFFFFF;" cx="356.848" cy="132.754" rx="31.311" ry="31.311"/>
			<g>
				<g>
					<path style="fill:#F9BF2F;" d="M356.848,113.073L356.848,113.073c-0.548,0-0.991-0.444-0.991-0.991v-6.35
						c0-0.547,0.444-0.991,0.991-0.991l0,0c0.547,0,0.991,0.444,0.991,0.991v6.35C357.839,112.629,357.396,113.073,356.848,113.073z
						"/>
					<path style="fill:#F9BF2F;" d="M356.848,160.768L356.848,160.768c-0.548,0-0.991-0.444-0.991-0.991v-6.35
						c0-0.548,0.444-0.991,0.991-0.991l0,0c0.547,0,0.991,0.444,0.991,0.991v6.35C357.839,160.324,357.396,160.768,356.848,160.768z
						"/>
				</g>
				<g>
					<path style="fill:#F9BF2F;" d="M376.529,132.754L376.529,132.754c0-0.548,0.444-0.991,0.991-0.991h6.35
						c0.547,0,0.991,0.444,0.991,0.991l0,0c0,0.547-0.444,0.991-0.991,0.991h-6.35C376.973,133.746,376.529,133.302,376.529,132.754
						z"/>
					<path style="fill:#F9BF2F;" d="M328.834,132.754L328.834,132.754c0-0.548,0.444-0.991,0.991-0.991h6.35
						c0.547,0,0.991,0.444,0.991,0.991l0,0c0,0.547-0.444,0.991-0.991,0.991h-6.35C329.278,133.746,328.834,133.302,328.834,132.754
						z"/>
				</g>
			</g>
			<path style="fill:#FF8C2D;" d="M359.465,132.754c0,1.445-1.172,2.617-2.617,2.617c-1.445,0-2.617-1.172-2.617-2.617
				c0-1.445,1.172-2.617,2.617-2.617C358.293,130.137,359.465,131.309,359.465,132.754z"/>
			
				<polyline style="fill:none;stroke:#FF8C2D;stroke-width:2;stroke-linecap:round;stroke-linejoin:round;stroke-miterlimit:10;" points="
				356.848,118.464 356.848,132.754 372.271,141.709 			"/>
		</g>
	</g>
</g>
</svg>
